<ttFont>
    <TTGlyph name="A" xMin="-102" yMin="0" xMax="847" yMax="699">
      <contour>
        <pt x="847" y="43" on="1"/>
        <pt x="847" y="0" on="1"/>
        <pt x="584" y="0" on="1"/>
        <pt x="519" y="151" on="1"/>
        <pt x="226" y="151" on="1"/>
        <pt x="161" y="0" on="1"/>
        <pt x="-102" y="0" on="1"/>
        <pt x="-102" y="43" on="1"/>
        <pt x="13" y="43" on="1"/>
        <pt x="297" y="699" on="1"/>
        <pt x="448" y="699" on="1"/>
        <pt x="731" y="43" on="1"/>
      </contour>
      <contour>
        <pt x="373" y="491" on="1"/>
        <pt x="285" y="288" on="1"/>
        <pt x="460" y="288" on="1"/>
      </contour>
    </TTGlyph>
    <TTGlyph name="AE" xMin="-102" yMin="0" xMax="1068" yMax="699">
      <contour>
        <pt x="1068" y="43" on="1"/>
        <pt x="1068" y="0" on="1"/>
        <pt x="445" y="0" on="1"/>
        <pt x="445" y="151" on="1"/>
        <pt x="247" y="151" on="1"/>
        <pt x="168" y="0" on="1"/>
        <pt x="-102" y="0" on="1"/>
        <pt x="-102" y="43" on="1"/>
        <pt x="6" y="43" on="1"/>
        <pt x="343" y="699" on="1"/>
        <pt x="960" y="699" on="1"/>
        <pt x="960" y="562" on="1"/>
        <pt x="611" y="562" on="1"/>
        <pt x="611" y="411" on="1"/>
        <pt x="924" y="411" on="1"/>
        <pt x="924" y="280" on="1"/>
        <pt x="611" y="280" on="1"/>
        <pt x="611" y="137" on="1"/>
        <pt x="971" y="137" on="1"/>
        <pt x="971" y="43" on="1"/>
      </contour>
      <contour>
        <pt x="445" y="292" on="1"/>
        <pt x="445" y="538" on="1"/>
        <pt x="318" y="292" on="1"/>
      </contour>
    </TTGlyph>
    <TTGlyph name="Aacute" xMin="-102" yMin="0" xMax="847" yMax="948">
      <contour>
        <pt x="847" y="43" on="1"/>
        <pt x="847" y="0" on="1"/>
        <pt x="584" y="0" on="1"/>
        <pt x="519" y="151" on="1"/>
        <pt x="226" y="151" on="1"/>
        <pt x="161" y="0" on="1"/>
        <pt x="-102" y="0" on="1"/>
        <pt x="-102" y="43" on="1"/>
        <pt x="13" y="43" on="1"/>
        <pt x="297" y="699" on="1"/>
        <pt x="448" y="699" on="1"/>
        <pt x="731" y="43" on="1"/>
      </contour>
      <contour>
        <pt x="439" y="771" on="1"/>
        <pt x="296" y="771" on="1"/>
        <pt x="423" y="948" on="1"/>
        <pt x="578" y="883" on="1"/>
      </contour>
      <contour>
        <pt x="373" y="491" on="1"/>
        <pt x="285" y="288" on="1"/>
        <pt x="460" y="288" on="1"/>
      </contour>
    </TTGlyph>
    <TTGlyph name="Acircumflex" xMin="-102" yMin="0" xMax="847" yMax="927">
      <contour>
        <pt x="847" y="43" on="1"/>
        <pt x="847" y="0" on="1"/>
        <pt x="584" y="0" on="1"/>
        <pt x="519" y="151" on="1"/>
        <pt x="226" y="151" on="1"/>
        <pt x="161" y="0" on="1"/>
        <pt x="-102" y="0" on="1"/>
        <pt x="-102" y="43" on="1"/>
        <pt x="13" y="43" on="1"/>
        <pt x="297" y="699" on="1"/>
        <pt x="448" y="699" on="1"/>
        <pt x="731" y="43" on="1"/>
      </contour>
      <contour>
        <pt x="283" y="769" on="1"/>
        <pt x="160" y="769" on="1"/>
        <pt x="273" y="927" on="1"/>
        <pt x="460" y="927" on="1"/>
        <pt x="573" y="769" on="1"/>
        <pt x="450" y="769" on="1"/>
        <pt x="366" y="850" on="1"/>
      </contour>
      <contour>
        <pt x="373" y="491" on="1"/>
        <pt x="285" y="288" on="1"/>
        <pt x="460" y="288" on="1"/>
      </contour>
    </TTGlyph>
    <TTGlyph name="Adieresis" xMin="-102" yMin="0" xMax="847" yMax="921">
      <contour>
        <pt x="847" y="43" on="1"/>
        <pt x="847" y="0" on="1"/>
        <pt x="584" y="0" on="1"/>
        <pt x="519" y="151" on="1"/>
        <pt x="226" y="151" on="1"/>
        <pt x="161" y="0" on="1"/>
        <pt x="-102" y="0" on="1"/>
        <pt x="-102" y="43" on="1"/>
        <pt x="13" y="43" on="1"/>
        <pt x="297" y="699" on="1"/>
        <pt x="448" y="699" on="1"/>
        <pt x="731" y="43" on="1"/>
      </contour>
      <contour>
        <pt x="373" y="491" on="1"/>
        <pt x="285" y="288" on="1"/>
        <pt x="460" y="288" on="1"/>
      </contour>
      <contour>
        <pt x="205" y="816" on="0"/>
        <pt x="205" y="878" on="0"/>
        <pt x="248" y="921" on="0"/>
        <pt x="310" y="921" on="0"/>
        <pt x="353" y="878" on="0"/>
        <pt x="353" y="816" on="0"/>
        <pt x="310" y="773" on="0"/>
        <pt x="248" y="773" on="0"/>
      </contour>
      <contour>
        <pt x="398" y="816" on="0"/>
        <pt x="398" y="878" on="0"/>
        <pt x="441" y="921" on="0"/>
        <pt x="503" y="921" on="0"/>
        <pt x="546" y="878" on="0"/>
        <pt x="546" y="816" on="0"/>
        <pt x="503" y="773" on="0"/>
        <pt x="441" y="773" on="0"/>
      </contour>
    </TTGlyph>
    <TTGlyph name="Agrave" xMin="-102" yMin="0" xMax="847" yMax="947">
      <contour>
        <pt x="847" y="43" on="1"/>
        <pt x="847" y="0" on="1"/>
        <pt x="584" y="0" on="1"/>
        <pt x="519" y="151" on="1"/>
        <pt x="226" y="151" on="1"/>
        <pt x="161" y="0" on="1"/>
        <pt x="-102" y="0" on="1"/>
        <pt x="-102" y="43" on="1"/>
        <pt x="13" y="43" on="1"/>
        <pt x="297" y="699" on="1"/>
        <pt x="448" y="699" on="1"/>
        <pt x="731" y="43" on="1"/>
      </contour>
      <contour>
        <pt x="448" y="769" on="1"/>
        <pt x="305" y="769" on="1"/>
        <pt x="166" y="881" on="1"/>
        <pt x="320" y="947" on="1"/>
      </contour>
      <contour>
        <pt x="373" y="491" on="1"/>
        <pt x="285" y="288" on="1"/>
        <pt x="460" y="288" on="1"/>
      </contour>
    </TTGlyph>
    <TTGlyph name="Aring" xMin="-102" yMin="0" xMax="847" yMax="880">
      <contour>
        <pt x="-102" y="0" on="1"/>
        <pt x="-102" y="43" on="1"/>
        <pt x="13" y="43" on="1"/>
        <pt x="296" y="698" on="1"/>
        <pt x="266" y="730" on="0"/>
        <pt x="266" y="817" on="0"/>
        <pt x="329" y="880" on="0"/>
        <pt x="417" y="880" on="0"/>
        <pt x="480" y="817" on="0"/>
        <pt x="480" y="729" on="0"/>
        <pt x="448" y="697" on="1"/>
        <pt x="731" y="43" on="1"/>
        <pt x="847" y="43" on="1"/>
        <pt x="847" y="0" on="1"/>
        <pt x="584" y="0" on="1"/>
        <pt x="519" y="151" on="1"/>
        <pt x="226" y="151" on="1"/>
        <pt x="161" y="0" on="1"/>
      </contour>
      <contour>
        <pt x="373" y="491" on="1"/>
        <pt x="285" y="288" on="1"/>
        <pt x="460" y="288" on="1"/>
      </contour>
      <contour>
        <pt x="338" y="787" on="0"/>
        <pt x="338" y="759" on="0"/>
        <pt x="359" y="738" on="0"/>
        <pt x="387" y="738" on="0"/>
        <pt x="408" y="759" on="0"/>
        <pt x="408" y="787" on="0"/>
        <pt x="387" y="808" on="0"/>
        <pt x="359" y="808" on="0"/>
      </contour>
    </TTGlyph>
    <TTGlyph name="Atilde" xMin="-102" yMin="0" xMax="847" yMax="930">
      <contour>
        <pt x="847" y="43" on="1"/>
        <pt x="847" y="0" on="1"/>
        <pt x="584" y="0" on="1"/>
        <pt x="519" y="151" on="1"/>
        <pt x="226" y="151" on="1"/>
        <pt x="161" y="0" on="1"/>
        <pt x="-102" y="0" on="1"/>
        <pt x="-102" y="43" on="1"/>
        <pt x="13" y="43" on="1"/>
        <pt x="297" y="699" on="1"/>
        <pt x="448" y="699" on="1"/>
        <pt x="731" y="43" on="1"/>
      </contour>
      <contour>
        <pt x="309" y="821" on="1"/>
        <pt x="278" y="821" on="0"/>
        <pt x="279" y="769" on="1"/>
        <pt x="173" y="769" on="1"/>
        <pt x="173" y="844" on="0"/>
        <pt x="238" y="930" on="0"/>
        <pt x="289" y="930" on="1"/>
        <pt x="321" y="930" on="0"/>
        <pt x="412" y="875" on="0"/>
        <pt x="422" y="875" on="1"/>
        <pt x="453" y="875" on="0"/>
        <pt x="452" y="927" on="1"/>
        <pt x="558" y="927" on="1"/>
        <pt x="558" y="852" on="0"/>
        <pt x="493" y="766" on="0"/>
        <pt x="442" y="766" on="1"/>
        <pt x="411" y="766" on="0"/>
        <pt x="317" y="821" on="0"/>
      </contour>
      <contour>
        <pt x="373" y="491" on="1"/>
        <pt x="285" y="288" on="1"/>
        <pt x="460" y="288" on="1"/>
      </contour>
    </TTGlyph>
    <TTGlyph name="B" xMin="-11" yMin="0" xMax="706" yMax="699">
      <contour>
        <pt x="706" y="43" on="1"/>
        <pt x="706" y="0" on="1"/>
        <pt x="-11" y="0" on="1"/>
        <pt x="-11" y="43" on="1"/>
        <pt x="86" y="43" on="1"/>
        <pt x="86" y="699" on="1"/>
        <pt x="358" y="699" on="1"/>
        <pt x="429" y="699" on="0"/>
        <pt x="532" y="665" on="0"/>
        <pt x="558" y="636" on="1"/>
        <pt x="605" y="582" on="0"/>
        <pt x="605" y="514" on="1"/>
        <pt x="605" y="432" on="0"/>
        <pt x="552" y="392" on="1"/>
        <pt x="534" y="378" on="0"/>
        <pt x="520" y="371" on="0"/>
        <pt x="502" y="363" on="1"/>
        <pt x="567" y="349" on="0"/>
        <pt x="644" y="260" on="0"/>
        <pt x="644" y="194" on="1"/>
        <pt x="644" y="95" on="0"/>
        <pt x="566" y="43" on="1"/>
      </contour>
      <contour>
        <pt x="242" y="132" on="1"/>
        <pt x="349" y="132" on="1"/>
        <pt x="416" y="132" on="0"/>
        <pt x="483" y="165" on="0"/>
        <pt x="483" y="262" on="0"/>
        <pt x="412" y="293" on="0"/>
        <pt x="334" y="293" on="1"/>
        <pt x="242" y="293" on="1"/>
      </contour>
      <contour>
        <pt x="242" y="416" on="1"/>
        <pt x="316" y="416" on="1"/>
        <pt x="381" y="416" on="0"/>
        <pt x="444" y="444" on="0"/>
        <pt x="444" y="537" on="0"/>
        <pt x="386" y="567" on="0"/>
        <pt x="317" y="567" on="1"/>
        <pt x="242" y="567" on="1"/>
      </contour>
    </TTGlyph>
    <TTGlyph name="C" xMin="0" yMin="0" xMax="736" yMax="715">
      <contour>
        <pt x="736" y="43" on="1"/>
        <pt x="736" y="0" on="1"/>
        <pt x="0" y="0" on="1"/>
        <pt x="0" y="43" on="1"/>
        <pt x="215" y="43" on="1"/>
        <pt x="135" y="90" on="0"/>
        <pt x="44" y="251" on="0"/>
        <pt x="44" y="353" on="1"/>
        <pt x="44" y="507" on="0"/>
        <pt x="257" y="715" on="0"/>
        <pt x="411" y="715" on="1"/>
        <pt x="583" y="715" on="0"/>
        <pt x="699" y="584" on="1"/>
        <pt x="602" y="474" on="1"/>
        <pt x="528" y="566" on="0"/>
        <pt x="418" y="566" on="1"/>
        <pt x="330" y="566" on="0"/>
        <pt x="205" y="451" on="0"/>
        <pt x="205" y="256" on="0"/>
        <pt x="323" y="138" on="0"/>
        <pt x="407" y="138" on="1"/>
        <pt x="522" y="138" on="0"/>
        <pt x="595" y="229" on="1"/>
        <pt x="695" y="126" on="1"/>
        <pt x="651" y="75" on="0"/>
        <pt x="596" y="43" on="1"/>
      </contour>
    </TTGlyph>
    <TTGlyph name="Ccedilla" xMin="0" yMin="-236" xMax="736" yMax="715">
      <contour>
        <pt x="736" y="43" on="1"/>
        <pt x="736" y="0" on="1"/>
        <pt x="0" y="0" on="1"/>
        <pt x="0" y="43" on="1"/>
        <pt x="215" y="43" on="1"/>
        <pt x="135" y="90" on="0"/>
        <pt x="44" y="251" on="0"/>
        <pt x="44" y="353" on="1"/>
        <pt x="44" y="507" on="0"/>
        <pt x="257" y="715" on="0"/>
        <pt x="411" y="715" on="1"/>
        <pt x="583" y="715" on="0"/>
        <pt x="699" y="584" on="1"/>
        <pt x="602" y="474" on="1"/>
        <pt x="528" y="566" on="0"/>
        <pt x="418" y="566" on="1"/>
        <pt x="330" y="566" on="0"/>
        <pt x="205" y="451" on="0"/>
        <pt x="205" y="256" on="0"/>
        <pt x="323" y="138" on="0"/>
        <pt x="407" y="138" on="1"/>
        <pt x="522" y="138" on="0"/>
        <pt x="595" y="229" on="1"/>
        <pt x="695" y="126" on="1"/>
        <pt x="651" y="75" on="0"/>
        <pt x="596" y="43" on="1"/>
      </contour>
      <contour>
        <pt x="492" y="-129" on="1"/>
        <pt x="492" y="-172" on="0"/>
        <pt x="421" y="-236" on="0"/>
        <pt x="313" y="-236" on="0"/>
        <pt x="262" y="-204" on="1"/>
        <pt x="300" y="-118" on="1"/>
        <pt x="322" y="-137" on="0"/>
        <pt x="356" y="-137" on="0"/>
        <pt x="375" y="-119" on="0"/>
        <pt x="375" y="-92" on="0"/>
        <pt x="351" y="-71" on="0"/>
        <pt x="318" y="-71" on="0"/>
        <pt x="299" y="-80" on="1"/>
        <pt x="340" y="-2" on="1"/>
        <pt x="455" y="-2" on="1"/>
        <pt x="427" y="-53" on="1"/>
        <pt x="492" y="-75" on="0"/>
      </contour>
    </TTGlyph>
    <TTGlyph name="D" xMin="-11" yMin="0" xMax="782" yMax="699">
      <contour>
        <pt x="782" y="43" on="1"/>
        <pt x="782" y="0" on="1"/>
        <pt x="-11" y="0" on="1"/>
        <pt x="-11" y="43" on="1"/>
        <pt x="86" y="43" on="1"/>
        <pt x="86" y="699" on="1"/>
        <pt x="333" y="699" on="1"/>
        <pt x="520" y="699" on="0"/>
        <pt x="720" y="516" on="0"/>
        <pt x="720" y="350" on="1"/>
        <pt x="720" y="126" on="0"/>
        <pt x="546" y="43" on="1"/>
      </contour>
      <contour>
        <pt x="448" y="138" on="0"/>
        <pt x="563" y="246" on="0"/>
        <pt x="563" y="452" on="0"/>
        <pt x="448" y="563" on="0"/>
        <pt x="329" y="563" on="1"/>
        <pt x="242" y="563" on="1"/>
        <pt x="242" y="138" on="1"/>
        <pt x="341" y="138" on="1"/>
      </contour>
    </TTGlyph>
    <TTGlyph name="E" xMin="-11" yMin="0" xMax="698" yMax="699">
      <contour>
        <pt x="86" y="43" on="1"/>
        <pt x="86" y="699" on="1"/>
        <pt x="590" y="699" on="1"/>
        <pt x="590" y="560" on="1"/>
        <pt x="242" y="560" on="1"/>
        <pt x="242" y="416" on="1"/>
        <pt x="555" y="416" on="1"/>
        <pt x="555" y="283" on="1"/>
        <pt x="242" y="283" on="1"/>
        <pt x="242" y="138" on="1"/>
        <pt x="601" y="138" on="1"/>
        <pt x="601" y="43" on="1"/>
        <pt x="698" y="43" on="1"/>
        <pt x="698" y="0" on="1"/>
        <pt x="-11" y="0" on="1"/>
        <pt x="-11" y="43" on="1"/>
      </contour>
    </TTGlyph>
    <TTGlyph name="Eacute" xMin="-11" yMin="0" xMax="698" yMax="948">
      <contour>
        <pt x="86" y="43" on="1"/>
        <pt x="86" y="699" on="1"/>
        <pt x="590" y="699" on="1"/>
        <pt x="590" y="560" on="1"/>
        <pt x="242" y="560" on="1"/>
        <pt x="242" y="416" on="1"/>
        <pt x="555" y="416" on="1"/>
        <pt x="555" y="283" on="1"/>
        <pt x="242" y="283" on="1"/>
        <pt x="242" y="138" on="1"/>
        <pt x="601" y="138" on="1"/>
        <pt x="601" y="43" on="1"/>
        <pt x="698" y="43" on="1"/>
        <pt x="698" y="0" on="1"/>
        <pt x="-11" y="0" on="1"/>
        <pt x="-11" y="43" on="1"/>
      </contour>
      <contour>
        <pt x="395" y="771" on="1"/>
        <pt x="252" y="771" on="1"/>
        <pt x="379" y="948" on="1"/>
        <pt x="534" y="883" on="1"/>
      </contour>
    </TTGlyph>
    <TTGlyph name="Ecircumflex" xMin="-11" yMin="0" xMax="698" yMax="927">
      <contour>
        <pt x="86" y="43" on="1"/>
        <pt x="86" y="699" on="1"/>
        <pt x="590" y="699" on="1"/>
        <pt x="590" y="560" on="1"/>
        <pt x="242" y="560" on="1"/>
        <pt x="242" y="416" on="1"/>
        <pt x="555" y="416" on="1"/>
        <pt x="555" y="283" on="1"/>
        <pt x="242" y="283" on="1"/>
        <pt x="242" y="138" on="1"/>
        <pt x="601" y="138" on="1"/>
        <pt x="601" y="43" on="1"/>
        <pt x="698" y="43" on="1"/>
        <pt x="698" y="0" on="1"/>
        <pt x="-11" y="0" on="1"/>
        <pt x="-11" y="43" on="1"/>
      </contour>
      <contour>
        <pt x="239" y="769" on="1"/>
        <pt x="116" y="769" on="1"/>
        <pt x="229" y="927" on="1"/>
        <pt x="416" y="927" on="1"/>
        <pt x="529" y="769" on="1"/>
        <pt x="406" y="769" on="1"/>
        <pt x="322" y="850" on="1"/>
      </contour>
    </TTGlyph>
    <TTGlyph name="Edieresis" xMin="-11" yMin="0" xMax="698" yMax="921">
      <contour>
        <pt x="86" y="43" on="1"/>
        <pt x="86" y="699" on="1"/>
        <pt x="590" y="699" on="1"/>
        <pt x="590" y="560" on="1"/>
        <pt x="242" y="560" on="1"/>
        <pt x="242" y="416" on="1"/>
        <pt x="555" y="416" on="1"/>
        <pt x="555" y="283" on="1"/>
        <pt x="242" y="283" on="1"/>
        <pt x="242" y="138" on="1"/>
        <pt x="601" y="138" on="1"/>
        <pt x="601" y="43" on="1"/>
        <pt x="698" y="43" on="1"/>
        <pt x="698" y="0" on="1"/>
        <pt x="-11" y="0" on="1"/>
        <pt x="-11" y="43" on="1"/>
      </contour>
      <contour>
        <pt x="363" y="816" on="0"/>
        <pt x="363" y="878" on="0"/>
        <pt x="406" y="921" on="0"/>
        <pt x="468" y="921" on="0"/>
        <pt x="511" y="878" on="0"/>
        <pt x="511" y="816" on="0"/>
        <pt x="468" y="773" on="0"/>
        <pt x="406" y="773" on="0"/>
      </contour>
      <contour>
        <pt x="170" y="816" on="0"/>
        <pt x="170" y="878" on="0"/>
        <pt x="213" y="921" on="0"/>
        <pt x="275" y="921" on="0"/>
        <pt x="318" y="878" on="0"/>
        <pt x="318" y="816" on="0"/>
        <pt x="275" y="773" on="0"/>
        <pt x="213" y="773" on="0"/>
      </contour>
    </TTGlyph>
    <TTGlyph name="Egrave" xMin="-11" yMin="0" xMax="698" yMax="947">
      <contour>
        <pt x="86" y="43" on="1"/>
        <pt x="86" y="699" on="1"/>
        <pt x="590" y="699" on="1"/>
        <pt x="590" y="560" on="1"/>
        <pt x="242" y="560" on="1"/>
        <pt x="242" y="416" on="1"/>
        <pt x="555" y="416" on="1"/>
        <pt x="555" y="283" on="1"/>
        <pt x="242" y="283" on="1"/>
        <pt x="242" y="138" on="1"/>
        <pt x="601" y="138" on="1"/>
        <pt x="601" y="43" on="1"/>
        <pt x="698" y="43" on="1"/>
        <pt x="698" y="0" on="1"/>
        <pt x="-11" y="0" on="1"/>
        <pt x="-11" y="43" on="1"/>
      </contour>
      <contour>
        <pt x="404" y="769" on="1"/>
        <pt x="261" y="769" on="1"/>
        <pt x="122" y="881" on="1"/>
        <pt x="276" y="947" on="1"/>
      </contour>
    </TTGlyph>
    <TTGlyph name="Eth" xMin="3" yMin="0" xMax="796" yMax="699">
      <contour>
        <pt x="26" y="280" on="1"/>
        <pt x="26" y="413" on="1"/>
        <pt x="100" y="413" on="1"/>
        <pt x="100" y="699" on="1"/>
        <pt x="347" y="699" on="1"/>
        <pt x="534" y="699" on="0"/>
        <pt x="734" y="516" on="0"/>
        <pt x="734" y="350" on="1"/>
        <pt x="734" y="126" on="0"/>
        <pt x="560" y="43" on="1"/>
        <pt x="796" y="43" on="1"/>
        <pt x="796" y="0" on="1"/>
        <pt x="3" y="0" on="1"/>
        <pt x="3" y="43" on="1"/>
        <pt x="100" y="43" on="1"/>
        <pt x="100" y="280" on="1"/>
      </contour>
      <contour>
        <pt x="462" y="138" on="0"/>
        <pt x="577" y="246" on="0"/>
        <pt x="577" y="452" on="0"/>
        <pt x="462" y="563" on="0"/>
        <pt x="343" y="563" on="1"/>
        <pt x="256" y="563" on="1"/>
        <pt x="256" y="413" on="1"/>
        <pt x="490" y="413" on="1"/>
        <pt x="490" y="280" on="1"/>
        <pt x="256" y="280" on="1"/>
        <pt x="256" y="138" on="1"/>
        <pt x="355" y="138" on="1"/>
      </contour>
    </TTGlyph>
    <TTGlyph name="F" xMin="0" yMin="0" xMax="612" yMax="699">
      <contour>
        <pt x="612" y="43" on="1"/>
        <pt x="612" y="0" on="1"/>
        <pt x="0" y="0" on="1"/>
        <pt x="0" y="43" on="1"/>
        <pt x="86" y="43" on="1"/>
        <pt x="86" y="699" on="1"/>
        <pt x="566" y="699" on="1"/>
        <pt x="566" y="562" on="1"/>
        <pt x="242" y="562" on="1"/>
        <pt x="242" y="411" on="1"/>
        <pt x="550" y="411" on="1"/>
        <pt x="550" y="274" on="1"/>
        <pt x="242" y="274" on="1"/>
        <pt x="242" y="43" on="1"/>
      </contour>
    </TTGlyph>
    <TTGlyph name="G" xMin="0" yMin="0" xMax="750" yMax="715">
      <contour>
        <pt x="750" y="43" on="1"/>
        <pt x="750" y="0" on="1"/>
        <pt x="0" y="0" on="1"/>
        <pt x="0" y="43" on="1"/>
        <pt x="217" y="43" on="1"/>
        <pt x="137" y="90" on="0"/>
        <pt x="46" y="251" on="0"/>
        <pt x="46" y="353" on="1"/>
        <pt x="46" y="507" on="0"/>
        <pt x="259" y="715" on="0"/>
        <pt x="560" y="715" on="0"/>
        <pt x="671" y="616" on="1"/>
        <pt x="590" y="499" on="1"/>
        <pt x="543" y="540" on="0"/>
        <pt x="464" y="571" on="0"/>
        <pt x="418" y="571" on="1"/>
        <pt x="329" y="571" on="0"/>
        <pt x="207" y="450" on="0"/>
        <pt x="207" y="252" on="0"/>
        <pt x="324" y="133" on="0"/>
        <pt x="486" y="133" on="0"/>
        <pt x="540" y="164" on="1"/>
        <pt x="540" y="356" on="1"/>
        <pt x="697" y="356" on="1"/>
        <pt x="697" y="108" on="1"/>
        <pt x="663" y="70" on="0"/>
        <pt x="616" y="43" on="1"/>
      </contour>
    </TTGlyph>
    <TTGlyph name="H" xMin="0" yMin="0" xMax="762" yMax="699">
      <contour>
        <pt x="762" y="43" on="1"/>
        <pt x="762" y="0" on="1"/>
        <pt x="520" y="0" on="1"/>
        <pt x="520" y="275" on="1"/>
        <pt x="242" y="275" on="1"/>
        <pt x="242" y="0" on="1"/>
        <pt x="0" y="0" on="1"/>
        <pt x="0" y="43" on="1"/>
        <pt x="86" y="43" on="1"/>
        <pt x="86" y="699" on="1"/>
        <pt x="242" y="699" on="1"/>
        <pt x="242" y="407" on="1"/>
        <pt x="520" y="407" on="1"/>
        <pt x="520" y="699" on="1"/>
        <pt x="676" y="699" on="1"/>
        <pt x="676" y="43" on="1"/>
      </contour>
    </TTGlyph>
    <TTGlyph name="I" xMin="0" yMin="0" xMax="328" yMax="699">
      <contour>
        <pt x="328" y="43" on="1"/>
        <pt x="328" y="0" on="1"/>
        <pt x="0" y="0" on="1"/>
        <pt x="0" y="43" on="1"/>
        <pt x="86" y="43" on="1"/>
        <pt x="86" y="699" on="1"/>
        <pt x="242" y="699" on="1"/>
        <pt x="242" y="43" on="1"/>
      </contour>
    </TTGlyph>
    <TTGlyph name="Iacute" xMin="0" yMin="0" xMax="375" yMax="948">
      <contour>
        <pt x="328" y="43" on="1"/>
        <pt x="328" y="0" on="1"/>
        <pt x="0" y="0" on="1"/>
        <pt x="0" y="43" on="1"/>
        <pt x="86" y="43" on="1"/>
        <pt x="86" y="699" on="1"/>
        <pt x="242" y="699" on="1"/>
        <pt x="242" y="43" on="1"/>
      </contour>
      <contour>
        <pt x="236" y="771" on="1"/>
        <pt x="93" y="771" on="1"/>
        <pt x="220" y="948" on="1"/>
        <pt x="375" y="883" on="1"/>
      </contour>
    </TTGlyph>
    <TTGlyph name="Icircumflex" xMin="-42" yMin="0" xMax="371" yMax="928">
      <contour>
        <pt x="328" y="43" on="1"/>
        <pt x="328" y="0" on="1"/>
        <pt x="0" y="0" on="1"/>
        <pt x="0" y="43" on="1"/>
        <pt x="86" y="43" on="1"/>
        <pt x="86" y="699" on="1"/>
        <pt x="242" y="699" on="1"/>
        <pt x="242" y="43" on="1"/>
      </contour>
      <contour>
        <pt x="81" y="770" on="1"/>
        <pt x="-42" y="770" on="1"/>
        <pt x="71" y="928" on="1"/>
        <pt x="258" y="928" on="1"/>
        <pt x="371" y="770" on="1"/>
        <pt x="248" y="770" on="1"/>
        <pt x="164" y="851" on="1"/>
      </contour>
    </TTGlyph>
    <TTGlyph name="Idieresis" xMin="-7" yMin="0" xMax="334" yMax="921">
      <contour>
        <pt x="328" y="43" on="1"/>
        <pt x="328" y="0" on="1"/>
        <pt x="0" y="0" on="1"/>
        <pt x="0" y="43" on="1"/>
        <pt x="86" y="43" on="1"/>
        <pt x="86" y="699" on="1"/>
        <pt x="242" y="699" on="1"/>
        <pt x="242" y="43" on="1"/>
      </contour>
      <contour>
        <pt x="186" y="816" on="0"/>
        <pt x="186" y="878" on="0"/>
        <pt x="229" y="921" on="0"/>
        <pt x="291" y="921" on="0"/>
        <pt x="334" y="878" on="0"/>
        <pt x="334" y="816" on="0"/>
        <pt x="291" y="773" on="0"/>
        <pt x="229" y="773" on="0"/>
      </contour>
      <contour>
        <pt x="-7" y="816" on="0"/>
        <pt x="-7" y="878" on="0"/>
        <pt x="36" y="921" on="0"/>
        <pt x="98" y="921" on="0"/>
        <pt x="141" y="878" on="0"/>
        <pt x="141" y="816" on="0"/>
        <pt x="98" y="773" on="0"/>
        <pt x="36" y="773" on="0"/>
      </contour>
    </TTGlyph>
    <TTGlyph name="Igrave" xMin="-37" yMin="0" xMax="328" yMax="947">
      <contour>
        <pt x="328" y="43" on="1"/>
        <pt x="328" y="0" on="1"/>
        <pt x="0" y="0" on="1"/>
        <pt x="0" y="43" on="1"/>
        <pt x="86" y="43" on="1"/>
        <pt x="86" y="699" on="1"/>
        <pt x="242" y="699" on="1"/>
        <pt x="242" y="43" on="1"/>
      </contour>
      <contour>
        <pt x="245" y="769" on="1"/>
        <pt x="102" y="769" on="1"/>
        <pt x="-37" y="881" on="1"/>
        <pt x="117" y="947" on="1"/>
      </contour>
    </TTGlyph>
    <TTGlyph name="Itilde" xMin="-30" yMin="0" xMax="355" yMax="930">
      <contour>
        <pt x="328" y="43" on="1"/>
        <pt x="328" y="0" on="1"/>
        <pt x="0" y="0" on="1"/>
        <pt x="0" y="43" on="1"/>
        <pt x="86" y="43" on="1"/>
        <pt x="86" y="699" on="1"/>
        <pt x="242" y="699" on="1"/>
        <pt x="242" y="43" on="1"/>
      </contour>
      <contour>
        <pt x="106" y="821" on="1"/>
        <pt x="75" y="821" on="0"/>
        <pt x="76" y="769" on="1"/>
        <pt x="-30" y="769" on="1"/>
        <pt x="-30" y="844" on="0"/>
        <pt x="35" y="930" on="0"/>
        <pt x="86" y="930" on="1"/>
        <pt x="118" y="930" on="0"/>
        <pt x="209" y="875" on="0"/>
        <pt x="219" y="875" on="1"/>
        <pt x="250" y="875" on="0"/>
        <pt x="249" y="927" on="1"/>
        <pt x="355" y="927" on="1"/>
        <pt x="355" y="852" on="0"/>
        <pt x="290" y="766" on="0"/>
        <pt x="239" y="766" on="1"/>
        <pt x="208" y="766" on="0"/>
        <pt x="114" y="821" on="0"/>
      </contour>
    </TTGlyph>
    <TTGlyph name="J" xMin="0" yMin="0" xMax="556" yMax="699">
      <contour>
        <pt x="556" y="43" on="1"/>
        <pt x="556" y="0" on="1"/>
        <pt x="0" y="0" on="1"/>
        <pt x="0" y="43" on="1"/>
        <pt x="119" y="43" on="1"/>
        <pt x="70" y="65" on="0"/>
        <pt x="26" y="111" on="1"/>
        <pt x="107" y="226" on="1"/>
        <pt x="170" y="158" on="0"/>
        <pt x="239" y="158" on="1"/>
        <pt x="272" y="158" on="0"/>
        <pt x="319" y="210" on="0"/>
        <pt x="319" y="260" on="1"/>
        <pt x="319" y="565" on="1"/>
        <pt x="112" y="565" on="1"/>
        <pt x="112" y="699" on="1"/>
        <pt x="476" y="699" on="1"/>
        <pt x="476" y="263" on="1"/>
        <pt x="476" y="104" on="0"/>
        <pt x="368" y="43" on="1"/>
      </contour>
    </TTGlyph>
    <TTGlyph name="Jcircumflex" xMin="0" yMin="0" xMax="556" yMax="927">
      <contour>
        <pt x="556" y="43" on="1"/>
        <pt x="556" y="0" on="1"/>
        <pt x="0" y="0" on="1"/>
        <pt x="0" y="43" on="1"/>
        <pt x="119" y="43" on="1"/>
        <pt x="70" y="65" on="0"/>
        <pt x="26" y="111" on="1"/>
        <pt x="107" y="226" on="1"/>
        <pt x="170" y="158" on="0"/>
        <pt x="239" y="158" on="1"/>
        <pt x="272" y="158" on="0"/>
        <pt x="319" y="210" on="0"/>
        <pt x="319" y="260" on="1"/>
        <pt x="319" y="565" on="1"/>
        <pt x="112" y="565" on="1"/>
        <pt x="112" y="699" on="1"/>
        <pt x="476" y="699" on="1"/>
        <pt x="476" y="263" on="1"/>
        <pt x="476" y="104" on="0"/>
        <pt x="368" y="43" on="1"/>
      </contour>
      <contour>
        <pt x="214" y="769" on="1"/>
        <pt x="91" y="769" on="1"/>
        <pt x="204" y="927" on="1"/>
        <pt x="391" y="927" on="1"/>
        <pt x="504" y="769" on="1"/>
        <pt x="381" y="769" on="1"/>
        <pt x="297" y="850" on="1"/>
      </contour>
    </TTGlyph>
    <TTGlyph name="K" xMin="0" yMin="0" xMax="751" yMax="699">
      <contour>
        <pt x="421" y="390" on="1"/>
        <pt x="668" y="43" on="1"/>
        <pt x="751" y="43" on="1"/>
        <pt x="751" y="0" on="1"/>
        <pt x="517" y="0" on="1"/>
        <pt x="312" y="276" on="1"/>
        <pt x="242" y="198" on="1"/>
        <pt x="242" y="0" on="1"/>
        <pt x="0" y="0" on="1"/>
        <pt x="0" y="43" on="1"/>
        <pt x="86" y="43" on="1"/>
        <pt x="86" y="699" on="1"/>
        <pt x="242" y="699" on="1"/>
        <pt x="242" y="412" on="1"/>
        <pt x="506" y="699" on="1"/>
        <pt x="699" y="699" on="1"/>
      </contour>
    </TTGlyph>
    <TTGlyph name="L" xMin="-11" yMin="0" xMax="637" yMax="699">
      <contour>
        <pt x="637" y="43" on="1"/>
        <pt x="637" y="0" on="1"/>
        <pt x="-11" y="0" on="1"/>
        <pt x="-11" y="43" on="1"/>
        <pt x="86" y="43" on="1"/>
        <pt x="86" y="699" on="1"/>
        <pt x="242" y="699" on="1"/>
        <pt x="242" y="139" on="1"/>
        <pt x="540" y="139" on="1"/>
        <pt x="540" y="43" on="1"/>
      </contour>
    </TTGlyph>
    <TTGlyph name="Lslash" xMin="0" yMin="0" xMax="653" yMax="698">
      <contour>
        <pt x="102" y="43" on="1"/>
        <pt x="102" y="201" on="1"/>
        <pt x="28" y="178" on="1"/>
        <pt x="28" y="313" on="1"/>
        <pt x="102" y="337" on="1"/>
        <pt x="102" y="698" on="1"/>
        <pt x="258" y="698" on="1"/>
        <pt x="258" y="386" on="1"/>
        <pt x="463" y="451" on="1"/>
        <pt x="463" y="315" on="1"/>
        <pt x="258" y="250" on="1"/>
        <pt x="258" y="139" on="1"/>
        <pt x="556" y="139" on="1"/>
        <pt x="556" y="43" on="1"/>
        <pt x="653" y="43" on="1"/>
        <pt x="653" y="0" on="1"/>
        <pt x="0" y="0" on="1"/>
        <pt x="0" y="43" on="1"/>
      </contour>
    </TTGlyph>
    <TTGlyph name="M" xMin="-11" yMin="0" xMax="965" yMax="699">
      <contour>
        <pt x="712" y="440" on="1"/>
        <pt x="523" y="58" on="1"/>
        <pt x="430" y="58" on="1"/>
        <pt x="242" y="440" on="1"/>
        <pt x="242" y="0" on="1"/>
        <pt x="-11" y="0" on="1"/>
        <pt x="-11" y="43" on="1"/>
        <pt x="86" y="43" on="1"/>
        <pt x="86" y="699" on="1"/>
        <pt x="297" y="699" on="1"/>
        <pt x="477" y="315" on="1"/>
        <pt x="658" y="699" on="1"/>
        <pt x="868" y="699" on="1"/>
        <pt x="868" y="43" on="1"/>
        <pt x="965" y="43" on="1"/>
        <pt x="965" y="0" on="1"/>
        <pt x="712" y="0" on="1"/>
      </contour>
    </TTGlyph>
    <TTGlyph name="N" xMin="-11" yMin="0" xMax="828" yMax="699">
      <contour>
        <pt x="86" y="43" on="1"/>
        <pt x="86" y="699" on="1"/>
        <pt x="232" y="699" on="1"/>
        <pt x="575" y="249" on="1"/>
        <pt x="575" y="699" on="1"/>
        <pt x="731" y="699" on="1"/>
        <pt x="731" y="43" on="1"/>
        <pt x="828" y="43" on="1"/>
        <pt x="828" y="0" on="1"/>
        <pt x="575" y="0" on="1"/>
        <pt x="242" y="438" on="1"/>
        <pt x="242" y="0" on="1"/>
        <pt x="-11" y="0" on="1"/>
        <pt x="-11" y="43" on="1"/>
      </contour>
    </TTGlyph>
    <TTGlyph name="Nacute" xMin="-11" yMin="0" xMax="828" yMax="948">
      <contour>
        <pt x="86" y="43" on="1"/>
        <pt x="86" y="699" on="1"/>
        <pt x="232" y="699" on="1"/>
        <pt x="575" y="249" on="1"/>
        <pt x="575" y="699" on="1"/>
        <pt x="731" y="699" on="1"/>
        <pt x="731" y="43" on="1"/>
        <pt x="828" y="43" on="1"/>
        <pt x="828" y="0" on="1"/>
        <pt x="575" y="0" on="1"/>
        <pt x="242" y="438" on="1"/>
        <pt x="242" y="0" on="1"/>
        <pt x="-11" y="0" on="1"/>
        <pt x="-11" y="43" on="1"/>
      </contour>
      <contour>
        <pt x="471" y="771" on="1"/>
        <pt x="328" y="771" on="1"/>
        <pt x="455" y="948" on="1"/>
        <pt x="610" y="883" on="1"/>
      </contour>
    </TTGlyph>
    <TTGlyph name="Ntilde" xMin="-11" yMin="0" xMax="828" yMax="929">
      <contour>
        <pt x="86" y="43" on="1"/>
        <pt x="86" y="699" on="1"/>
        <pt x="232" y="699" on="1"/>
        <pt x="575" y="249" on="1"/>
        <pt x="575" y="699" on="1"/>
        <pt x="731" y="699" on="1"/>
        <pt x="731" y="43" on="1"/>
        <pt x="828" y="43" on="1"/>
        <pt x="828" y="0" on="1"/>
        <pt x="575" y="0" on="1"/>
        <pt x="242" y="438" on="1"/>
        <pt x="242" y="0" on="1"/>
        <pt x="-11" y="0" on="1"/>
        <pt x="-11" y="43" on="1"/>
      </contour>
      <contour>
        <pt x="350" y="820" on="1"/>
        <pt x="319" y="820" on="0"/>
        <pt x="320" y="768" on="1"/>
        <pt x="214" y="768" on="1"/>
        <pt x="214" y="843" on="0"/>
        <pt x="279" y="929" on="0"/>
        <pt x="330" y="929" on="1"/>
        <pt x="362" y="929" on="0"/>
        <pt x="453" y="874" on="0"/>
        <pt x="463" y="874" on="1"/>
        <pt x="494" y="874" on="0"/>
        <pt x="493" y="926" on="1"/>
        <pt x="599" y="926" on="1"/>
        <pt x="599" y="851" on="0"/>
        <pt x="534" y="765" on="0"/>
        <pt x="483" y="765" on="1"/>
        <pt x="452" y="765" on="0"/>
        <pt x="358" y="820" on="0"/>
      </contour>
    </TTGlyph>
    <TTGlyph name="O" xMin="0" yMin="0" xMax="826" yMax="715">
      <contour>
        <pt x="826" y="43" on="1"/>
        <pt x="826" y="0" on="1"/>
        <pt x="0" y="0" on="1"/>
        <pt x="0" y="43" on="1"/>
        <pt x="223" y="43" on="1"/>
        <pt x="141" y="90" on="0"/>
        <pt x="46" y="254" on="0"/>
        <pt x="46" y="354" on="1"/>
        <pt x="46" y="508" on="0"/>
        <pt x="258" y="715" on="0"/>
        <pt x="568" y="715" on="0"/>
        <pt x="780" y="508" on="0"/>
        <pt x="780" y="354" on="1"/>
        <pt x="780" y="254" on="0"/>
        <pt x="684" y="90" on="0"/>
        <pt x="603" y="43" on="1"/>
      </contour>
      <contour>
        <pt x="621" y="447" on="0"/>
        <pt x="501" y="579" on="0"/>
        <pt x="326" y="579" on="0"/>
        <pt x="206" y="447" on="0"/>
        <pt x="206" y="260" on="0"/>
        <pt x="326" y="129" on="0"/>
        <pt x="501" y="129" on="0"/>
        <pt x="621" y="260" on="0"/>
      </contour>
    </TTGlyph>
    <TTGlyph name="OE" xMin="-100" yMin="0" xMax="1145" yMax="698">
      <contour>
        <pt x="1145" y="43" on="1"/>
        <pt x="1145" y="0" on="1"/>
        <pt x="-100" y="0" on="1"/>
        <pt x="-100" y="43" on="1"/>
        <pt x="227" y="43" on="1"/>
        <pt x="144" y="87" on="0"/>
        <pt x="47" y="249" on="0"/>
        <pt x="47" y="349" on="1"/>
        <pt x="47" y="498" on="0"/>
        <pt x="252" y="698" on="0"/>
        <pt x="403" y="698" on="1"/>
        <pt x="978" y="698" on="1"/>
        <pt x="978" y="560" on="1"/>
        <pt x="630" y="560" on="1"/>
        <pt x="630" y="416" on="1"/>
        <pt x="942" y="416" on="1"/>
        <pt x="942" y="283" on="1"/>
        <pt x="630" y="283" on="1"/>
        <pt x="630" y="138" on="1"/>
        <pt x="989" y="138" on="1"/>
        <pt x="989" y="43" on="1"/>
      </contour>
      <contour>
        <pt x="329" y="567" on="0"/>
        <pt x="213" y="440" on="0"/>
        <pt x="213" y="259" on="0"/>
        <pt x="329" y="131" on="0"/>
        <pt x="413" y="131" on="1"/>
        <pt x="473" y="131" on="1"/>
        <pt x="473" y="567" on="1"/>
        <pt x="413" y="567" on="1"/>
      </contour>
    </TTGlyph>
    <TTGlyph name="Oacute" xMin="0" yMin="0" xMax="826" yMax="948">
      <contour>
        <pt x="826" y="43" on="1"/>
        <pt x="826" y="0" on="1"/>
        <pt x="0" y="0" on="1"/>
        <pt x="0" y="43" on="1"/>
        <pt x="223" y="43" on="1"/>
        <pt x="141" y="90" on="0"/>
        <pt x="46" y="254" on="0"/>
        <pt x="46" y="354" on="1"/>
        <pt x="46" y="508" on="0"/>
        <pt x="258" y="715" on="0"/>
        <pt x="568" y="715" on="0"/>
        <pt x="780" y="508" on="0"/>
        <pt x="780" y="354" on="1"/>
        <pt x="780" y="254" on="0"/>
        <pt x="684" y="90" on="0"/>
        <pt x="603" y="43" on="1"/>
      </contour>
      <contour>
        <pt x="621" y="447" on="0"/>
        <pt x="501" y="579" on="0"/>
        <pt x="326" y="579" on="0"/>
        <pt x="206" y="447" on="0"/>
        <pt x="206" y="260" on="0"/>
        <pt x="326" y="129" on="0"/>
        <pt x="501" y="129" on="0"/>
        <pt x="621" y="260" on="0"/>
      </contour>
      <contour>
        <pt x="485" y="771" on="1"/>
        <pt x="342" y="771" on="1"/>
        <pt x="469" y="948" on="1"/>
        <pt x="624" y="883" on="1"/>
      </contour>
    </TTGlyph>
    <TTGlyph name="Ocircumflex" xMin="0" yMin="0" xMax="826" yMax="927">
      <contour>
        <pt x="826" y="43" on="1"/>
        <pt x="826" y="0" on="1"/>
        <pt x="0" y="0" on="1"/>
        <pt x="0" y="43" on="1"/>
        <pt x="223" y="43" on="1"/>
        <pt x="141" y="90" on="0"/>
        <pt x="46" y="254" on="0"/>
        <pt x="46" y="354" on="1"/>
        <pt x="46" y="508" on="0"/>
        <pt x="258" y="715" on="0"/>
        <pt x="568" y="715" on="0"/>
        <pt x="780" y="508" on="0"/>
        <pt x="780" y="354" on="1"/>
        <pt x="780" y="254" on="0"/>
        <pt x="684" y="90" on="0"/>
        <pt x="603" y="43" on="1"/>
      </contour>
      <contour>
        <pt x="621" y="447" on="0"/>
        <pt x="501" y="579" on="0"/>
        <pt x="326" y="579" on="0"/>
        <pt x="206" y="447" on="0"/>
        <pt x="206" y="260" on="0"/>
        <pt x="326" y="129" on="0"/>
        <pt x="501" y="129" on="0"/>
        <pt x="621" y="260" on="0"/>
      </contour>
      <contour>
        <pt x="329" y="769" on="1"/>
        <pt x="206" y="769" on="1"/>
        <pt x="319" y="927" on="1"/>
        <pt x="506" y="927" on="1"/>
        <pt x="619" y="769" on="1"/>
        <pt x="496" y="769" on="1"/>
        <pt x="412" y="850" on="1"/>
      </contour>
    </TTGlyph>
    <TTGlyph name="Odieresis" xMin="0" yMin="0" xMax="826" yMax="921">
      <contour>
        <pt x="826" y="43" on="1"/>
        <pt x="826" y="0" on="1"/>
        <pt x="0" y="0" on="1"/>
        <pt x="0" y="43" on="1"/>
        <pt x="223" y="43" on="1"/>
        <pt x="141" y="90" on="0"/>
        <pt x="46" y="254" on="0"/>
        <pt x="46" y="354" on="1"/>
        <pt x="46" y="508" on="0"/>
        <pt x="258" y="715" on="0"/>
        <pt x="568" y="715" on="0"/>
        <pt x="780" y="508" on="0"/>
        <pt x="780" y="354" on="1"/>
        <pt x="780" y="254" on="0"/>
        <pt x="684" y="90" on="0"/>
        <pt x="603" y="43" on="1"/>
      </contour>
      <contour>
        <pt x="621" y="447" on="0"/>
        <pt x="501" y="579" on="0"/>
        <pt x="326" y="579" on="0"/>
        <pt x="206" y="447" on="0"/>
        <pt x="206" y="260" on="0"/>
        <pt x="326" y="129" on="0"/>
        <pt x="501" y="129" on="0"/>
        <pt x="621" y="260" on="0"/>
      </contour>
      <contour>
        <pt x="241" y="816" on="0"/>
        <pt x="241" y="878" on="0"/>
        <pt x="284" y="921" on="0"/>
        <pt x="346" y="921" on="0"/>
        <pt x="389" y="878" on="0"/>
        <pt x="389" y="816" on="0"/>
        <pt x="346" y="773" on="0"/>
        <pt x="284" y="773" on="0"/>
      </contour>
      <contour>
        <pt x="434" y="816" on="0"/>
        <pt x="434" y="878" on="0"/>
        <pt x="477" y="921" on="0"/>
        <pt x="539" y="921" on="0"/>
        <pt x="582" y="878" on="0"/>
        <pt x="582" y="816" on="0"/>
        <pt x="539" y="773" on="0"/>
        <pt x="477" y="773" on="0"/>
      </contour>
    </TTGlyph>
    <TTGlyph name="Ograve" xMin="0" yMin="0" xMax="826" yMax="947">
      <contour>
        <pt x="826" y="43" on="1"/>
        <pt x="826" y="0" on="1"/>
        <pt x="0" y="0" on="1"/>
        <pt x="0" y="43" on="1"/>
        <pt x="223" y="43" on="1"/>
        <pt x="141" y="90" on="0"/>
        <pt x="46" y="254" on="0"/>
        <pt x="46" y="354" on="1"/>
        <pt x="46" y="508" on="0"/>
        <pt x="258" y="715" on="0"/>
        <pt x="568" y="715" on="0"/>
        <pt x="780" y="508" on="0"/>
        <pt x="780" y="354" on="1"/>
        <pt x="780" y="254" on="0"/>
        <pt x="684" y="90" on="0"/>
        <pt x="603" y="43" on="1"/>
      </contour>
      <contour>
        <pt x="621" y="447" on="0"/>
        <pt x="501" y="579" on="0"/>
        <pt x="326" y="579" on="0"/>
        <pt x="206" y="447" on="0"/>
        <pt x="206" y="260" on="0"/>
        <pt x="326" y="129" on="0"/>
        <pt x="501" y="129" on="0"/>
        <pt x="621" y="260" on="0"/>
      </contour>
      <contour>
        <pt x="494" y="769" on="1"/>
        <pt x="351" y="769" on="1"/>
        <pt x="212" y="881" on="1"/>
        <pt x="366" y="947" on="1"/>
      </contour>
    </TTGlyph>
    <TTGlyph name="Oslash" xMin="0" yMin="-112" xMax="826" yMax="805">
      <contour>
        <pt x="826" y="43" on="1"/>
        <pt x="826" y="0" on="1"/>
        <pt x="333" y="0" on="1"/>
        <pt x="282" y="-112" on="1"/>
        <pt x="141" y="-112" on="1"/>
        <pt x="192" y="0" on="1"/>
        <pt x="0" y="0" on="1"/>
        <pt x="0" y="43" on="1"/>
        <pt x="211" y="43" on="1"/>
        <pt x="214" y="48" on="1"/>
        <pt x="136" y="96" on="0"/>
        <pt x="46" y="257" on="0"/>
        <pt x="46" y="354" on="1"/>
        <pt x="46" y="508" on="0"/>
        <pt x="258" y="715" on="0"/>
        <pt x="413" y="715" on="1"/>
        <pt x="461" y="715" on="0"/>
        <pt x="513" y="702" on="1"/>
        <pt x="560" y="805" on="1"/>
        <pt x="702" y="805" on="1"/>
        <pt x="630" y="648" on="1"/>
        <pt x="700" y="599" on="0"/>
        <pt x="780" y="445" on="0"/>
        <pt x="780" y="254" on="0"/>
        <pt x="684" y="91" on="0"/>
        <pt x="603" y="43" on="1"/>
      </contour>
      <contour>
        <pt x="413" y="579" on="1"/>
        <pt x="326" y="579" on="0"/>
        <pt x="206" y="447" on="0"/>
        <pt x="206" y="249" on="0"/>
        <pt x="276" y="184" on="1"/>
        <pt x="455" y="574" on="1"/>
        <pt x="432" y="579" on="0"/>
      </contour>
      <contour>
        <pt x="501" y="129" on="0"/>
        <pt x="621" y="260" on="0"/>
        <pt x="621" y="442" on="0"/>
        <pt x="565" y="508" on="1"/>
        <pt x="393" y="130" on="1"/>
        <pt x="399" y="129" on="0"/>
        <pt x="413" y="129" on="1"/>
      </contour>
    </TTGlyph>
    <TTGlyph name="Otilde" xMin="0" yMin="0" xMax="826" yMax="929">
      <contour>
        <pt x="826" y="43" on="1"/>
        <pt x="826" y="0" on="1"/>
        <pt x="0" y="0" on="1"/>
        <pt x="0" y="43" on="1"/>
        <pt x="223" y="43" on="1"/>
        <pt x="141" y="90" on="0"/>
        <pt x="46" y="254" on="0"/>
        <pt x="46" y="354" on="1"/>
        <pt x="46" y="508" on="0"/>
        <pt x="258" y="715" on="0"/>
        <pt x="568" y="715" on="0"/>
        <pt x="780" y="508" on="0"/>
        <pt x="780" y="354" on="1"/>
        <pt x="780" y="254" on="0"/>
        <pt x="684" y="90" on="0"/>
        <pt x="603" y="43" on="1"/>
      </contour>
      <contour>
        <pt x="621" y="447" on="0"/>
        <pt x="501" y="579" on="0"/>
        <pt x="326" y="579" on="0"/>
        <pt x="206" y="447" on="0"/>
        <pt x="206" y="260" on="0"/>
        <pt x="326" y="129" on="0"/>
        <pt x="501" y="129" on="0"/>
        <pt x="621" y="260" on="0"/>
      </contour>
      <contour>
        <pt x="355" y="820" on="1"/>
        <pt x="324" y="820" on="0"/>
        <pt x="325" y="768" on="1"/>
        <pt x="219" y="768" on="1"/>
        <pt x="219" y="843" on="0"/>
        <pt x="284" y="929" on="0"/>
        <pt x="335" y="929" on="1"/>
        <pt x="367" y="929" on="0"/>
        <pt x="458" y="874" on="0"/>
        <pt x="468" y="874" on="1"/>
        <pt x="499" y="874" on="0"/>
        <pt x="498" y="926" on="1"/>
        <pt x="604" y="926" on="1"/>
        <pt x="604" y="851" on="0"/>
        <pt x="539" y="765" on="0"/>
        <pt x="488" y="765" on="1"/>
        <pt x="457" y="765" on="0"/>
        <pt x="363" y="820" on="0"/>
      </contour>
    </TTGlyph>
    <TTGlyph name="P" xMin="-11" yMin="0" xMax="677" yMax="699">
      <contour>
        <pt x="677" y="43" on="1"/>
        <pt x="677" y="0" on="1"/>
        <pt x="-11" y="0" on="1"/>
        <pt x="-11" y="43" on="1"/>
        <pt x="86" y="43" on="1"/>
        <pt x="86" y="699" on="1"/>
        <pt x="333" y="699" on="1"/>
        <pt x="494" y="699" on="0"/>
        <pt x="641" y="574" on="0"/>
        <pt x="641" y="315" on="0"/>
        <pt x="490" y="195" on="0"/>
        <pt x="335" y="195" on="1"/>
        <pt x="242" y="195" on="1"/>
        <pt x="242" y="43" on="1"/>
      </contour>
      <contour>
        <pt x="425" y="330" on="0"/>
        <pt x="481" y="393" on="0"/>
        <pt x="481" y="514" on="0"/>
        <pt x="408" y="565" on="0"/>
        <pt x="331" y="565" on="1"/>
        <pt x="242" y="565" on="1"/>
        <pt x="242" y="330" on="1"/>
        <pt x="347" y="330" on="1"/>
      </contour>
    </TTGlyph>
    <TTGlyph name="Q" xMin="0" yMin="-117" xMax="827" yMax="715">
      <contour>
        <pt x="780" y="354" on="1"/>
        <pt x="780" y="254" on="0"/>
        <pt x="685" y="90" on="0"/>
        <pt x="603" y="43" on="1"/>
        <pt x="827" y="43" on="1"/>
        <pt x="827" y="0" on="1"/>
        <pt x="491" y="0" on="1"/>
        <pt x="491" y="-117" on="1"/>
        <pt x="335" y="-117" on="1"/>
        <pt x="335" y="0" on="1"/>
        <pt x="0" y="0" on="1"/>
        <pt x="0" y="43" on="1"/>
        <pt x="223" y="43" on="1"/>
        <pt x="141" y="90" on="0"/>
        <pt x="46" y="254" on="0"/>
        <pt x="46" y="354" on="1"/>
        <pt x="46" y="508" on="0"/>
        <pt x="258" y="715" on="0"/>
        <pt x="568" y="715" on="0"/>
        <pt x="780" y="508" on="0"/>
      </contour>
      <contour>
        <pt x="335" y="242" on="1"/>
        <pt x="491" y="242" on="1"/>
        <pt x="491" y="145" on="1"/>
        <pt x="549" y="170" on="0"/>
        <pt x="621" y="283" on="0"/>
        <pt x="621" y="353" on="1"/>
        <pt x="621" y="447" on="0"/>
        <pt x="501" y="579" on="0"/>
        <pt x="326" y="579" on="0"/>
        <pt x="206" y="447" on="0"/>
        <pt x="206" y="353" on="1"/>
        <pt x="206" y="283" on="0"/>
        <pt x="277" y="170" on="0"/>
        <pt x="335" y="145" on="1"/>
      </contour>
    </TTGlyph>
    <TTGlyph name="R" xMin="-11" yMin="0" xMax="760" yMax="699">
      <contour>
        <pt x="86" y="43" on="1"/>
        <pt x="86" y="699" on="1"/>
        <pt x="351" y="699" on="1"/>
        <pt x="514" y="699" on="0"/>
        <pt x="653" y="589" on="0"/>
        <pt x="653" y="467" on="1"/>
        <pt x="653" y="299" on="0"/>
        <pt x="520" y="250" on="1"/>
        <pt x="666" y="43" on="1"/>
        <pt x="760" y="43" on="1"/>
        <pt x="760" y="0" on="1"/>
        <pt x="505" y="0" on="1"/>
        <pt x="350" y="223" on="1"/>
        <pt x="242" y="223" on="1"/>
        <pt x="242" y="0" on="1"/>
        <pt x="-11" y="0" on="1"/>
        <pt x="-11" y="43" on="1"/>
      </contour>
      <contour>
        <pt x="436" y="358" on="0"/>
        <pt x="494" y="410" on="0"/>
        <pt x="494" y="523" on="0"/>
        <pt x="434" y="565" on="0"/>
        <pt x="359" y="565" on="1"/>
        <pt x="242" y="565" on="1"/>
        <pt x="242" y="358" on="1"/>
        <pt x="356" y="358" on="1"/>
      </contour>
    </TTGlyph>
    <TTGlyph name="Racute" xMin="-11" yMin="0" xMax="760" yMax="948">
      <contour>
        <pt x="86" y="43" on="1"/>
        <pt x="86" y="699" on="1"/>
        <pt x="351" y="699" on="1"/>
        <pt x="514" y="699" on="0"/>
        <pt x="653" y="589" on="0"/>
        <pt x="653" y="467" on="1"/>
        <pt x="653" y="299" on="0"/>
        <pt x="520" y="250" on="1"/>
        <pt x="666" y="43" on="1"/>
        <pt x="760" y="43" on="1"/>
        <pt x="760" y="0" on="1"/>
        <pt x="505" y="0" on="1"/>
        <pt x="350" y="223" on="1"/>
        <pt x="242" y="223" on="1"/>
        <pt x="242" y="0" on="1"/>
        <pt x="-11" y="0" on="1"/>
        <pt x="-11" y="43" on="1"/>
      </contour>
      <contour>
        <pt x="436" y="358" on="0"/>
        <pt x="494" y="410" on="0"/>
        <pt x="494" y="523" on="0"/>
        <pt x="434" y="565" on="0"/>
        <pt x="359" y="565" on="1"/>
        <pt x="242" y="565" on="1"/>
        <pt x="242" y="358" on="1"/>
        <pt x="356" y="358" on="1"/>
      </contour>
      <contour>
        <pt x="347" y="771" on="1"/>
        <pt x="204" y="771" on="1"/>
        <pt x="331" y="948" on="1"/>
        <pt x="486" y="883" on="1"/>
      </contour>
    </TTGlyph>
    <TTGlyph name="Rcaron" xMin="-11" yMin="0" xMax="760" yMax="927">
      <contour>
        <pt x="86" y="43" on="1"/>
        <pt x="86" y="699" on="1"/>
        <pt x="351" y="699" on="1"/>
        <pt x="514" y="699" on="0"/>
        <pt x="653" y="589" on="0"/>
        <pt x="653" y="467" on="1"/>
        <pt x="653" y="299" on="0"/>
        <pt x="520" y="250" on="1"/>
        <pt x="666" y="43" on="1"/>
        <pt x="760" y="43" on="1"/>
        <pt x="760" y="0" on="1"/>
        <pt x="505" y="0" on="1"/>
        <pt x="350" y="223" on="1"/>
        <pt x="242" y="223" on="1"/>
        <pt x="242" y="0" on="1"/>
        <pt x="-11" y="0" on="1"/>
        <pt x="-11" y="43" on="1"/>
      </contour>
      <contour>
        <pt x="436" y="358" on="0"/>
        <pt x="494" y="410" on="0"/>
        <pt x="494" y="523" on="0"/>
        <pt x="434" y="565" on="0"/>
        <pt x="359" y="565" on="1"/>
        <pt x="242" y="565" on="1"/>
        <pt x="242" y="358" on="1"/>
        <pt x="356" y="358" on="1"/>
      </contour>
      <contour>
        <pt x="130" y="927" on="1"/>
        <pt x="253" y="927" on="1"/>
        <pt x="336" y="846" on="1"/>
        <pt x="420" y="927" on="1"/>
        <pt x="543" y="927" on="1"/>
        <pt x="430" y="769" on="1"/>
        <pt x="243" y="769" on="1"/>
      </contour>
    </TTGlyph>
    <TTGlyph name="Rcommaaccent" xMin="-11" yMin="-250" xMax="760" yMax="699">
      <contour>
        <pt x="760" y="43" on="1"/>
        <pt x="760" y="0" on="1"/>
        <pt x="505" y="0" on="1"/>
        <pt x="358" y="211" on="1"/>
        <pt x="358" y="-55" on="1"/>
        <pt x="452" y="-55" on="1"/>
        <pt x="372" y="-250" on="1"/>
        <pt x="246" y="-250" on="1"/>
        <pt x="311" y="-55" on="1"/>
        <pt x="311" y="223" on="1"/>
        <pt x="242" y="223" on="1"/>
        <pt x="242" y="0" on="1"/>
        <pt x="-11" y="0" on="1"/>
        <pt x="-11" y="43" on="1"/>
        <pt x="86" y="43" on="1"/>
        <pt x="86" y="699" on="1"/>
        <pt x="351" y="699" on="1"/>
        <pt x="514" y="699" on="0"/>
        <pt x="653" y="589" on="0"/>
        <pt x="653" y="467" on="1"/>
        <pt x="653" y="299" on="0"/>
        <pt x="520" y="250" on="1"/>
        <pt x="666" y="43" on="1"/>
      </contour>
      <contour>
        <pt x="436" y="358" on="0"/>
        <pt x="494" y="410" on="0"/>
        <pt x="494" y="523" on="0"/>
        <pt x="434" y="565" on="0"/>
        <pt x="359" y="565" on="1"/>
        <pt x="242" y="565" on="1"/>
        <pt x="242" y="358" on="1"/>
        <pt x="356" y="358" on="1"/>
      </contour>
    </TTGlyph>
    <TTGlyph name="S" xMin="0" yMin="0" xMax="638" yMax="715">
      <contour>
        <pt x="638" y="43" on="1"/>
        <pt x="638" y="0" on="1"/>
        <pt x="0" y="0" on="1"/>
        <pt x="0" y="43" on="1"/>
        <pt x="136" y="43" on="1"/>
        <pt x="81" y="71" on="0"/>
        <pt x="36" y="115" on="1"/>
        <pt x="129" y="229" on="1"/>
        <pt x="242" y="130" on="0"/>
        <pt x="338" y="130" on="1"/>
        <pt x="381" y="130" on="0"/>
        <pt x="430" y="167" on="0"/>
        <pt x="430" y="230" on="0"/>
        <pt x="378" y="267" on="0"/>
        <pt x="301" y="286" on="1"/>
        <pt x="179" y="315" on="0"/>
        <pt x="66" y="408" on="0"/>
        <pt x="66" y="607" on="0"/>
        <pt x="209" y="715" on="0"/>
        <pt x="316" y="715" on="1"/>
        <pt x="386" y="715" on="0"/>
        <pt x="526" y="667" on="0"/>
        <pt x="578" y="623" on="1"/>
        <pt x="499" y="509" on="1"/>
        <pt x="408" y="578" on="0"/>
        <pt x="311" y="578" on="1"/>
        <pt x="272" y="578" on="0"/>
        <pt x="227" y="541" on="0"/>
        <pt x="227" y="480" on="0"/>
        <pt x="282" y="444" on="0"/>
        <pt x="481" y="395" on="0"/>
        <pt x="591" y="297" on="0"/>
        <pt x="591" y="210" on="1"/>
        <pt x="591" y="102" on="0"/>
        <pt x="510" y="43" on="1"/>
      </contour>
    </TTGlyph>
    <TTGlyph name="Scaron" xMin="0" yMin="0" xMax="638" yMax="927">
      <contour>
        <pt x="638" y="43" on="1"/>
        <pt x="638" y="0" on="1"/>
        <pt x="0" y="0" on="1"/>
        <pt x="0" y="43" on="1"/>
        <pt x="136" y="43" on="1"/>
        <pt x="81" y="71" on="0"/>
        <pt x="36" y="115" on="1"/>
        <pt x="129" y="229" on="1"/>
        <pt x="242" y="130" on="0"/>
        <pt x="338" y="130" on="1"/>
        <pt x="381" y="130" on="0"/>
        <pt x="430" y="167" on="0"/>
        <pt x="430" y="230" on="0"/>
        <pt x="378" y="267" on="0"/>
        <pt x="301" y="286" on="1"/>
        <pt x="179" y="315" on="0"/>
        <pt x="66" y="408" on="0"/>
        <pt x="66" y="607" on="0"/>
        <pt x="209" y="715" on="0"/>
        <pt x="316" y="715" on="1"/>
        <pt x="386" y="715" on="0"/>
        <pt x="526" y="667" on="0"/>
        <pt x="578" y="623" on="1"/>
        <pt x="499" y="509" on="1"/>
        <pt x="408" y="578" on="0"/>
        <pt x="311" y="578" on="1"/>
        <pt x="272" y="578" on="0"/>
        <pt x="227" y="541" on="0"/>
        <pt x="227" y="480" on="0"/>
        <pt x="282" y="444" on="0"/>
        <pt x="481" y="395" on="0"/>
        <pt x="591" y="297" on="0"/>
        <pt x="591" y="210" on="1"/>
        <pt x="591" y="102" on="0"/>
        <pt x="510" y="43" on="1"/>
      </contour>
      <contour>
        <pt x="101" y="927" on="1"/>
        <pt x="224" y="927" on="1"/>
        <pt x="307" y="846" on="1"/>
        <pt x="391" y="927" on="1"/>
        <pt x="514" y="927" on="1"/>
        <pt x="401" y="769" on="1"/>
        <pt x="214" y="769" on="1"/>
      </contour>
    </TTGlyph>
    <TTGlyph name="T" xMin="0" yMin="0" xMax="608" yMax="699">
      <contour>
        <pt x="608" y="43" on="1"/>
        <pt x="608" y="0" on="1"/>
        <pt x="0" y="0" on="1"/>
        <pt x="0" y="43" on="1"/>
        <pt x="226" y="43" on="1"/>
        <pt x="226" y="564" on="1"/>
        <pt x="28" y="564" on="1"/>
        <pt x="28" y="699" on="1"/>
        <pt x="580" y="699" on="1"/>
        <pt x="580" y="564" on="1"/>
        <pt x="382" y="564" on="1"/>
        <pt x="382" y="43" on="1"/>
      </contour>
    </TTGlyph>
    <TTGlyph name="Thorn" xMin="-100" yMin="0" xMax="785" yMax="699">
      <contour>
        <pt x="785" y="43" on="1"/>
        <pt x="785" y="0" on="1"/>
        <pt x="-100" y="0" on="1"/>
        <pt x="-100" y="43" on="1"/>
        <pt x="86" y="43" on="1"/>
        <pt x="86" y="699" on="1"/>
        <pt x="242" y="699" on="1"/>
        <pt x="242" y="615" on="1"/>
        <pt x="323" y="615" on="1"/>
        <pt x="641" y="615" on="0"/>
        <pt x="641" y="368" on="1"/>
        <pt x="641" y="232" on="0"/>
        <pt x="482" y="111" on="0"/>
        <pt x="325" y="111" on="1"/>
        <pt x="242" y="111" on="1"/>
        <pt x="242" y="43" on="1"/>
      </contour>
      <contour>
        <pt x="417" y="246" on="0"/>
        <pt x="481" y="311" on="0"/>
        <pt x="481" y="430" on="0"/>
        <pt x="401" y="480" on="0"/>
        <pt x="321" y="480" on="1"/>
        <pt x="242" y="480" on="1"/>
        <pt x="242" y="246" on="1"/>
        <pt x="337" y="246" on="1"/>
      </contour>
    </TTGlyph>
    <TTGlyph name="U" xMin="0" yMin="0" xMax="751" yMax="699">
      <contour>
        <pt x="751" y="43" on="1"/>
        <pt x="751" y="0" on="1"/>
        <pt x="0" y="0" on="1"/>
        <pt x="0" y="43" on="1"/>
        <pt x="199" y="43" on="1"/>
        <pt x="76" y="125" on="0"/>
        <pt x="76" y="308" on="1"/>
        <pt x="76" y="699" on="1"/>
        <pt x="232" y="699" on="1"/>
        <pt x="232" y="313" on="1"/>
        <pt x="232" y="229" on="0"/>
        <pt x="310" y="132" on="0"/>
        <pt x="442" y="132" on="0"/>
        <pt x="519" y="229" on="0"/>
        <pt x="519" y="313" on="1"/>
        <pt x="519" y="699" on="1"/>
        <pt x="675" y="699" on="1"/>
        <pt x="675" y="308" on="1"/>
        <pt x="675" y="125" on="0"/>
        <pt x="553" y="43" on="1"/>
      </contour>
    </TTGlyph>
    <TTGlyph name="Uacute" xMin="0" yMin="0" xMax="751" yMax="948">
      <contour>
        <pt x="751" y="43" on="1"/>
        <pt x="751" y="0" on="1"/>
        <pt x="0" y="0" on="1"/>
        <pt x="0" y="43" on="1"/>
        <pt x="199" y="43" on="1"/>
        <pt x="76" y="125" on="0"/>
        <pt x="76" y="308" on="1"/>
        <pt x="76" y="699" on="1"/>
        <pt x="232" y="699" on="1"/>
        <pt x="232" y="313" on="1"/>
        <pt x="232" y="229" on="0"/>
        <pt x="310" y="132" on="0"/>
        <pt x="442" y="132" on="0"/>
        <pt x="519" y="229" on="0"/>
        <pt x="519" y="313" on="1"/>
        <pt x="519" y="699" on="1"/>
        <pt x="675" y="699" on="1"/>
        <pt x="675" y="308" on="1"/>
        <pt x="675" y="125" on="0"/>
        <pt x="553" y="43" on="1"/>
      </contour>
      <contour>
        <pt x="447" y="771" on="1"/>
        <pt x="304" y="771" on="1"/>
        <pt x="431" y="948" on="1"/>
        <pt x="586" y="883" on="1"/>
      </contour>
    </TTGlyph>
    <TTGlyph name="Ucircumflex" xMin="0" yMin="0" xMax="751" yMax="927">
      <contour>
        <pt x="751" y="43" on="1"/>
        <pt x="751" y="0" on="1"/>
        <pt x="0" y="0" on="1"/>
        <pt x="0" y="43" on="1"/>
        <pt x="199" y="43" on="1"/>
        <pt x="76" y="125" on="0"/>
        <pt x="76" y="308" on="1"/>
        <pt x="76" y="699" on="1"/>
        <pt x="232" y="699" on="1"/>
        <pt x="232" y="313" on="1"/>
        <pt x="232" y="229" on="0"/>
        <pt x="310" y="132" on="0"/>
        <pt x="442" y="132" on="0"/>
        <pt x="519" y="229" on="0"/>
        <pt x="519" y="313" on="1"/>
        <pt x="519" y="699" on="1"/>
        <pt x="675" y="699" on="1"/>
        <pt x="675" y="308" on="1"/>
        <pt x="675" y="125" on="0"/>
        <pt x="553" y="43" on="1"/>
      </contour>
      <contour>
        <pt x="291" y="769" on="1"/>
        <pt x="168" y="769" on="1"/>
        <pt x="281" y="927" on="1"/>
        <pt x="468" y="927" on="1"/>
        <pt x="581" y="769" on="1"/>
        <pt x="458" y="769" on="1"/>
        <pt x="374" y="850" on="1"/>
      </contour>
    </TTGlyph>
    <TTGlyph name="Udieresis" xMin="0" yMin="0" xMax="751" yMax="921">
      <contour>
        <pt x="751" y="43" on="1"/>
        <pt x="751" y="0" on="1"/>
        <pt x="0" y="0" on="1"/>
        <pt x="0" y="43" on="1"/>
        <pt x="199" y="43" on="1"/>
        <pt x="76" y="125" on="0"/>
        <pt x="76" y="308" on="1"/>
        <pt x="76" y="699" on="1"/>
        <pt x="232" y="699" on="1"/>
        <pt x="232" y="313" on="1"/>
        <pt x="232" y="229" on="0"/>
        <pt x="310" y="132" on="0"/>
        <pt x="442" y="132" on="0"/>
        <pt x="519" y="229" on="0"/>
        <pt x="519" y="313" on="1"/>
        <pt x="519" y="699" on="1"/>
        <pt x="675" y="699" on="1"/>
        <pt x="675" y="308" on="1"/>
        <pt x="675" y="125" on="0"/>
        <pt x="553" y="43" on="1"/>
      </contour>
      <contour>
        <pt x="397" y="816" on="0"/>
        <pt x="397" y="878" on="0"/>
        <pt x="440" y="921" on="0"/>
        <pt x="502" y="921" on="0"/>
        <pt x="545" y="878" on="0"/>
        <pt x="545" y="816" on="0"/>
        <pt x="502" y="773" on="0"/>
        <pt x="440" y="773" on="0"/>
      </contour>
      <contour>
        <pt x="204" y="816" on="0"/>
        <pt x="204" y="878" on="0"/>
        <pt x="247" y="921" on="0"/>
        <pt x="309" y="921" on="0"/>
        <pt x="352" y="878" on="0"/>
        <pt x="352" y="816" on="0"/>
        <pt x="309" y="773" on="0"/>
        <pt x="247" y="773" on="0"/>
      </contour>
    </TTGlyph>
    <TTGlyph name="Ugrave" xMin="0" yMin="0" xMax="751" yMax="947">
      <contour>
        <pt x="751" y="43" on="1"/>
        <pt x="751" y="0" on="1"/>
        <pt x="0" y="0" on="1"/>
        <pt x="0" y="43" on="1"/>
        <pt x="199" y="43" on="1"/>
        <pt x="76" y="125" on="0"/>
        <pt x="76" y="308" on="1"/>
        <pt x="76" y="699" on="1"/>
        <pt x="232" y="699" on="1"/>
        <pt x="232" y="313" on="1"/>
        <pt x="232" y="229" on="0"/>
        <pt x="310" y="132" on="0"/>
        <pt x="442" y="132" on="0"/>
        <pt x="519" y="229" on="0"/>
        <pt x="519" y="313" on="1"/>
        <pt x="519" y="699" on="1"/>
        <pt x="675" y="699" on="1"/>
        <pt x="675" y="308" on="1"/>
        <pt x="675" y="125" on="0"/>
        <pt x="553" y="43" on="1"/>
      </contour>
      <contour>
        <pt x="455" y="769" on="1"/>
        <pt x="312" y="769" on="1"/>
        <pt x="173" y="881" on="1"/>
        <pt x="327" y="947" on="1"/>
      </contour>
    </TTGlyph>
    <TTGlyph name="V" xMin="-3" yMin="0" xMax="691" yMax="699">
      <contour>
        <pt x="688" y="43" on="1"/>
        <pt x="688" y="0" on="1"/>
        <pt x="0" y="0" on="1"/>
        <pt x="0" y="43" on="1"/>
        <pt x="260" y="43" on="1"/>
        <pt x="-3" y="699" on="1"/>
        <pt x="166" y="699" on="1"/>
        <pt x="344" y="254" on="1"/>
        <pt x="522" y="699" on="1"/>
        <pt x="691" y="699" on="1"/>
        <pt x="427" y="43" on="1"/>
      </contour>
    </TTGlyph>
    <TTGlyph name="W" xMin="-3" yMin="0" xMax="1022" yMax="699">
      <contour>
        <pt x="1019" y="43" on="1"/>
        <pt x="1019" y="0" on="1"/>
        <pt x="662" y="0" on="1"/>
        <pt x="509" y="486" on="1"/>
        <pt x="357" y="0" on="1"/>
        <pt x="0" y="0" on="1"/>
        <pt x="0" y="43" on="1"/>
        <pt x="226" y="43" on="1"/>
        <pt x="-3" y="699" on="1"/>
        <pt x="166" y="699" on="1"/>
        <pt x="304" y="297" on="1"/>
        <pt x="428" y="699" on="1"/>
        <pt x="591" y="699" on="1"/>
        <pt x="714" y="297" on="1"/>
        <pt x="853" y="699" on="1"/>
        <pt x="1022" y="699" on="1"/>
        <pt x="793" y="43" on="1"/>
      </contour>
    </TTGlyph>
    <TTGlyph name="X" xMin="-58" yMin="0" xMax="754" yMax="699">
      <contour>
        <pt x="754" y="43" on="1"/>
        <pt x="754" y="0" on="1"/>
        <pt x="495" y="0" on="1"/>
        <pt x="346" y="230" on="1"/>
        <pt x="198" y="0" on="1"/>
        <pt x="-58" y="0" on="1"/>
        <pt x="-58" y="43" on="1"/>
        <pt x="38" y="43" on="1"/>
        <pt x="245" y="358" on="1"/>
        <pt x="26" y="699" on="1"/>
        <pt x="213" y="699" on="1"/>
        <pt x="346" y="492" on="1"/>
        <pt x="479" y="699" on="1"/>
        <pt x="667" y="699" on="1"/>
        <pt x="449" y="362" on="1"/>
        <pt x="657" y="43" on="1"/>
      </contour>
    </TTGlyph>
    <TTGlyph name="Y" xMin="-11" yMin="0" xMax="629" yMax="699">
      <contour>
        <pt x="618" y="43" on="1"/>
        <pt x="618" y="0" on="1"/>
        <pt x="0" y="0" on="1"/>
        <pt x="0" y="43" on="1"/>
        <pt x="231" y="43" on="1"/>
        <pt x="231" y="276" on="1"/>
        <pt x="-11" y="699" on="1"/>
        <pt x="158" y="699" on="1"/>
        <pt x="309" y="439" on="1"/>
        <pt x="460" y="699" on="1"/>
        <pt x="629" y="699" on="1"/>
        <pt x="387" y="276" on="1"/>
        <pt x="387" y="43" on="1"/>
      </contour>
    </TTGlyph>
    <TTGlyph name="Yacute" xMin="-11" yMin="0" xMax="629" yMax="948">
      <contour>
        <pt x="618" y="43" on="1"/>
        <pt x="618" y="0" on="1"/>
        <pt x="0" y="0" on="1"/>
        <pt x="0" y="43" on="1"/>
        <pt x="231" y="43" on="1"/>
        <pt x="231" y="276" on="1"/>
        <pt x="-11" y="699" on="1"/>
        <pt x="158" y="699" on="1"/>
        <pt x="309" y="439" on="1"/>
        <pt x="460" y="699" on="1"/>
        <pt x="629" y="699" on="1"/>
        <pt x="387" y="276" on="1"/>
        <pt x="387" y="43" on="1"/>
      </contour>
      <contour>
        <pt x="361" y="771" on="1"/>
        <pt x="218" y="771" on="1"/>
        <pt x="345" y="948" on="1"/>
        <pt x="500" y="883" on="1"/>
      </contour>
    </TTGlyph>
    <TTGlyph name="Ydieresis" xMin="-11" yMin="0" xMax="629" yMax="925">
      <contour>
        <pt x="618" y="43" on="1"/>
        <pt x="618" y="0" on="1"/>
        <pt x="0" y="0" on="1"/>
        <pt x="0" y="43" on="1"/>
        <pt x="231" y="43" on="1"/>
        <pt x="231" y="276" on="1"/>
        <pt x="-11" y="699" on="1"/>
        <pt x="158" y="699" on="1"/>
        <pt x="309" y="439" on="1"/>
        <pt x="460" y="699" on="1"/>
        <pt x="629" y="699" on="1"/>
        <pt x="387" y="276" on="1"/>
        <pt x="387" y="43" on="1"/>
      </contour>
      <contour>
        <pt x="331" y="820" on="0"/>
        <pt x="331" y="882" on="0"/>
        <pt x="374" y="925" on="0"/>
        <pt x="436" y="925" on="0"/>
        <pt x="479" y="882" on="0"/>
        <pt x="479" y="820" on="0"/>
        <pt x="436" y="777" on="0"/>
        <pt x="374" y="777" on="0"/>
      </contour>
      <contour>
        <pt x="138" y="820" on="0"/>
        <pt x="138" y="882" on="0"/>
        <pt x="181" y="925" on="0"/>
        <pt x="243" y="925" on="0"/>
        <pt x="286" y="882" on="0"/>
        <pt x="286" y="820" on="0"/>
        <pt x="243" y="777" on="0"/>
        <pt x="181" y="777" on="0"/>
      </contour>
    </TTGlyph>
    <TTGlyph name="Z" xMin="-51" yMin="0" xMax="728" yMax="699">
      <contour>
        <pt x="728" y="43" on="1"/>
        <pt x="728" y="0" on="1"/>
        <pt x="-51" y="0" on="1"/>
        <pt x="-51" y="43" on="1"/>
        <pt x="46" y="43" on="1"/>
        <pt x="46" y="107" on="1"/>
        <pt x="412" y="564" on="1"/>
        <pt x="58" y="564" on="1"/>
        <pt x="58" y="699" on="1"/>
        <pt x="625" y="699" on="1"/>
        <pt x="625" y="591" on="1"/>
        <pt x="260" y="136" on="1"/>
        <pt x="631" y="136" on="1"/>
        <pt x="631" y="43" on="1"/>
      </contour>
    </TTGlyph>
    <TTGlyph name="Zcaron" xMin="-51" yMin="0" xMax="728" yMax="927">
      <contour>
        <pt x="728" y="43" on="1"/>
        <pt x="728" y="0" on="1"/>
        <pt x="-51" y="0" on="1"/>
        <pt x="-51" y="43" on="1"/>
        <pt x="46" y="43" on="1"/>
        <pt x="46" y="107" on="1"/>
        <pt x="412" y="564" on="1"/>
        <pt x="58" y="564" on="1"/>
        <pt x="58" y="699" on="1"/>
        <pt x="625" y="699" on="1"/>
        <pt x="625" y="591" on="1"/>
        <pt x="260" y="136" on="1"/>
        <pt x="631" y="136" on="1"/>
        <pt x="631" y="43" on="1"/>
      </contour>
      <contour>
        <pt x="127" y="927" on="1"/>
        <pt x="250" y="927" on="1"/>
        <pt x="333" y="846" on="1"/>
        <pt x="417" y="927" on="1"/>
        <pt x="540" y="927" on="1"/>
        <pt x="427" y="769" on="1"/>
        <pt x="240" y="769" on="1"/>
      </contour>
    </TTGlyph>
    <TTGlyph name="a" xMin="-102" yMin="0" xMax="847" yMax="699">
      <contour>
        <pt x="847" y="43" on="1"/>
        <pt x="847" y="0" on="1"/>
        <pt x="584" y="0" on="1"/>
        <pt x="519" y="151" on="1"/>
        <pt x="226" y="151" on="1"/>
        <pt x="161" y="0" on="1"/>
        <pt x="-102" y="0" on="1"/>
        <pt x="-102" y="43" on="1"/>
        <pt x="13" y="43" on="1"/>
        <pt x="297" y="699" on="1"/>
        <pt x="448" y="699" on="1"/>
        <pt x="731" y="43" on="1"/>
      </contour>
      <contour>
        <pt x="373" y="491" on="1"/>
        <pt x="285" y="288" on="1"/>
        <pt x="460" y="288" on="1"/>
      </contour>
    </TTGlyph>
    <TTGlyph name="aacute" xMin="-102" yMin="0" xMax="847" yMax="948">
      <contour>
        <pt x="847" y="43" on="1"/>
        <pt x="847" y="0" on="1"/>
        <pt x="584" y="0" on="1"/>
        <pt x="519" y="151" on="1"/>
        <pt x="226" y="151" on="1"/>
        <pt x="161" y="0" on="1"/>
        <pt x="-102" y="0" on="1"/>
        <pt x="-102" y="43" on="1"/>
        <pt x="13" y="43" on="1"/>
        <pt x="297" y="699" on="1"/>
        <pt x="448" y="699" on="1"/>
        <pt x="731" y="43" on="1"/>
      </contour>
      <contour>
        <pt x="439" y="771" on="1"/>
        <pt x="296" y="771" on="1"/>
        <pt x="423" y="948" on="1"/>
        <pt x="578" y="883" on="1"/>
      </contour>
      <contour>
        <pt x="373" y="491" on="1"/>
        <pt x="285" y="288" on="1"/>
        <pt x="460" y="288" on="1"/>
      </contour>
    </TTGlyph>
    <TTGlyph name="acircumflex" xMin="-102" yMin="0" xMax="847" yMax="927">
      <contour>
        <pt x="847" y="43" on="1"/>
        <pt x="847" y="0" on="1"/>
        <pt x="584" y="0" on="1"/>
        <pt x="519" y="151" on="1"/>
        <pt x="226" y="151" on="1"/>
        <pt x="161" y="0" on="1"/>
        <pt x="-102" y="0" on="1"/>
        <pt x="-102" y="43" on="1"/>
        <pt x="13" y="43" on="1"/>
        <pt x="297" y="699" on="1"/>
        <pt x="448" y="699" on="1"/>
        <pt x="731" y="43" on="1"/>
      </contour>
      <contour>
        <pt x="283" y="769" on="1"/>
        <pt x="160" y="769" on="1"/>
        <pt x="273" y="927" on="1"/>
        <pt x="460" y="927" on="1"/>
        <pt x="573" y="769" on="1"/>
        <pt x="450" y="769" on="1"/>
        <pt x="366" y="850" on="1"/>
      </contour>
      <contour>
        <pt x="373" y="491" on="1"/>
        <pt x="285" y="288" on="1"/>
        <pt x="460" y="288" on="1"/>
      </contour>
    </TTGlyph>
    <TTGlyph name="acute" xMin="50" yMin="771" xMax="332" yMax="948">
      <contour>
        <pt x="193" y="771" on="1"/>
        <pt x="50" y="771" on="1"/>
        <pt x="177" y="948" on="1"/>
        <pt x="332" y="883" on="1"/>
      </contour>
    </TTGlyph>
    <TTGlyph name="adieresis" xMin="-102" yMin="0" xMax="847" yMax="921">
      <contour>
        <pt x="847" y="43" on="1"/>
        <pt x="847" y="0" on="1"/>
        <pt x="584" y="0" on="1"/>
        <pt x="519" y="151" on="1"/>
        <pt x="226" y="151" on="1"/>
        <pt x="161" y="0" on="1"/>
        <pt x="-102" y="0" on="1"/>
        <pt x="-102" y="43" on="1"/>
        <pt x="13" y="43" on="1"/>
        <pt x="297" y="699" on="1"/>
        <pt x="448" y="699" on="1"/>
        <pt x="731" y="43" on="1"/>
      </contour>
      <contour>
        <pt x="373" y="491" on="1"/>
        <pt x="285" y="288" on="1"/>
        <pt x="460" y="288" on="1"/>
      </contour>
      <contour>
        <pt x="205" y="816" on="0"/>
        <pt x="205" y="878" on="0"/>
        <pt x="248" y="921" on="0"/>
        <pt x="310" y="921" on="0"/>
        <pt x="353" y="878" on="0"/>
        <pt x="353" y="816" on="0"/>
        <pt x="310" y="773" on="0"/>
        <pt x="248" y="773" on="0"/>
      </contour>
      <contour>
        <pt x="398" y="816" on="0"/>
        <pt x="398" y="878" on="0"/>
        <pt x="441" y="921" on="0"/>
        <pt x="503" y="921" on="0"/>
        <pt x="546" y="878" on="0"/>
        <pt x="546" y="816" on="0"/>
        <pt x="503" y="773" on="0"/>
        <pt x="441" y="773" on="0"/>
      </contour>
    </TTGlyph>
    <TTGlyph name="ae" xMin="-102" yMin="0" xMax="1068" yMax="699">
      <contour>
        <pt x="1068" y="43" on="1"/>
        <pt x="1068" y="0" on="1"/>
        <pt x="445" y="0" on="1"/>
        <pt x="445" y="151" on="1"/>
        <pt x="247" y="151" on="1"/>
        <pt x="168" y="0" on="1"/>
        <pt x="-102" y="0" on="1"/>
        <pt x="-102" y="43" on="1"/>
        <pt x="6" y="43" on="1"/>
        <pt x="343" y="699" on="1"/>
        <pt x="960" y="699" on="1"/>
        <pt x="960" y="562" on="1"/>
        <pt x="611" y="562" on="1"/>
        <pt x="611" y="411" on="1"/>
        <pt x="924" y="411" on="1"/>
        <pt x="924" y="280" on="1"/>
        <pt x="611" y="280" on="1"/>
        <pt x="611" y="137" on="1"/>
        <pt x="971" y="137" on="1"/>
        <pt x="971" y="43" on="1"/>
      </contour>
      <contour>
        <pt x="445" y="292" on="1"/>
        <pt x="445" y="538" on="1"/>
        <pt x="318" y="292" on="1"/>
      </contour>
    </TTGlyph>
    <TTGlyph name="agrave" xMin="-102" yMin="0" xMax="847" yMax="947">
      <contour>
        <pt x="847" y="43" on="1"/>
        <pt x="847" y="0" on="1"/>
        <pt x="584" y="0" on="1"/>
        <pt x="519" y="151" on="1"/>
        <pt x="226" y="151" on="1"/>
        <pt x="161" y="0" on="1"/>
        <pt x="-102" y="0" on="1"/>
        <pt x="-102" y="43" on="1"/>
        <pt x="13" y="43" on="1"/>
        <pt x="297" y="699" on="1"/>
        <pt x="448" y="699" on="1"/>
        <pt x="731" y="43" on="1"/>
      </contour>
      <contour>
        <pt x="448" y="769" on="1"/>
        <pt x="305" y="769" on="1"/>
        <pt x="166" y="881" on="1"/>
        <pt x="320" y="947" on="1"/>
      </contour>
      <contour>
        <pt x="373" y="491" on="1"/>
        <pt x="285" y="288" on="1"/>
        <pt x="460" y="288" on="1"/>
      </contour>
    </TTGlyph>
    <TTGlyph name="ampersand" xMin="0" yMin="0" xMax="700" yMax="715">
      <contour>
        <pt x="700" y="43" on="1"/>
        <pt x="700" y="0" on="1"/>
        <pt x="0" y="0" on="1"/>
        <pt x="0" y="43" on="1"/>
        <pt x="126" y="43" on="1"/>
        <pt x="47" y="98" on="0"/>
        <pt x="47" y="196" on="1"/>
        <pt x="47" y="314" on="0"/>
        <pt x="194" y="398" on="1"/>
        <pt x="130" y="466" on="0"/>
        <pt x="130" y="614" on="0"/>
        <pt x="246" y="715" on="0"/>
        <pt x="347" y="715" on="1"/>
        <pt x="422" y="715" on="0"/>
        <pt x="541" y="628" on="0"/>
        <pt x="541" y="550" on="1"/>
        <pt x="541" y="452" on="0"/>
        <pt x="398" y="368" on="1"/>
        <pt x="443" y="311" on="0"/>
        <pt x="478" y="273" on="1"/>
        <pt x="503" y="313" on="0"/>
        <pt x="514" y="364" on="1"/>
        <pt x="627" y="290" on="1"/>
        <pt x="604" y="227" on="0"/>
        <pt x="571" y="173" on="1"/>
        <pt x="657" y="88" on="1"/>
        <pt x="609" y="43" on="1"/>
      </contour>
      <contour>
        <pt x="192" y="168" on="0"/>
        <pt x="244" y="127" on="0"/>
        <pt x="327" y="127" on="0"/>
        <pt x="382" y="180" on="1"/>
        <pt x="318" y="248" on="0"/>
        <pt x="273" y="301" on="1"/>
        <pt x="238" y="284" on="0"/>
        <pt x="192" y="231" on="0"/>
      </contour>
      <contour>
        <pt x="316" y="597" on="0"/>
        <pt x="281" y="566" on="0"/>
        <pt x="281" y="513" on="0"/>
        <pt x="321" y="463" on="1"/>
        <pt x="396" y="503" on="0"/>
        <pt x="396" y="538" on="1"/>
        <pt x="396" y="567" on="0"/>
        <pt x="360" y="597" on="0"/>
      </contour>
      <contour>
        <pt x="471" y="83" on="1"/>
        <pt x="437" y="55" on="0"/>
        <pt x="408" y="43" on="1"/>
        <pt x="510" y="43" on="1"/>
      </contour>
    </TTGlyph>
    <TTGlyph name="aring" xMin="-102" yMin="0" xMax="847" yMax="880">
      <contour>
        <pt x="-102" y="0" on="1"/>
        <pt x="-102" y="43" on="1"/>
        <pt x="13" y="43" on="1"/>
        <pt x="296" y="698" on="1"/>
        <pt x="266" y="730" on="0"/>
        <pt x="266" y="817" on="0"/>
        <pt x="329" y="880" on="0"/>
        <pt x="417" y="880" on="0"/>
        <pt x="480" y="817" on="0"/>
        <pt x="480" y="729" on="0"/>
        <pt x="448" y="697" on="1"/>
        <pt x="731" y="43" on="1"/>
        <pt x="847" y="43" on="1"/>
        <pt x="847" y="0" on="1"/>
        <pt x="584" y="0" on="1"/>
        <pt x="519" y="151" on="1"/>
        <pt x="226" y="151" on="1"/>
        <pt x="161" y="0" on="1"/>
      </contour>
      <contour>
        <pt x="373" y="491" on="1"/>
        <pt x="285" y="288" on="1"/>
        <pt x="460" y="288" on="1"/>
      </contour>
      <contour>
        <pt x="338" y="787" on="0"/>
        <pt x="338" y="759" on="0"/>
        <pt x="359" y="738" on="0"/>
        <pt x="387" y="738" on="0"/>
        <pt x="408" y="759" on="0"/>
        <pt x="408" y="787" on="0"/>
        <pt x="387" y="808" on="0"/>
        <pt x="359" y="808" on="0"/>
      </contour>
    </TTGlyph>
    <TTGlyph name="asciicircum" xMin="22" yMin="771" xMax="461" yMax="948">
      <contour>
        <pt x="165" y="771" on="1"/>
        <pt x="22" y="771" on="1"/>
        <pt x="159" y="948" on="1"/>
        <pt x="324" y="948" on="1"/>
        <pt x="461" y="771" on="1"/>
        <pt x="318" y="771" on="1"/>
        <pt x="241" y="856" on="1"/>
      </contour>
    </TTGlyph>
    <TTGlyph name="asciitilde" xMin="0" yMin="0" xMax="535" yMax="479">
      <contour>
        <pt x="0" y="0" on="1"/>
        <pt x="0" y="43" on="1"/>
        <pt x="236" y="43" on="1"/>
        <pt x="236" y="339" on="1"/>
        <pt x="200" y="354" on="0"/>
        <pt x="169" y="354" on="0"/>
        <pt x="143" y="316" on="0"/>
        <pt x="144" y="281" on="1"/>
        <pt x="25" y="317" on="1"/>
        <pt x="32" y="397" on="0"/>
        <pt x="112" y="478" on="0"/>
        <pt x="175" y="478" on="1"/>
        <pt x="211" y="478" on="0"/>
        <pt x="335" y="414" on="0"/>
        <pt x="357" y="414" on="1"/>
        <pt x="389" y="414" on="0"/>
        <pt x="389" y="457" on="1"/>
        <pt x="389" y="471" on="0"/>
        <pt x="387" y="479" on="1"/>
        <pt x="507" y="447" on="1"/>
        <pt x="501" y="364" on="0"/>
        <pt x="425" y="289" on="0"/>
        <pt x="368" y="289" on="1"/>
        <pt x="338" y="289" on="0"/>
        <pt x="300" y="307" on="1"/>
        <pt x="300" y="43" on="1"/>
        <pt x="535" y="43" on="1"/>
        <pt x="535" y="0" on="1"/>
      </contour>
    </TTGlyph>
    <TTGlyph name="asterisk" xMin="0" yMin="0" xMax="456" yMax="699">
      <contour>
        <pt x="456" y="43" on="1"/>
        <pt x="456" y="0" on="1"/>
        <pt x="0" y="0" on="1"/>
        <pt x="0" y="43" on="1"/>
        <pt x="204" y="43" on="1"/>
        <pt x="204" y="363" on="1"/>
        <pt x="172" y="363" on="1"/>
        <pt x="178" y="447" on="1"/>
        <pt x="107" y="398" on="1"/>
        <pt x="56" y="489" on="1"/>
        <pt x="140" y="531" on="1"/>
        <pt x="55" y="573" on="1"/>
        <pt x="107" y="662" on="1"/>
        <pt x="178" y="615" on="1"/>
        <pt x="172" y="699" on="1"/>
        <pt x="284" y="699" on="1"/>
        <pt x="278" y="615" on="1"/>
        <pt x="349" y="662" on="1"/>
        <pt x="401" y="573" on="1"/>
        <pt x="316" y="531" on="1"/>
        <pt x="400" y="489" on="1"/>
        <pt x="349" y="398" on="1"/>
        <pt x="278" y="447" on="1"/>
        <pt x="284" y="363" on="1"/>
        <pt x="251" y="363" on="1"/>
        <pt x="251" y="43" on="1"/>
      </contour>
    </TTGlyph>
    <TTGlyph name="at" xMin="0" yMin="0" xMax="891" yMax="716">
      <contour>
        <pt x="891" y="43" on="1"/>
        <pt x="891" y="0" on="1"/>
        <pt x="0" y="0" on="1"/>
        <pt x="0" y="43" on="1"/>
        <pt x="154" y="43" on="1"/>
        <pt x="52" y="151" on="0"/>
        <pt x="52" y="479" on="0"/>
        <pt x="289" y="716" on="0"/>
        <pt x="623" y="716" on="0"/>
        <pt x="847" y="488" on="0"/>
        <pt x="847" y="318" on="1"/>
        <pt x="847" y="208" on="0"/>
        <pt x="756" y="75" on="0"/>
        <pt x="682" y="75" on="1"/>
        <pt x="644" y="75" on="0"/>
        <pt x="581" y="121" on="0"/>
        <pt x="569" y="156" on="1"/>
        <pt x="514" y="85" on="0"/>
        <pt x="345" y="85" on="0"/>
        <pt x="220" y="213" on="0"/>
        <pt x="220" y="409" on="0"/>
        <pt x="333" y="540" on="0"/>
        <pt x="425" y="540" on="1"/>
        <pt x="456" y="540" on="0"/>
        <pt x="512" y="514" on="0"/>
        <pt x="524" y="500" on="1"/>
        <pt x="537" y="487" on="1"/>
        <pt x="537" y="532" on="1"/>
        <pt x="662" y="532" on="1"/>
        <pt x="662" y="214" on="1"/>
        <pt x="662" y="164" on="0"/>
        <pt x="692" y="164" on="1"/>
        <pt x="719" y="164" on="0"/>
        <pt x="760" y="250" on="0"/>
        <pt x="760" y="315" on="1"/>
        <pt x="760" y="456" on="0"/>
        <pt x="598" y="641" on="0"/>
        <pt x="326" y="641" on="0"/>
        <pt x="140" y="447" on="0"/>
        <pt x="140" y="310" on="1"/>
        <pt x="140" y="224" on="0"/>
        <pt x="215" y="84" on="0"/>
        <pt x="280" y="43" on="1"/>
      </contour>
      <contour>
        <pt x="538" y="365" on="0"/>
        <pt x="485" y="431" on="0"/>
        <pt x="399" y="431" on="0"/>
        <pt x="348" y="365" on="0"/>
        <pt x="348" y="268" on="0"/>
        <pt x="399" y="196" on="0"/>
        <pt x="487" y="196" on="0"/>
        <pt x="538" y="265" on="0"/>
      </contour>
    </TTGlyph>
    <TTGlyph name="atilde" xMin="-102" yMin="0" xMax="847" yMax="930">
      <contour>
        <pt x="847" y="43" on="1"/>
        <pt x="847" y="0" on="1"/>
        <pt x="584" y="0" on="1"/>
        <pt x="519" y="151" on="1"/>
        <pt x="226" y="151" on="1"/>
        <pt x="161" y="0" on="1"/>
        <pt x="-102" y="0" on="1"/>
        <pt x="-102" y="43" on="1"/>
        <pt x="13" y="43" on="1"/>
        <pt x="297" y="699" on="1"/>
        <pt x="448" y="699" on="1"/>
        <pt x="731" y="43" on="1"/>
      </contour>
      <contour>
        <pt x="309" y="821" on="1"/>
        <pt x="278" y="821" on="0"/>
        <pt x="279" y="769" on="1"/>
        <pt x="173" y="769" on="1"/>
        <pt x="173" y="844" on="0"/>
        <pt x="238" y="930" on="0"/>
        <pt x="289" y="930" on="1"/>
        <pt x="321" y="930" on="0"/>
        <pt x="412" y="875" on="0"/>
        <pt x="422" y="875" on="1"/>
        <pt x="453" y="875" on="0"/>
        <pt x="452" y="927" on="1"/>
        <pt x="558" y="927" on="1"/>
        <pt x="558" y="852" on="0"/>
        <pt x="493" y="766" on="0"/>
        <pt x="442" y="766" on="1"/>
        <pt x="411" y="766" on="0"/>
        <pt x="317" y="821" on="0"/>
      </contour>
      <contour>
        <pt x="373" y="491" on="1"/>
        <pt x="285" y="288" on="1"/>
        <pt x="460" y="288" on="1"/>
      </contour>
    </TTGlyph>
    <TTGlyph name="b" xMin="-11" yMin="0" xMax="706" yMax="699">
      <contour>
        <pt x="706" y="43" on="1"/>
        <pt x="706" y="0" on="1"/>
        <pt x="-11" y="0" on="1"/>
        <pt x="-11" y="43" on="1"/>
        <pt x="86" y="43" on="1"/>
        <pt x="86" y="699" on="1"/>
        <pt x="358" y="699" on="1"/>
        <pt x="429" y="699" on="0"/>
        <pt x="532" y="665" on="0"/>
        <pt x="558" y="636" on="1"/>
        <pt x="605" y="582" on="0"/>
        <pt x="605" y="514" on="1"/>
        <pt x="605" y="432" on="0"/>
        <pt x="552" y="392" on="1"/>
        <pt x="534" y="378" on="0"/>
        <pt x="520" y="371" on="0"/>
        <pt x="502" y="363" on="1"/>
        <pt x="567" y="349" on="0"/>
        <pt x="644" y="260" on="0"/>
        <pt x="644" y="194" on="1"/>
        <pt x="644" y="95" on="0"/>
        <pt x="566" y="43" on="1"/>
      </contour>
      <contour>
        <pt x="242" y="132" on="1"/>
        <pt x="349" y="132" on="1"/>
        <pt x="416" y="132" on="0"/>
        <pt x="483" y="165" on="0"/>
        <pt x="483" y="262" on="0"/>
        <pt x="412" y="293" on="0"/>
        <pt x="334" y="293" on="1"/>
        <pt x="242" y="293" on="1"/>
      </contour>
      <contour>
        <pt x="242" y="416" on="1"/>
        <pt x="316" y="416" on="1"/>
        <pt x="381" y="416" on="0"/>
        <pt x="444" y="444" on="0"/>
        <pt x="444" y="537" on="0"/>
        <pt x="386" y="567" on="0"/>
        <pt x="317" y="567" on="1"/>
        <pt x="242" y="567" on="1"/>
      </contour>
    </TTGlyph>
    <TTGlyph name="backslash" xMin="0" yMin="0" xMax="632" yMax="757">
      <contour>
        <pt x="632" y="43" on="1"/>
        <pt x="632" y="0" on="1"/>
        <pt x="0" y="0" on="1"/>
        <pt x="0" y="43" on="1"/>
        <pt x="371" y="43" on="1"/>
        <pt x="28" y="757" on="1"/>
        <pt x="179" y="757" on="1"/>
        <pt x="522" y="43" on="1"/>
      </contour>
    </TTGlyph>
    <TTGlyph name="bar" xMin="0" yMin="0" xMax="276" yMax="777">
      <contour>
        <pt x="0" y="0" on="1"/>
        <pt x="0" y="43" on="1"/>
        <pt x="76" y="43" on="1"/>
        <pt x="76" y="777" on="1"/>
        <pt x="200" y="777" on="1"/>
        <pt x="200" y="43" on="1"/>
        <pt x="276" y="43" on="1"/>
        <pt x="276" y="0" on="1"/>
      </contour>
    </TTGlyph>
    <TTGlyph name="braceleft" xMin="0" yMin="0" xMax="360" yMax="757">
      <contour>
        <pt x="360" y="43" on="1"/>
        <pt x="360" y="0" on="1"/>
        <pt x="0" y="0" on="1"/>
        <pt x="0" y="43" on="1"/>
        <pt x="148" y="43" on="1"/>
        <pt x="106" y="82" on="0"/>
        <pt x="106" y="149" on="1"/>
        <pt x="106" y="275" on="1"/>
        <pt x="106" y="329" on="0"/>
        <pt x="57" y="329" on="1"/>
        <pt x="37" y="329" on="1"/>
        <pt x="37" y="431" on="1"/>
        <pt x="57" y="431" on="1"/>
        <pt x="106" y="431" on="0"/>
        <pt x="106" y="485" on="1"/>
        <pt x="106" y="611" on="1"/>
        <pt x="106" y="684" on="0"/>
        <pt x="197" y="757" on="0"/>
        <pt x="271" y="757" on="1"/>
        <pt x="311" y="757" on="1"/>
        <pt x="311" y="644" on="1"/>
        <pt x="306" y="645" on="0"/>
        <pt x="296" y="645" on="1"/>
        <pt x="246" y="645" on="0"/>
        <pt x="246" y="585" on="1"/>
        <pt x="246" y="499" on="1"/>
        <pt x="246" y="430" on="0"/>
        <pt x="205" y="396" on="1"/>
        <pt x="188" y="382" on="0"/>
        <pt x="179" y="380" on="1"/>
        <pt x="203" y="372" on="0"/>
        <pt x="224" y="344" on="1"/>
        <pt x="246" y="315" on="0"/>
        <pt x="246" y="261" on="1"/>
        <pt x="246" y="175" on="1"/>
        <pt x="246" y="115" on="0"/>
        <pt x="296" y="115" on="1"/>
        <pt x="306" y="115" on="0"/>
        <pt x="311" y="116" on="1"/>
        <pt x="311" y="43" on="1"/>
      </contour>
    </TTGlyph>
    <TTGlyph name="braceright" xMin="0" yMin="0" xMax="360" yMax="757">
      <contour>
        <pt x="0" y="0" on="1"/>
        <pt x="0" y="43" on="1"/>
        <pt x="49" y="43" on="1"/>
        <pt x="49" y="116" on="1"/>
        <pt x="54" y="115" on="0"/>
        <pt x="64" y="115" on="1"/>
        <pt x="114" y="115" on="0"/>
        <pt x="114" y="175" on="1"/>
        <pt x="114" y="261" on="1"/>
        <pt x="114" y="329" on="0"/>
        <pt x="154" y="364" on="1"/>
        <pt x="170" y="378" on="0"/>
        <pt x="180" y="380" on="1"/>
        <pt x="156" y="388" on="0"/>
        <pt x="136" y="416" on="1"/>
        <pt x="114" y="448" on="0"/>
        <pt x="114" y="499" on="1"/>
        <pt x="114" y="585" on="1"/>
        <pt x="114" y="645" on="0"/>
        <pt x="64" y="645" on="1"/>
        <pt x="54" y="645" on="0"/>
        <pt x="49" y="644" on="1"/>
        <pt x="49" y="757" on="1"/>
        <pt x="89" y="757" on="1"/>
        <pt x="163" y="757" on="0"/>
        <pt x="254" y="684" on="0"/>
        <pt x="254" y="611" on="1"/>
        <pt x="254" y="485" on="1"/>
        <pt x="254" y="431" on="0"/>
        <pt x="303" y="431" on="1"/>
        <pt x="323" y="431" on="1"/>
        <pt x="323" y="329" on="1"/>
        <pt x="303" y="329" on="1"/>
        <pt x="254" y="329" on="0"/>
        <pt x="254" y="275" on="1"/>
        <pt x="254" y="149" on="1"/>
        <pt x="254" y="82" on="0"/>
        <pt x="212" y="43" on="1"/>
        <pt x="360" y="43" on="1"/>
        <pt x="360" y="0" on="1"/>
      </contour>
    </TTGlyph>
    <TTGlyph name="bracketleft" xMin="-9" yMin="0" xMax="411" yMax="757">
      <contour>
        <pt x="-9" y="0" on="1"/>
        <pt x="-9" y="43" on="1"/>
        <pt x="77" y="43" on="1"/>
        <pt x="77" y="757" on="1"/>
        <pt x="334" y="757" on="1"/>
        <pt x="334" y="644" on="1"/>
        <pt x="205" y="644" on="1"/>
        <pt x="205" y="130" on="1"/>
        <pt x="334" y="130" on="1"/>
        <pt x="334" y="43" on="1"/>
        <pt x="411" y="43" on="1"/>
        <pt x="411" y="0" on="1"/>
      </contour>
    </TTGlyph>
    <TTGlyph name="bracketright" xMin="-37" yMin="0" xMax="383" yMax="757">
      <contour>
        <pt x="383" y="43" on="1"/>
        <pt x="383" y="0" on="1"/>
        <pt x="-37" y="0" on="1"/>
        <pt x="-37" y="43" on="1"/>
        <pt x="40" y="43" on="1"/>
        <pt x="40" y="130" on="1"/>
        <pt x="169" y="130" on="1"/>
        <pt x="169" y="644" on="1"/>
        <pt x="40" y="644" on="1"/>
        <pt x="40" y="757" on="1"/>
        <pt x="297" y="757" on="1"/>
        <pt x="297" y="43" on="1"/>
      </contour>
    </TTGlyph>
    <TTGlyph name="breve" xMin="100" yMin="552" xMax="468" yMax="726">
      <contour>
        <pt x="239" y="666" on="0"/>
        <pt x="329" y="666" on="0"/>
        <pt x="347" y="726" on="1"/>
        <pt x="468" y="726" on="1"/>
        <pt x="461" y="644" on="0"/>
        <pt x="361" y="552" on="0"/>
        <pt x="207" y="552" on="0"/>
        <pt x="107" y="644" on="0"/>
        <pt x="100" y="726" on="1"/>
        <pt x="221" y="726" on="1"/>
      </contour>
    </TTGlyph>
    <TTGlyph name="brokenbar" xMin="0" yMin="0" xMax="294" yMax="754">
      <contour>
        <pt x="294" y="43" on="1"/>
        <pt x="294" y="0" on="1"/>
        <pt x="0" y="0" on="1"/>
        <pt x="0" y="43" on="1"/>
        <pt x="80" y="43" on="1"/>
        <pt x="80" y="339" on="1"/>
        <pt x="214" y="339" on="1"/>
        <pt x="214" y="43" on="1"/>
      </contour>
      <contour>
        <pt x="80" y="427" on="1"/>
        <pt x="80" y="754" on="1"/>
        <pt x="214" y="754" on="1"/>
        <pt x="214" y="427" on="1"/>
      </contour>
    </TTGlyph>
    <TTGlyph name="bullet" xMin="0" yMin="0" xMax="438" yMax="456">
      <contour>
        <pt x="0" y="0" on="1"/>
        <pt x="0" y="43" on="1"/>
        <pt x="195" y="43" on="1"/>
        <pt x="195" y="180" on="1"/>
        <pt x="145" y="189" on="0"/>
        <pt x="80" y="266" on="0"/>
        <pt x="80" y="375" on="0"/>
        <pt x="161" y="456" on="0"/>
        <pt x="277" y="456" on="0"/>
        <pt x="358" y="375" on="0"/>
        <pt x="358" y="266" on="0"/>
        <pt x="292" y="188" on="0"/>
        <pt x="242" y="180" on="1"/>
        <pt x="242" y="43" on="1"/>
        <pt x="438" y="43" on="1"/>
        <pt x="438" y="0" on="1"/>
      </contour>
    </TTGlyph>
    <TTGlyph name="c" xMin="0" yMin="0" xMax="736" yMax="715">
      <contour>
        <pt x="736" y="43" on="1"/>
        <pt x="736" y="0" on="1"/>
        <pt x="0" y="0" on="1"/>
        <pt x="0" y="43" on="1"/>
        <pt x="215" y="43" on="1"/>
        <pt x="135" y="90" on="0"/>
        <pt x="44" y="251" on="0"/>
        <pt x="44" y="353" on="1"/>
        <pt x="44" y="507" on="0"/>
        <pt x="257" y="715" on="0"/>
        <pt x="411" y="715" on="1"/>
        <pt x="583" y="715" on="0"/>
        <pt x="699" y="584" on="1"/>
        <pt x="602" y="474" on="1"/>
        <pt x="528" y="566" on="0"/>
        <pt x="418" y="566" on="1"/>
        <pt x="330" y="566" on="0"/>
        <pt x="205" y="451" on="0"/>
        <pt x="205" y="256" on="0"/>
        <pt x="323" y="138" on="0"/>
        <pt x="407" y="138" on="1"/>
        <pt x="522" y="138" on="0"/>
        <pt x="595" y="229" on="1"/>
        <pt x="695" y="126" on="1"/>
        <pt x="651" y="75" on="0"/>
        <pt x="596" y="43" on="1"/>
      </contour>
    </TTGlyph>
    <TTGlyph name="caron" xMin="100" yMin="760" xMax="513" yMax="918">
      <contour>
        <pt x="100" y="918" on="1"/>
        <pt x="223" y="918" on="1"/>
        <pt x="306" y="837" on="1"/>
        <pt x="390" y="918" on="1"/>
        <pt x="513" y="918" on="1"/>
        <pt x="400" y="760" on="1"/>
        <pt x="213" y="760" on="1"/>
      </contour>
    </TTGlyph>
    <TTGlyph name="ccedilla" xMin="0" yMin="-236" xMax="736" yMax="715">
      <contour>
        <pt x="736" y="43" on="1"/>
        <pt x="736" y="0" on="1"/>
        <pt x="0" y="0" on="1"/>
        <pt x="0" y="43" on="1"/>
        <pt x="215" y="43" on="1"/>
        <pt x="135" y="90" on="0"/>
        <pt x="44" y="251" on="0"/>
        <pt x="44" y="353" on="1"/>
        <pt x="44" y="507" on="0"/>
        <pt x="257" y="715" on="0"/>
        <pt x="411" y="715" on="1"/>
        <pt x="583" y="715" on="0"/>
        <pt x="699" y="584" on="1"/>
        <pt x="602" y="474" on="1"/>
        <pt x="528" y="566" on="0"/>
        <pt x="418" y="566" on="1"/>
        <pt x="330" y="566" on="0"/>
        <pt x="205" y="451" on="0"/>
        <pt x="205" y="256" on="0"/>
        <pt x="323" y="138" on="0"/>
        <pt x="407" y="138" on="1"/>
        <pt x="522" y="138" on="0"/>
        <pt x="595" y="229" on="1"/>
        <pt x="695" y="126" on="1"/>
        <pt x="651" y="75" on="0"/>
        <pt x="596" y="43" on="1"/>
      </contour>
      <contour>
        <pt x="492" y="-129" on="1"/>
        <pt x="492" y="-172" on="0"/>
        <pt x="421" y="-236" on="0"/>
        <pt x="313" y="-236" on="0"/>
        <pt x="262" y="-204" on="1"/>
        <pt x="300" y="-118" on="1"/>
        <pt x="322" y="-137" on="0"/>
        <pt x="356" y="-137" on="0"/>
        <pt x="375" y="-119" on="0"/>
        <pt x="375" y="-92" on="0"/>
        <pt x="351" y="-71" on="0"/>
        <pt x="318" y="-71" on="0"/>
        <pt x="299" y="-80" on="1"/>
        <pt x="340" y="-2" on="1"/>
        <pt x="455" y="-2" on="1"/>
        <pt x="427" y="-53" on="1"/>
        <pt x="492" y="-75" on="0"/>
      </contour>
    </TTGlyph>
    <TTGlyph name="cedilla" xMin="14" yMin="-234" xMax="244" yMax="0">
      <contour>
        <pt x="244" y="-127" on="1"/>
        <pt x="244" y="-170" on="0"/>
        <pt x="173" y="-234" on="0"/>
        <pt x="65" y="-234" on="0"/>
        <pt x="14" y="-202" on="1"/>
        <pt x="52" y="-116" on="1"/>
        <pt x="74" y="-135" on="0"/>
        <pt x="108" y="-135" on="0"/>
        <pt x="127" y="-117" on="0"/>
        <pt x="127" y="-90" on="0"/>
        <pt x="103" y="-69" on="0"/>
        <pt x="70" y="-69" on="0"/>
        <pt x="51" y="-78" on="1"/>
        <pt x="92" y="0" on="1"/>
        <pt x="207" y="0" on="1"/>
        <pt x="179" y="-51" on="1"/>
        <pt x="244" y="-73" on="0"/>
      </contour>
    </TTGlyph>
    <TTGlyph name="cent" xMin="-11" yMin="-117" xMax="598" yMax="657">
      <contour>
        <pt x="280" y="-117" on="1"/>
        <pt x="280" y="0" on="1"/>
        <pt x="-11" y="0" on="1"/>
        <pt x="-11" y="43" on="1"/>
        <pt x="160" y="43" on="1"/>
        <pt x="46" y="122" on="0"/>
        <pt x="46" y="268" on="1"/>
        <pt x="46" y="378" on="0"/>
        <pt x="180" y="526" on="0"/>
        <pt x="280" y="542" on="1"/>
        <pt x="280" y="657" on="1"/>
        <pt x="376" y="657" on="1"/>
        <pt x="376" y="543" on="1"/>
        <pt x="478" y="528" on="0"/>
        <pt x="553" y="452" on="1"/>
        <pt x="475" y="350" on="1"/>
        <pt x="434" y="397" on="0"/>
        <pt x="376" y="410" on="1"/>
        <pt x="376" y="131" on="1"/>
        <pt x="402" y="139" on="0"/>
        <pt x="449" y="173" on="0"/>
        <pt x="460" y="186" on="1"/>
        <pt x="470" y="200" on="1"/>
        <pt x="559" y="100" on="1"/>
        <pt x="522" y="63" on="0"/>
        <pt x="490" y="43" on="1"/>
        <pt x="598" y="43" on="1"/>
        <pt x="598" y="0" on="1"/>
        <pt x="376" y="0" on="1"/>
        <pt x="376" y="-117" on="1"/>
      </contour>
      <contour>
        <pt x="241" y="389" on="0"/>
        <pt x="193" y="320" on="0"/>
        <pt x="193" y="219" on="0"/>
        <pt x="241" y="149" on="0"/>
        <pt x="280" y="135" on="1"/>
        <pt x="280" y="404" on="1"/>
      </contour>
    </TTGlyph>
    <TTGlyph name="circumflex" xMin="35" yMin="771" xMax="448" yMax="929">
      <contour>
        <pt x="158" y="771" on="1"/>
        <pt x="35" y="771" on="1"/>
        <pt x="148" y="929" on="1"/>
        <pt x="335" y="929" on="1"/>
        <pt x="448" y="771" on="1"/>
        <pt x="325" y="771" on="1"/>
        <pt x="241" y="852" on="1"/>
      </contour>
    </TTGlyph>
    <TTGlyph name="colon" xMin="0" yMin="0" xMax="310" yMax="451">
      <contour>
        <pt x="0" y="0" on="1"/>
        <pt x="0" y="43" on="1"/>
        <pt x="87" y="43" on="1"/>
        <pt x="67" y="66" on="0"/>
        <pt x="67" y="137" on="0"/>
        <pt x="118" y="188" on="0"/>
        <pt x="192" y="188" on="0"/>
        <pt x="243" y="137" on="0"/>
        <pt x="243" y="67" on="0"/>
        <pt x="222" y="43" on="1"/>
        <pt x="310" y="43" on="1"/>
        <pt x="310" y="0" on="1"/>
      </contour>
      <contour>
        <pt x="67" y="326" on="0"/>
        <pt x="67" y="400" on="0"/>
        <pt x="118" y="451" on="0"/>
        <pt x="192" y="451" on="0"/>
        <pt x="243" y="400" on="0"/>
        <pt x="243" y="326" on="0"/>
        <pt x="192" y="275" on="0"/>
        <pt x="118" y="275" on="0"/>
      </contour>
    </TTGlyph>
    <TTGlyph name="comma" xMin="0" yMin="-79" xMax="297" yMax="188">
      <contour>
        <pt x="0" y="0" on="1"/>
        <pt x="0" y="43" on="1"/>
        <pt x="80" y="43" on="1"/>
        <pt x="58" y="67" on="0"/>
        <pt x="58" y="137" on="0"/>
        <pt x="112" y="188" on="0"/>
        <pt x="188" y="188" on="0"/>
        <pt x="243" y="138" on="0"/>
        <pt x="243" y="72" on="0"/>
        <pt x="225" y="43" on="1"/>
        <pt x="297" y="43" on="1"/>
        <pt x="297" y="0" on="1"/>
        <pt x="200" y="0" on="1"/>
        <pt x="154" y="-79" on="1"/>
        <pt x="55" y="-79" on="1"/>
        <pt x="82" y="0" on="1"/>
      </contour>
    </TTGlyph>
    <TTGlyph name="copyright" xMin="0" yMin="0" xMax="824" yMax="711">
      <contour>
        <pt x="0" y="0" on="1"/>
        <pt x="0" y="43" on="1"/>
        <pt x="219" y="43" on="1"/>
        <pt x="141" y="92" on="0"/>
        <pt x="51" y="253" on="0"/>
        <pt x="51" y="348" on="1"/>
        <pt x="51" y="497" on="0"/>
        <pt x="262" y="711" on="0"/>
        <pt x="562" y="711" on="0"/>
        <pt x="773" y="499" on="0"/>
        <pt x="773" y="350" on="1"/>
        <pt x="773" y="255" on="0"/>
        <pt x="681" y="92" on="0"/>
        <pt x="603" y="43" on="1"/>
        <pt x="824" y="43" on="1"/>
        <pt x="824" y="0" on="1"/>
      </contour>
      <contour>
        <pt x="699" y="232" on="0"/>
        <pt x="699" y="468" on="0"/>
        <pt x="531" y="636" on="0"/>
        <pt x="294" y="636" on="0"/>
        <pt x="125" y="466" on="0"/>
        <pt x="125" y="230" on="0"/>
        <pt x="291" y="62" on="0"/>
        <pt x="531" y="62" on="0"/>
      </contour>
      <contour>
        <pt x="416" y="146" on="1"/>
        <pt x="332" y="146" on="0"/>
        <pt x="210" y="260" on="0"/>
        <pt x="210" y="444" on="0"/>
        <pt x="336" y="559" on="0"/>
        <pt x="520" y="559" on="0"/>
        <pt x="588" y="488" on="1"/>
        <pt x="528" y="413" on="1"/>
        <pt x="488" y="461" on="0"/>
        <pt x="427" y="461" on="1"/>
        <pt x="384" y="461" on="0"/>
        <pt x="323" y="404" on="0"/>
        <pt x="323" y="303" on="0"/>
        <pt x="386" y="244" on="0"/>
        <pt x="430" y="244" on="1"/>
        <pt x="495" y="244" on="0"/>
        <pt x="530" y="302" on="1"/>
        <pt x="592" y="227" on="1"/>
        <pt x="515" y="146" on="0"/>
      </contour>
    </TTGlyph>
    <TTGlyph name="currency" xMin="-43" yMin="0" xMax="807" yMax="680">
      <contour>
        <pt x="142" y="193" on="1"/>
        <pt x="96" y="260" on="0"/>
        <pt x="96" y="433" on="0"/>
        <pt x="140" y="500" on="1"/>
        <pt x="56" y="585" on="1"/>
        <pt x="150" y="680" on="1"/>
        <pt x="239" y="591" on="1"/>
        <pt x="304" y="626" on="0"/>
        <pt x="458" y="626" on="0"/>
        <pt x="522" y="590" on="1"/>
        <pt x="611" y="680" on="1"/>
        <pt x="705" y="585" on="1"/>
        <pt x="621" y="499" on="1"/>
        <pt x="665" y="431" on="0"/>
        <pt x="665" y="262" on="0"/>
        <pt x="618" y="193" on="1"/>
        <pt x="705" y="105" on="1"/>
        <pt x="644" y="43" on="1"/>
        <pt x="807" y="43" on="1"/>
        <pt x="807" y="0" on="1"/>
        <pt x="-43" y="0" on="1"/>
        <pt x="-43" y="43" on="1"/>
        <pt x="116" y="43" on="1"/>
        <pt x="56" y="105" on="1"/>
      </contour>
      <contour>
        <pt x="324" y="204" on="0"/>
        <pt x="436" y="204" on="0"/>
        <pt x="508" y="285" on="0"/>
        <pt x="508" y="411" on="0"/>
        <pt x="436" y="491" on="0"/>
        <pt x="324" y="491" on="0"/>
        <pt x="252" y="411" on="0"/>
        <pt x="252" y="285" on="0"/>
      </contour>
      <contour>
        <pt x="519" y="104" on="1"/>
        <pt x="453" y="70" on="0"/>
        <pt x="304" y="70" on="0"/>
        <pt x="242" y="104" on="1"/>
        <pt x="181" y="43" on="1"/>
        <pt x="579" y="43" on="1"/>
      </contour>
    </TTGlyph>
    <TTGlyph name="d" xMin="-11" yMin="0" xMax="782" yMax="699">
      <contour>
        <pt x="782" y="43" on="1"/>
        <pt x="782" y="0" on="1"/>
        <pt x="-11" y="0" on="1"/>
        <pt x="-11" y="43" on="1"/>
        <pt x="86" y="43" on="1"/>
        <pt x="86" y="699" on="1"/>
        <pt x="333" y="699" on="1"/>
        <pt x="520" y="699" on="0"/>
        <pt x="720" y="516" on="0"/>
        <pt x="720" y="350" on="1"/>
        <pt x="720" y="126" on="0"/>
        <pt x="546" y="43" on="1"/>
      </contour>
      <contour>
        <pt x="448" y="138" on="0"/>
        <pt x="563" y="246" on="0"/>
        <pt x="563" y="452" on="0"/>
        <pt x="448" y="563" on="0"/>
        <pt x="329" y="563" on="1"/>
        <pt x="242" y="563" on="1"/>
        <pt x="242" y="138" on="1"/>
        <pt x="341" y="138" on="1"/>
      </contour>
    </TTGlyph>
    <TTGlyph name="dagger" xMin="0" yMin="0" xMax="538" yMax="699">
      <contour>
        <pt x="0" y="0" on="1"/>
        <pt x="0" y="43" on="1"/>
        <pt x="193" y="43" on="1"/>
        <pt x="193" y="373" on="1"/>
        <pt x="35" y="373" on="1"/>
        <pt x="35" y="503" on="1"/>
        <pt x="193" y="503" on="1"/>
        <pt x="193" y="699" on="1"/>
        <pt x="338" y="699" on="1"/>
        <pt x="338" y="503" on="1"/>
        <pt x="503" y="503" on="1"/>
        <pt x="503" y="373" on="1"/>
        <pt x="338" y="373" on="1"/>
        <pt x="338" y="43" on="1"/>
        <pt x="538" y="43" on="1"/>
        <pt x="538" y="0" on="1"/>
      </contour>
    </TTGlyph>
    <TTGlyph name="daggerdbl" xMin="0" yMin="0" xMax="534" yMax="699">
      <contour>
        <pt x="0" y="0" on="1"/>
        <pt x="0" y="43" on="1"/>
        <pt x="193" y="43" on="1"/>
        <pt x="193" y="179" on="1"/>
        <pt x="91" y="179" on="1"/>
        <pt x="91" y="290" on="1"/>
        <pt x="193" y="290" on="1"/>
        <pt x="193" y="373" on="1"/>
        <pt x="38" y="373" on="1"/>
        <pt x="38" y="503" on="1"/>
        <pt x="193" y="503" on="1"/>
        <pt x="193" y="699" on="1"/>
        <pt x="339" y="699" on="1"/>
        <pt x="339" y="503" on="1"/>
        <pt x="497" y="503" on="1"/>
        <pt x="497" y="373" on="1"/>
        <pt x="339" y="373" on="1"/>
        <pt x="339" y="290" on="1"/>
        <pt x="438" y="290" on="1"/>
        <pt x="438" y="179" on="1"/>
        <pt x="339" y="179" on="1"/>
        <pt x="339" y="43" on="1"/>
        <pt x="534" y="43" on="1"/>
        <pt x="534" y="0" on="1"/>
      </contour>
    </TTGlyph>
    <TTGlyph name="degree" xMin="0" yMin="0" xMax="430" yMax="714">
      <contour>
        <pt x="145" y="714" on="0"/>
        <pt x="283" y="714" on="0"/>
        <pt x="381" y="618" on="0"/>
        <pt x="381" y="483" on="0"/>
        <pt x="283" y="388" on="0"/>
        <pt x="145" y="388" on="0"/>
        <pt x="47" y="483" on="0"/>
        <pt x="47" y="618" on="0"/>
      </contour>
      <contour>
        <pt x="142" y="517" on="0"/>
        <pt x="184" y="470" on="0"/>
        <pt x="244" y="470" on="0"/>
        <pt x="285" y="516" on="0"/>
        <pt x="285" y="584" on="0"/>
        <pt x="244" y="630" on="0"/>
        <pt x="184" y="630" on="0"/>
        <pt x="142" y="584" on="0"/>
      </contour>
      <contour>
        <pt x="430" y="43" on="1"/>
        <pt x="430" y="0" on="1"/>
        <pt x="0" y="0" on="1"/>
        <pt x="0" y="43" on="1"/>
      </contour>
    </TTGlyph>
    <TTGlyph name="dieresis" xMin="95" yMin="617" xMax="436" yMax="765">
      <contour>
        <pt x="95" y="660" on="0"/>
        <pt x="95" y="722" on="0"/>
        <pt x="138" y="765" on="0"/>
        <pt x="200" y="765" on="0"/>
        <pt x="243" y="722" on="0"/>
        <pt x="243" y="660" on="0"/>
        <pt x="200" y="617" on="0"/>
        <pt x="138" y="617" on="0"/>
      </contour>
      <contour>
        <pt x="288" y="660" on="0"/>
        <pt x="288" y="722" on="0"/>
        <pt x="331" y="765" on="0"/>
        <pt x="393" y="765" on="0"/>
        <pt x="436" y="722" on="0"/>
        <pt x="436" y="660" on="0"/>
        <pt x="393" y="617" on="0"/>
        <pt x="331" y="617" on="0"/>
      </contour>
    </TTGlyph>
    <TTGlyph name="divide" xMin="0" yMin="0" xMax="582" yMax="627">
      <contour>
        <pt x="0" y="0" on="1"/>
        <pt x="0" y="43" on="1"/>
        <pt x="260" y="43" on="1"/>
        <pt x="260" y="77" on="1"/>
        <pt x="234" y="87" on="0"/>
        <pt x="203" y="132" on="0"/>
        <pt x="203" y="188" on="0"/>
        <pt x="234" y="233" on="0"/>
        <pt x="260" y="242" on="1"/>
        <pt x="260" y="288" on="1"/>
        <pt x="48" y="288" on="1"/>
        <pt x="48" y="411" on="1"/>
        <pt x="260" y="411" on="1"/>
        <pt x="260" y="456" on="1"/>
        <pt x="234" y="466" on="0"/>
        <pt x="203" y="511" on="0"/>
        <pt x="203" y="576" on="0"/>
        <pt x="254" y="627" on="0"/>
        <pt x="328" y="627" on="0"/>
        <pt x="379" y="576" on="0"/>
        <pt x="379" y="512" on="0"/>
        <pt x="348" y="467" on="0"/>
        <pt x="324" y="457" on="1"/>
        <pt x="324" y="411" on="1"/>
        <pt x="534" y="411" on="1"/>
        <pt x="534" y="288" on="1"/>
        <pt x="324" y="288" on="1"/>
        <pt x="324" y="241" on="1"/>
        <pt x="348" y="231" on="0"/>
        <pt x="379" y="187" on="0"/>
        <pt x="379" y="133" on="0"/>
        <pt x="348" y="88" on="0"/>
        <pt x="324" y="78" on="1"/>
        <pt x="324" y="43" on="1"/>
        <pt x="582" y="43" on="1"/>
        <pt x="582" y="0" on="1"/>
      </contour>
    </TTGlyph>
    <TTGlyph name="dollar" xMin="0" yMin="-69" xMax="635" yMax="769">
      <contour>
        <pt x="635" y="43" on="1"/>
        <pt x="635" y="0" on="1"/>
        <pt x="376" y="0" on="1"/>
        <pt x="376" y="-69" on="1"/>
        <pt x="270" y="-69" on="1"/>
        <pt x="270" y="0" on="1"/>
        <pt x="0" y="0" on="1"/>
        <pt x="0" y="43" on="1"/>
        <pt x="148" y="43" on="1"/>
        <pt x="86" y="73" on="0"/>
        <pt x="36" y="119" on="1"/>
        <pt x="129" y="232" on="1"/>
        <pt x="207" y="164" on="0"/>
        <pt x="270" y="145" on="1"/>
        <pt x="270" y="294" on="1"/>
        <pt x="165" y="321" on="0"/>
        <pt x="67" y="412" on="0"/>
        <pt x="67" y="583" on="0"/>
        <pt x="179" y="694" on="0"/>
        <pt x="270" y="705" on="1"/>
        <pt x="270" y="769" on="1"/>
        <pt x="376" y="769" on="1"/>
        <pt x="376" y="703" on="1"/>
        <pt x="476" y="689" on="0"/>
        <pt x="575" y="620" on="1"/>
        <pt x="493" y="502" on="1"/>
        <pt x="430" y="547" on="0"/>
        <pt x="376" y="562" on="1"/>
        <pt x="376" y="418" on="1"/>
        <pt x="484" y="390" on="0"/>
        <pt x="587" y="296" on="0"/>
        <pt x="587" y="213" on="1"/>
        <pt x="587" y="100" on="0"/>
        <pt x="498" y="43" on="1"/>
      </contour>
      <contour>
        <pt x="427" y="202" on="1"/>
        <pt x="427" y="223" on="0"/>
        <pt x="405" y="251" on="0"/>
        <pt x="376" y="263" on="1"/>
        <pt x="376" y="140" on="1"/>
        <pt x="427" y="156" on="0"/>
      </contour>
      <contour>
        <pt x="270" y="566" on="1"/>
        <pt x="227" y="551" on="0"/>
        <pt x="227" y="471" on="0"/>
        <pt x="270" y="450" on="1"/>
      </contour>
    </TTGlyph>
    <TTGlyph name="dotaccent" xMin="55" yMin="581" xMax="257" yMax="783">
      <contour>
        <pt x="55" y="640" on="0"/>
        <pt x="55" y="724" on="0"/>
        <pt x="114" y="783" on="0"/>
        <pt x="198" y="783" on="0"/>
        <pt x="257" y="724" on="0"/>
        <pt x="257" y="640" on="0"/>
        <pt x="198" y="581" on="0"/>
        <pt x="114" y="581" on="0"/>
      </contour>
    </TTGlyph>
    <TTGlyph name="e" xMin="-11" yMin="0" xMax="698" yMax="699">
      <contour>
        <pt x="86" y="43" on="1"/>
        <pt x="86" y="699" on="1"/>
        <pt x="590" y="699" on="1"/>
        <pt x="590" y="560" on="1"/>
        <pt x="242" y="560" on="1"/>
        <pt x="242" y="416" on="1"/>
        <pt x="555" y="416" on="1"/>
        <pt x="555" y="283" on="1"/>
        <pt x="242" y="283" on="1"/>
        <pt x="242" y="138" on="1"/>
        <pt x="601" y="138" on="1"/>
        <pt x="601" y="43" on="1"/>
        <pt x="698" y="43" on="1"/>
        <pt x="698" y="0" on="1"/>
        <pt x="-11" y="0" on="1"/>
        <pt x="-11" y="43" on="1"/>
      </contour>
    </TTGlyph>
    <TTGlyph name="eacute" xMin="-11" yMin="0" xMax="698" yMax="948">
      <contour>
        <pt x="86" y="43" on="1"/>
        <pt x="86" y="699" on="1"/>
        <pt x="590" y="699" on="1"/>
        <pt x="590" y="560" on="1"/>
        <pt x="242" y="560" on="1"/>
        <pt x="242" y="416" on="1"/>
        <pt x="555" y="416" on="1"/>
        <pt x="555" y="283" on="1"/>
        <pt x="242" y="283" on="1"/>
        <pt x="242" y="138" on="1"/>
        <pt x="601" y="138" on="1"/>
        <pt x="601" y="43" on="1"/>
        <pt x="698" y="43" on="1"/>
        <pt x="698" y="0" on="1"/>
        <pt x="-11" y="0" on="1"/>
        <pt x="-11" y="43" on="1"/>
      </contour>
      <contour>
        <pt x="395" y="771" on="1"/>
        <pt x="252" y="771" on="1"/>
        <pt x="379" y="948" on="1"/>
        <pt x="534" y="883" on="1"/>
      </contour>
    </TTGlyph>
    <TTGlyph name="ecircumflex" xMin="-11" yMin="0" xMax="698" yMax="927">
      <contour>
        <pt x="86" y="43" on="1"/>
        <pt x="86" y="699" on="1"/>
        <pt x="590" y="699" on="1"/>
        <pt x="590" y="560" on="1"/>
        <pt x="242" y="560" on="1"/>
        <pt x="242" y="416" on="1"/>
        <pt x="555" y="416" on="1"/>
        <pt x="555" y="283" on="1"/>
        <pt x="242" y="283" on="1"/>
        <pt x="242" y="138" on="1"/>
        <pt x="601" y="138" on="1"/>
        <pt x="601" y="43" on="1"/>
        <pt x="698" y="43" on="1"/>
        <pt x="698" y="0" on="1"/>
        <pt x="-11" y="0" on="1"/>
        <pt x="-11" y="43" on="1"/>
      </contour>
      <contour>
        <pt x="239" y="769" on="1"/>
        <pt x="116" y="769" on="1"/>
        <pt x="229" y="927" on="1"/>
        <pt x="416" y="927" on="1"/>
        <pt x="529" y="769" on="1"/>
        <pt x="406" y="769" on="1"/>
        <pt x="322" y="850" on="1"/>
      </contour>
    </TTGlyph>
    <TTGlyph name="edieresis" xMin="-11" yMin="0" xMax="698" yMax="921">
      <contour>
        <pt x="86" y="43" on="1"/>
        <pt x="86" y="699" on="1"/>
        <pt x="590" y="699" on="1"/>
        <pt x="590" y="560" on="1"/>
        <pt x="242" y="560" on="1"/>
        <pt x="242" y="416" on="1"/>
        <pt x="555" y="416" on="1"/>
        <pt x="555" y="283" on="1"/>
        <pt x="242" y="283" on="1"/>
        <pt x="242" y="138" on="1"/>
        <pt x="601" y="138" on="1"/>
        <pt x="601" y="43" on="1"/>
        <pt x="698" y="43" on="1"/>
        <pt x="698" y="0" on="1"/>
        <pt x="-11" y="0" on="1"/>
        <pt x="-11" y="43" on="1"/>
      </contour>
      <contour>
        <pt x="170" y="816" on="0"/>
        <pt x="170" y="878" on="0"/>
        <pt x="213" y="921" on="0"/>
        <pt x="275" y="921" on="0"/>
        <pt x="318" y="878" on="0"/>
        <pt x="318" y="816" on="0"/>
        <pt x="275" y="773" on="0"/>
        <pt x="213" y="773" on="0"/>
      </contour>
      <contour>
        <pt x="363" y="816" on="0"/>
        <pt x="363" y="878" on="0"/>
        <pt x="406" y="921" on="0"/>
        <pt x="468" y="921" on="0"/>
        <pt x="511" y="878" on="0"/>
        <pt x="511" y="816" on="0"/>
        <pt x="468" y="773" on="0"/>
        <pt x="406" y="773" on="0"/>
      </contour>
    </TTGlyph>
    <TTGlyph name="egrave" xMin="-11" yMin="0" xMax="698" yMax="947">
      <contour>
        <pt x="86" y="43" on="1"/>
        <pt x="86" y="699" on="1"/>
        <pt x="590" y="699" on="1"/>
        <pt x="590" y="560" on="1"/>
        <pt x="242" y="560" on="1"/>
        <pt x="242" y="416" on="1"/>
        <pt x="555" y="416" on="1"/>
        <pt x="555" y="283" on="1"/>
        <pt x="242" y="283" on="1"/>
        <pt x="242" y="138" on="1"/>
        <pt x="601" y="138" on="1"/>
        <pt x="601" y="43" on="1"/>
        <pt x="698" y="43" on="1"/>
        <pt x="698" y="0" on="1"/>
        <pt x="-11" y="0" on="1"/>
        <pt x="-11" y="43" on="1"/>
      </contour>
      <contour>
        <pt x="404" y="769" on="1"/>
        <pt x="261" y="769" on="1"/>
        <pt x="122" y="881" on="1"/>
        <pt x="276" y="947" on="1"/>
      </contour>
    </TTGlyph>
    <TTGlyph name="eight" xMin="0" yMin="0" xMax="642" yMax="715">
      <contour>
        <pt x="642" y="43" on="1"/>
        <pt x="642" y="0" on="1"/>
        <pt x="0" y="0" on="1"/>
        <pt x="0" y="43" on="1"/>
        <pt x="143" y="43" on="1"/>
        <pt x="54" y="105" on="0"/>
        <pt x="54" y="319" on="0"/>
        <pt x="141" y="386" on="1"/>
        <pt x="78" y="445" on="0"/>
        <pt x="78" y="605" on="0"/>
        <pt x="217" y="715" on="0"/>
        <pt x="425" y="715" on="0"/>
        <pt x="563" y="605" on="0"/>
        <pt x="563" y="444" on="0"/>
        <pt x="501" y="386" on="1"/>
        <pt x="588" y="319" on="0"/>
        <pt x="588" y="105" on="0"/>
        <pt x="499" y="43" on="1"/>
      </contour>
      <contour>
        <pt x="280" y="122" on="0"/>
        <pt x="362" y="122" on="0"/>
        <pt x="432" y="169" on="0"/>
        <pt x="432" y="259" on="0"/>
        <pt x="364" y="307" on="0"/>
        <pt x="278" y="307" on="0"/>
        <pt x="210" y="259" on="0"/>
        <pt x="210" y="169" on="0"/>
      </contour>
      <contour>
        <pt x="283" y="427" on="0"/>
        <pt x="359" y="427" on="0"/>
        <pt x="416" y="475" on="0"/>
        <pt x="416" y="546" on="0"/>
        <pt x="360" y="594" on="0"/>
        <pt x="282" y="594" on="0"/>
        <pt x="226" y="546" on="0"/>
        <pt x="226" y="475" on="0"/>
      </contour>
    </TTGlyph>
    <TTGlyph name="ellipsis" xMin="0" yMin="0" xMax="720" yMax="188">
      <contour>
        <pt x="291" y="43" on="1"/>
        <pt x="271" y="66" on="0"/>
        <pt x="271" y="137" on="0"/>
        <pt x="322" y="188" on="0"/>
        <pt x="396" y="188" on="0"/>
        <pt x="447" y="137" on="0"/>
        <pt x="447" y="67" on="0"/>
        <pt x="426" y="43" on="1"/>
        <pt x="507" y="43" on="1"/>
        <pt x="487" y="66" on="0"/>
        <pt x="487" y="137" on="0"/>
        <pt x="538" y="188" on="0"/>
        <pt x="612" y="188" on="0"/>
        <pt x="663" y="137" on="0"/>
        <pt x="663" y="67" on="0"/>
        <pt x="642" y="43" on="1"/>
        <pt x="720" y="43" on="1"/>
        <pt x="720" y="0" on="1"/>
        <pt x="0" y="0" on="1"/>
        <pt x="0" y="43" on="1"/>
        <pt x="76" y="43" on="1"/>
        <pt x="56" y="66" on="0"/>
        <pt x="56" y="137" on="0"/>
        <pt x="107" y="188" on="0"/>
        <pt x="181" y="188" on="0"/>
        <pt x="232" y="137" on="0"/>
        <pt x="232" y="67" on="0"/>
        <pt x="211" y="43" on="1"/>
      </contour>
    </TTGlyph>
    <TTGlyph name="emdash" xMin="0" yMin="0" xMax="697" yMax="312">
      <contour>
        <pt x="64" y="216" on="1"/>
        <pt x="64" y="312" on="1"/>
        <pt x="633" y="312" on="1"/>
        <pt x="633" y="216" on="1"/>
        <pt x="374" y="216" on="1"/>
        <pt x="374" y="43" on="1"/>
        <pt x="697" y="43" on="1"/>
        <pt x="697" y="0" on="1"/>
        <pt x="0" y="0" on="1"/>
        <pt x="0" y="43" on="1"/>
        <pt x="327" y="43" on="1"/>
        <pt x="327" y="216" on="1"/>
      </contour>
    </TTGlyph>
    <TTGlyph name="endash" xMin="0" yMin="0" xMax="543" yMax="312">
      <contour>
        <pt x="74" y="216" on="1"/>
        <pt x="74" y="312" on="1"/>
        <pt x="469" y="312" on="1"/>
        <pt x="469" y="216" on="1"/>
        <pt x="295" y="216" on="1"/>
        <pt x="295" y="43" on="1"/>
        <pt x="543" y="43" on="1"/>
        <pt x="543" y="0" on="1"/>
        <pt x="0" y="0" on="1"/>
        <pt x="0" y="43" on="1"/>
        <pt x="248" y="43" on="1"/>
        <pt x="248" y="216" on="1"/>
      </contour>
    </TTGlyph>
    <TTGlyph name="equal" xMin="0" yMin="0" xMax="587" yMax="538">
      <contour>
        <pt x="50" y="289" on="1"/>
        <pt x="273" y="289" on="1"/>
        <pt x="273" y="415" on="1"/>
        <pt x="50" y="415" on="1"/>
        <pt x="50" y="538" on="1"/>
        <pt x="537" y="538" on="1"/>
        <pt x="537" y="415" on="1"/>
        <pt x="320" y="415" on="1"/>
        <pt x="320" y="289" on="1"/>
        <pt x="537" y="289" on="1"/>
        <pt x="537" y="166" on="1"/>
        <pt x="320" y="166" on="1"/>
        <pt x="320" y="43" on="1"/>
        <pt x="587" y="43" on="1"/>
        <pt x="587" y="0" on="1"/>
        <pt x="0" y="0" on="1"/>
        <pt x="0" y="43" on="1"/>
        <pt x="273" y="43" on="1"/>
        <pt x="273" y="166" on="1"/>
        <pt x="50" y="166" on="1"/>
      </contour>
    </TTGlyph>
    <TTGlyph name="eth" xMin="3" yMin="0" xMax="796" yMax="699">
      <contour>
        <pt x="26" y="280" on="1"/>
        <pt x="26" y="413" on="1"/>
        <pt x="100" y="413" on="1"/>
        <pt x="100" y="699" on="1"/>
        <pt x="347" y="699" on="1"/>
        <pt x="534" y="699" on="0"/>
        <pt x="734" y="516" on="0"/>
        <pt x="734" y="350" on="1"/>
        <pt x="734" y="126" on="0"/>
        <pt x="560" y="43" on="1"/>
        <pt x="796" y="43" on="1"/>
        <pt x="796" y="0" on="1"/>
        <pt x="3" y="0" on="1"/>
        <pt x="3" y="43" on="1"/>
        <pt x="100" y="43" on="1"/>
        <pt x="100" y="280" on="1"/>
      </contour>
      <contour>
        <pt x="462" y="138" on="0"/>
        <pt x="577" y="246" on="0"/>
        <pt x="577" y="452" on="0"/>
        <pt x="462" y="563" on="0"/>
        <pt x="343" y="563" on="1"/>
        <pt x="256" y="563" on="1"/>
        <pt x="256" y="413" on="1"/>
        <pt x="490" y="413" on="1"/>
        <pt x="490" y="280" on="1"/>
        <pt x="256" y="280" on="1"/>
        <pt x="256" y="138" on="1"/>
        <pt x="355" y="138" on="1"/>
      </contour>
    </TTGlyph>
    <TTGlyph name="exclam" xMin="0" yMin="0" xMax="315" yMax="699">
      <contour>
        <pt x="69" y="699" on="1"/>
        <pt x="246" y="699" on="1"/>
        <pt x="246" y="575" on="1"/>
        <pt x="216" y="245" on="1"/>
        <pt x="98" y="245" on="1"/>
        <pt x="69" y="575" on="1"/>
      </contour>
      <contour>
        <pt x="315" y="43" on="1"/>
        <pt x="315" y="0" on="1"/>
        <pt x="0" y="0" on="1"/>
        <pt x="0" y="43" on="1"/>
        <pt x="99" y="43" on="1"/>
        <pt x="69" y="68" on="0"/>
        <pt x="69" y="147" on="0"/>
        <pt x="120" y="198" on="0"/>
        <pt x="194" y="198" on="0"/>
        <pt x="245" y="147" on="0"/>
        <pt x="245" y="69" on="0"/>
        <pt x="214" y="43" on="1"/>
      </contour>
    </TTGlyph>
    <TTGlyph name="exclamdown" xMin="0" yMin="0" xMax="318" yMax="715">
      <contour>
        <pt x="318" y="43" on="1"/>
        <pt x="318" y="0" on="1"/>
        <pt x="0" y="0" on="1"/>
        <pt x="0" y="43" on="1"/>
        <pt x="70" y="43" on="1"/>
        <pt x="70" y="132" on="1"/>
        <pt x="100" y="492" on="1"/>
        <pt x="218" y="492" on="1"/>
        <pt x="247" y="132" on="1"/>
        <pt x="247" y="43" on="1"/>
      </contour>
      <contour>
        <pt x="247" y="664" on="0"/>
        <pt x="247" y="590" on="0"/>
        <pt x="196" y="539" on="0"/>
        <pt x="122" y="539" on="0"/>
        <pt x="71" y="590" on="0"/>
        <pt x="71" y="664" on="0"/>
        <pt x="122" y="715" on="0"/>
        <pt x="196" y="715" on="0"/>
      </contour>
    </TTGlyph>
    <TTGlyph name="f" xMin="0" yMin="0" xMax="612" yMax="699">
      <contour>
        <pt x="612" y="43" on="1"/>
        <pt x="612" y="0" on="1"/>
        <pt x="0" y="0" on="1"/>
        <pt x="0" y="43" on="1"/>
        <pt x="86" y="43" on="1"/>
        <pt x="86" y="699" on="1"/>
        <pt x="566" y="699" on="1"/>
        <pt x="566" y="562" on="1"/>
        <pt x="242" y="562" on="1"/>
        <pt x="242" y="411" on="1"/>
        <pt x="550" y="411" on="1"/>
        <pt x="550" y="274" on="1"/>
        <pt x="242" y="274" on="1"/>
        <pt x="242" y="43" on="1"/>
      </contour>
    </TTGlyph>
    <TTGlyph name="five" xMin="0" yMin="0" xMax="596" yMax="699">
      <contour>
        <pt x="596" y="43" on="1"/>
        <pt x="596" y="0" on="1"/>
        <pt x="0" y="0" on="1"/>
        <pt x="0" y="43" on="1"/>
        <pt x="111" y="43" on="1"/>
        <pt x="74" y="68" on="0"/>
        <pt x="49" y="97" on="1"/>
        <pt x="131" y="211" on="1"/>
        <pt x="140" y="202" on="0"/>
        <pt x="170" y="176" on="0"/>
        <pt x="250" y="133" on="0"/>
        <pt x="330" y="133" on="0"/>
        <pt x="392" y="181" on="0"/>
        <pt x="392" y="275" on="0"/>
        <pt x="325" y="326" on="0"/>
        <pt x="219" y="326" on="0"/>
        <pt x="149" y="288" on="1"/>
        <pt x="84" y="358" on="1"/>
        <pt x="84" y="699" on="1"/>
        <pt x="506" y="699" on="1"/>
        <pt x="506" y="564" on="1"/>
        <pt x="230" y="564" on="1"/>
        <pt x="230" y="447" on="1"/>
        <pt x="261" y="456" on="0"/>
        <pt x="301" y="456" on="1"/>
        <pt x="402" y="456" on="0"/>
        <pt x="548" y="334" on="0"/>
        <pt x="548" y="230" on="1"/>
        <pt x="548" y="172" on="0"/>
        <pt x="497" y="75" on="0"/>
        <pt x="452" y="43" on="1"/>
      </contour>
    </TTGlyph>
    <TTGlyph name="four" xMin="0" yMin="0" xMax="588" yMax="699">
      <contour>
        <pt x="588" y="43" on="1"/>
        <pt x="588" y="0" on="1"/>
        <pt x="0" y="0" on="1"/>
        <pt x="0" y="43" on="1"/>
        <pt x="317" y="43" on="1"/>
        <pt x="317" y="167" on="1"/>
        <pt x="36" y="167" on="1"/>
        <pt x="36" y="286" on="1"/>
        <pt x="285" y="699" on="1"/>
        <pt x="455" y="699" on="1"/>
        <pt x="218" y="302" on="1"/>
        <pt x="317" y="302" on="1"/>
        <pt x="317" y="424" on="1"/>
        <pt x="467" y="424" on="1"/>
        <pt x="467" y="302" on="1"/>
        <pt x="546" y="302" on="1"/>
        <pt x="546" y="167" on="1"/>
        <pt x="467" y="167" on="1"/>
        <pt x="467" y="43" on="1"/>
      </contour>
    </TTGlyph>
    <TTGlyph name="g" xMin="0" yMin="0" xMax="750" yMax="715">
      <contour>
        <pt x="750" y="43" on="1"/>
        <pt x="750" y="0" on="1"/>
        <pt x="0" y="0" on="1"/>
        <pt x="0" y="43" on="1"/>
        <pt x="217" y="43" on="1"/>
        <pt x="137" y="90" on="0"/>
        <pt x="46" y="251" on="0"/>
        <pt x="46" y="353" on="1"/>
        <pt x="46" y="507" on="0"/>
        <pt x="259" y="715" on="0"/>
        <pt x="560" y="715" on="0"/>
        <pt x="671" y="616" on="1"/>
        <pt x="590" y="499" on="1"/>
        <pt x="543" y="540" on="0"/>
        <pt x="464" y="571" on="0"/>
        <pt x="418" y="571" on="1"/>
        <pt x="329" y="571" on="0"/>
        <pt x="207" y="450" on="0"/>
        <pt x="207" y="252" on="0"/>
        <pt x="324" y="133" on="0"/>
        <pt x="486" y="133" on="0"/>
        <pt x="540" y="164" on="1"/>
        <pt x="540" y="356" on="1"/>
        <pt x="697" y="356" on="1"/>
        <pt x="697" y="108" on="1"/>
        <pt x="663" y="70" on="0"/>
        <pt x="616" y="43" on="1"/>
      </contour>
    </TTGlyph>
    <TTGlyph name="germandbls" xMin="-38" yMin="0" xMax="647" yMax="757">
      <contour>
        <pt x="-38" y="0" on="1"/>
        <pt x="-38" y="43" on="1"/>
        <pt x="70" y="43" on="1"/>
        <pt x="70" y="450" on="1"/>
        <pt x="70" y="548" on="0"/>
        <pt x="90" y="604" on="1"/>
        <pt x="98" y="629" on="0"/>
        <pt x="136" y="691" on="0"/>
        <pt x="162" y="710" on="1"/>
        <pt x="222" y="757" on="0"/>
        <pt x="321" y="757" on="1"/>
        <pt x="378" y="757" on="0"/>
        <pt x="467" y="728" on="0"/>
        <pt x="519" y="685" on="0"/>
        <pt x="536" y="656" on="1"/>
        <pt x="564" y="605" on="0"/>
        <pt x="564" y="547" on="1"/>
        <pt x="564" y="454" on="0"/>
        <pt x="487" y="391" on="1"/>
        <pt x="546" y="372" on="0"/>
        <pt x="605" y="273" on="0"/>
        <pt x="605" y="212" on="1"/>
        <pt x="605" y="99" on="0"/>
        <pt x="517" y="43" on="1"/>
        <pt x="647" y="43" on="1"/>
        <pt x="647" y="0" on="1"/>
      </contour>
      <contour>
        <pt x="346" y="435" on="0"/>
        <pt x="411" y="496" on="0"/>
        <pt x="411" y="571" on="0"/>
        <pt x="373" y="624" on="0"/>
        <pt x="332" y="624" on="1"/>
        <pt x="274" y="624" on="0"/>
        <pt x="226" y="542" on="0"/>
        <pt x="226" y="463" on="1"/>
        <pt x="226" y="43" on="1"/>
        <pt x="282" y="43" on="1"/>
        <pt x="282" y="126" on="1"/>
        <pt x="326" y="126" on="1"/>
        <pt x="449" y="126" on="0"/>
        <pt x="449" y="212" on="1"/>
        <pt x="449" y="307" on="0"/>
        <pt x="334" y="307" on="1"/>
        <pt x="313" y="307" on="0"/>
        <pt x="279" y="304" on="1"/>
        <pt x="279" y="425" on="1"/>
      </contour>
    </TTGlyph>
    <TTGlyph name="grave" xMin="50" yMin="769" xMax="332" yMax="947">
      <contour>
        <pt x="332" y="769" on="1"/>
        <pt x="189" y="769" on="1"/>
        <pt x="50" y="881" on="1"/>
        <pt x="204" y="947" on="1"/>
      </contour>
    </TTGlyph>
    <TTGlyph name="greater" xMin="0" yMin="0" xMax="601" yMax="692">
      <contour>
        <pt x="601" y="43" on="1"/>
        <pt x="601" y="0" on="1"/>
        <pt x="0" y="0" on="1"/>
        <pt x="0" y="43" on="1"/>
        <pt x="249" y="43" on="1"/>
        <pt x="249" y="179" on="1"/>
        <pt x="74" y="97" on="1"/>
        <pt x="74" y="245" on="1"/>
        <pt x="395" y="397" on="1"/>
        <pt x="74" y="545" on="1"/>
        <pt x="74" y="692" on="1"/>
        <pt x="560" y="463" on="1"/>
        <pt x="560" y="326" on="1"/>
        <pt x="296" y="201" on="1"/>
        <pt x="296" y="43" on="1"/>
      </contour>
    </TTGlyph>
    <TTGlyph name="greaterequal" xMin="0" yMin="-78" xMax="621" yMax="692">
      <contour>
        <pt x="621" y="43" on="1"/>
        <pt x="621" y="0" on="1"/>
        <pt x="559" y="0" on="1"/>
        <pt x="559" y="-78" on="1"/>
        <pt x="72" y="-78" on="1"/>
        <pt x="72" y="0" on="1"/>
        <pt x="0" y="0" on="1"/>
        <pt x="0" y="43" on="1"/>
        <pt x="238" y="43" on="1"/>
        <pt x="238" y="174" on="1"/>
        <pt x="73" y="97" on="1"/>
        <pt x="73" y="245" on="1"/>
        <pt x="394" y="397" on="1"/>
        <pt x="73" y="545" on="1"/>
        <pt x="73" y="692" on="1"/>
        <pt x="559" y="463" on="1"/>
        <pt x="559" y="326" on="1"/>
        <pt x="285" y="196" on="1"/>
        <pt x="285" y="43" on="1"/>
      </contour>
    </TTGlyph>
    <TTGlyph name="guillemotleft" xMin="-30" yMin="0" xMax="604" yMax="407">
      <contour>
        <pt x="-30" y="0" on="1"/>
        <pt x="-30" y="43" on="1"/>
        <pt x="136" y="43" on="1"/>
        <pt x="18" y="219" on="1"/>
        <pt x="140" y="407" on="1"/>
        <pt x="291" y="407" on="1"/>
        <pt x="173" y="219" on="1"/>
        <pt x="287" y="43" on="1"/>
        <pt x="361" y="43" on="1"/>
        <pt x="243" y="219" on="1"/>
        <pt x="365" y="407" on="1"/>
        <pt x="516" y="407" on="1"/>
        <pt x="398" y="219" on="1"/>
        <pt x="512" y="43" on="1"/>
        <pt x="604" y="43" on="1"/>
        <pt x="604" y="0" on="1"/>
      </contour>
    </TTGlyph>
    <TTGlyph name="guillemotright" xMin="-30" yMin="0" xMax="604" yMax="407">
      <contour>
        <pt x="604" y="43" on="1"/>
        <pt x="604" y="0" on="1"/>
        <pt x="-30" y="0" on="1"/>
        <pt x="-30" y="43" on="1"/>
        <pt x="61" y="43" on="1"/>
        <pt x="176" y="219" on="1"/>
        <pt x="58" y="407" on="1"/>
        <pt x="209" y="407" on="1"/>
        <pt x="331" y="219" on="1"/>
        <pt x="212" y="43" on="1"/>
        <pt x="286" y="43" on="1"/>
        <pt x="401" y="219" on="1"/>
        <pt x="283" y="407" on="1"/>
        <pt x="434" y="407" on="1"/>
        <pt x="556" y="219" on="1"/>
        <pt x="437" y="43" on="1"/>
      </contour>
    </TTGlyph>
    <TTGlyph name="guilsinglleft" xMin="0" yMin="0" xMax="379" yMax="407">
      <contour>
        <pt x="0" y="0" on="1"/>
        <pt x="0" y="43" on="1"/>
        <pt x="166" y="43" on="1"/>
        <pt x="48" y="219" on="1"/>
        <pt x="170" y="407" on="1"/>
        <pt x="321" y="407" on="1"/>
        <pt x="203" y="219" on="1"/>
        <pt x="317" y="43" on="1"/>
        <pt x="379" y="43" on="1"/>
        <pt x="379" y="0" on="1"/>
      </contour>
    </TTGlyph>
    <TTGlyph name="guilsinglright" xMin="-40" yMin="0" xMax="379" yMax="412">
      <contour>
        <pt x="-40" y="0" on="1"/>
        <pt x="-40" y="43" on="1"/>
        <pt x="58" y="43" on="1"/>
        <pt x="176" y="228" on="1"/>
        <pt x="58" y="412" on="1"/>
        <pt x="209" y="412" on="1"/>
        <pt x="331" y="228" on="1"/>
        <pt x="209" y="43" on="1"/>
        <pt x="379" y="43" on="1"/>
        <pt x="379" y="0" on="1"/>
      </contour>
    </TTGlyph>
    <TTGlyph name="h" xMin="0" yMin="0" xMax="762" yMax="699">
      <contour>
        <pt x="762" y="43" on="1"/>
        <pt x="762" y="0" on="1"/>
        <pt x="520" y="0" on="1"/>
        <pt x="520" y="275" on="1"/>
        <pt x="242" y="275" on="1"/>
        <pt x="242" y="0" on="1"/>
        <pt x="0" y="0" on="1"/>
        <pt x="0" y="43" on="1"/>
        <pt x="86" y="43" on="1"/>
        <pt x="86" y="699" on="1"/>
        <pt x="242" y="699" on="1"/>
        <pt x="242" y="407" on="1"/>
        <pt x="520" y="407" on="1"/>
        <pt x="520" y="699" on="1"/>
        <pt x="676" y="699" on="1"/>
        <pt x="676" y="43" on="1"/>
      </contour>
    </TTGlyph>
    <TTGlyph name="hungarumlaut" xMin="16" yMin="611" xMax="510" yMax="788">
      <contour>
        <pt x="149" y="611" on="1"/>
        <pt x="16" y="611" on="1"/>
        <pt x="143" y="788" on="1"/>
        <pt x="288" y="723" on="1"/>
      </contour>
      <contour>
        <pt x="371" y="611" on="1"/>
        <pt x="228" y="611" on="1"/>
        <pt x="365" y="788" on="1"/>
        <pt x="510" y="723" on="1"/>
      </contour>
    </TTGlyph>
    <TTGlyph name="hyphen" xMin="0" yMin="0" xMax="490" yMax="367">
      <contour>
        <pt x="67" y="234" on="1"/>
        <pt x="67" y="367" on="1"/>
        <pt x="423" y="367" on="1"/>
        <pt x="423" y="234" on="1"/>
        <pt x="269" y="234" on="1"/>
        <pt x="269" y="43" on="1"/>
        <pt x="490" y="43" on="1"/>
        <pt x="490" y="0" on="1"/>
        <pt x="0" y="0" on="1"/>
        <pt x="0" y="43" on="1"/>
        <pt x="222" y="43" on="1"/>
        <pt x="222" y="234" on="1"/>
      </contour>
    </TTGlyph>
    <TTGlyph name="i" xMin="0" yMin="0" xMax="328" yMax="699">
      <contour>
        <pt x="328" y="43" on="1"/>
        <pt x="328" y="0" on="1"/>
        <pt x="0" y="0" on="1"/>
        <pt x="0" y="43" on="1"/>
        <pt x="86" y="43" on="1"/>
        <pt x="86" y="699" on="1"/>
        <pt x="242" y="699" on="1"/>
        <pt x="242" y="43" on="1"/>
      </contour>
    </TTGlyph>
    <TTGlyph name="iacute" xMin="0" yMin="0" xMax="375" yMax="948">
      <contour>
        <pt x="328" y="43" on="1"/>
        <pt x="328" y="0" on="1"/>
        <pt x="0" y="0" on="1"/>
        <pt x="0" y="43" on="1"/>
        <pt x="86" y="43" on="1"/>
        <pt x="86" y="699" on="1"/>
        <pt x="242" y="699" on="1"/>
        <pt x="242" y="43" on="1"/>
      </contour>
      <contour>
        <pt x="236" y="771" on="1"/>
        <pt x="93" y="771" on="1"/>
        <pt x="220" y="948" on="1"/>
        <pt x="375" y="883" on="1"/>
      </contour>
    </TTGlyph>
    <TTGlyph name="icircumflex" xMin="-42" yMin="0" xMax="371" yMax="928">
      <contour>
        <pt x="328" y="43" on="1"/>
        <pt x="328" y="0" on="1"/>
        <pt x="0" y="0" on="1"/>
        <pt x="0" y="43" on="1"/>
        <pt x="86" y="43" on="1"/>
        <pt x="86" y="699" on="1"/>
        <pt x="242" y="699" on="1"/>
        <pt x="242" y="43" on="1"/>
      </contour>
      <contour>
        <pt x="81" y="770" on="1"/>
        <pt x="-42" y="770" on="1"/>
        <pt x="71" y="928" on="1"/>
        <pt x="258" y="928" on="1"/>
        <pt x="371" y="770" on="1"/>
        <pt x="248" y="770" on="1"/>
        <pt x="164" y="851" on="1"/>
      </contour>
    </TTGlyph>
    <TTGlyph name="idieresis" xMin="-7" yMin="0" xMax="334" yMax="921">
      <contour>
        <pt x="328" y="43" on="1"/>
        <pt x="328" y="0" on="1"/>
        <pt x="0" y="0" on="1"/>
        <pt x="0" y="43" on="1"/>
        <pt x="86" y="43" on="1"/>
        <pt x="86" y="699" on="1"/>
        <pt x="242" y="699" on="1"/>
        <pt x="242" y="43" on="1"/>
      </contour>
      <contour>
        <pt x="186" y="816" on="0"/>
        <pt x="186" y="878" on="0"/>
        <pt x="229" y="921" on="0"/>
        <pt x="291" y="921" on="0"/>
        <pt x="334" y="878" on="0"/>
        <pt x="334" y="816" on="0"/>
        <pt x="291" y="773" on="0"/>
        <pt x="229" y="773" on="0"/>
      </contour>
      <contour>
        <pt x="-7" y="816" on="0"/>
        <pt x="-7" y="878" on="0"/>
        <pt x="36" y="921" on="0"/>
        <pt x="98" y="921" on="0"/>
        <pt x="141" y="878" on="0"/>
        <pt x="141" y="816" on="0"/>
        <pt x="98" y="773" on="0"/>
        <pt x="36" y="773" on="0"/>
      </contour>
    </TTGlyph>
    <TTGlyph name="igrave" xMin="-37" yMin="0" xMax="328" yMax="947">
      <contour>
        <pt x="328" y="43" on="1"/>
        <pt x="328" y="0" on="1"/>
        <pt x="0" y="0" on="1"/>
        <pt x="0" y="43" on="1"/>
        <pt x="86" y="43" on="1"/>
        <pt x="86" y="699" on="1"/>
        <pt x="242" y="699" on="1"/>
        <pt x="242" y="43" on="1"/>
      </contour>
      <contour>
        <pt x="245" y="769" on="1"/>
        <pt x="102" y="769" on="1"/>
        <pt x="-37" y="881" on="1"/>
        <pt x="117" y="947" on="1"/>
      </contour>
    </TTGlyph>
    <TTGlyph name="itilde" xMin="-30" yMin="0" xMax="355" yMax="930">
      <contour>
        <pt x="328" y="43" on="1"/>
        <pt x="328" y="0" on="1"/>
        <pt x="0" y="0" on="1"/>
        <pt x="0" y="43" on="1"/>
        <pt x="86" y="43" on="1"/>
        <pt x="86" y="699" on="1"/>
        <pt x="242" y="699" on="1"/>
        <pt x="242" y="43" on="1"/>
      </contour>
      <contour>
        <pt x="106" y="821" on="1"/>
        <pt x="75" y="821" on="0"/>
        <pt x="76" y="769" on="1"/>
        <pt x="-30" y="769" on="1"/>
        <pt x="-30" y="844" on="0"/>
        <pt x="35" y="930" on="0"/>
        <pt x="86" y="930" on="1"/>
        <pt x="118" y="930" on="0"/>
        <pt x="209" y="875" on="0"/>
        <pt x="219" y="875" on="1"/>
        <pt x="250" y="875" on="0"/>
        <pt x="249" y="927" on="1"/>
        <pt x="355" y="927" on="1"/>
        <pt x="355" y="852" on="0"/>
        <pt x="290" y="766" on="0"/>
        <pt x="239" y="766" on="1"/>
        <pt x="208" y="766" on="0"/>
        <pt x="114" y="821" on="0"/>
      </contour>
    </TTGlyph>
    <TTGlyph name="j" xMin="0" yMin="0" xMax="556" yMax="699">
      <contour>
        <pt x="556" y="43" on="1"/>
        <pt x="556" y="0" on="1"/>
        <pt x="0" y="0" on="1"/>
        <pt x="0" y="43" on="1"/>
        <pt x="119" y="43" on="1"/>
        <pt x="70" y="65" on="0"/>
        <pt x="26" y="111" on="1"/>
        <pt x="107" y="226" on="1"/>
        <pt x="170" y="158" on="0"/>
        <pt x="239" y="158" on="1"/>
        <pt x="272" y="158" on="0"/>
        <pt x="319" y="210" on="0"/>
        <pt x="319" y="260" on="1"/>
        <pt x="319" y="565" on="1"/>
        <pt x="112" y="565" on="1"/>
        <pt x="112" y="699" on="1"/>
        <pt x="476" y="699" on="1"/>
        <pt x="476" y="263" on="1"/>
        <pt x="476" y="104" on="0"/>
        <pt x="368" y="43" on="1"/>
      </contour>
    </TTGlyph>
    <TTGlyph name="jcircumflex" xMin="0" yMin="0" xMax="556" yMax="927">
      <contour>
        <pt x="556" y="43" on="1"/>
        <pt x="556" y="0" on="1"/>
        <pt x="0" y="0" on="1"/>
        <pt x="0" y="43" on="1"/>
        <pt x="119" y="43" on="1"/>
        <pt x="70" y="65" on="0"/>
        <pt x="26" y="111" on="1"/>
        <pt x="107" y="226" on="1"/>
        <pt x="170" y="158" on="0"/>
        <pt x="239" y="158" on="1"/>
        <pt x="272" y="158" on="0"/>
        <pt x="319" y="210" on="0"/>
        <pt x="319" y="260" on="1"/>
        <pt x="319" y="565" on="1"/>
        <pt x="112" y="565" on="1"/>
        <pt x="112" y="699" on="1"/>
        <pt x="476" y="699" on="1"/>
        <pt x="476" y="263" on="1"/>
        <pt x="476" y="104" on="0"/>
        <pt x="368" y="43" on="1"/>
      </contour>
      <contour>
        <pt x="214" y="769" on="1"/>
        <pt x="91" y="769" on="1"/>
        <pt x="204" y="927" on="1"/>
        <pt x="391" y="927" on="1"/>
        <pt x="504" y="769" on="1"/>
        <pt x="381" y="769" on="1"/>
        <pt x="297" y="850" on="1"/>
      </contour>
    </TTGlyph>
    <TTGlyph name="k" xMin="0" yMin="0" xMax="751" yMax="699">
      <contour>
        <pt x="421" y="390" on="1"/>
        <pt x="668" y="43" on="1"/>
        <pt x="751" y="43" on="1"/>
        <pt x="751" y="0" on="1"/>
        <pt x="517" y="0" on="1"/>
        <pt x="312" y="276" on="1"/>
        <pt x="242" y="198" on="1"/>
        <pt x="242" y="0" on="1"/>
        <pt x="0" y="0" on="1"/>
        <pt x="0" y="43" on="1"/>
        <pt x="86" y="43" on="1"/>
        <pt x="86" y="699" on="1"/>
        <pt x="242" y="699" on="1"/>
        <pt x="242" y="412" on="1"/>
        <pt x="506" y="699" on="1"/>
        <pt x="699" y="699" on="1"/>
      </contour>
    </TTGlyph>
    <TTGlyph name="l" xMin="-11" yMin="0" xMax="637" yMax="699">
      <contour>
        <pt x="637" y="43" on="1"/>
        <pt x="637" y="0" on="1"/>
        <pt x="-11" y="0" on="1"/>
        <pt x="-11" y="43" on="1"/>
        <pt x="86" y="43" on="1"/>
        <pt x="86" y="699" on="1"/>
        <pt x="242" y="699" on="1"/>
        <pt x="242" y="139" on="1"/>
        <pt x="540" y="139" on="1"/>
        <pt x="540" y="43" on="1"/>
      </contour>
    </TTGlyph>
    <TTGlyph name="less" xMin="0" yMin="0" xMax="601" yMax="692">
      <contour>
        <pt x="352" y="43" on="1"/>
        <pt x="601" y="43" on="1"/>
        <pt x="601" y="0" on="1"/>
        <pt x="0" y="0" on="1"/>
        <pt x="0" y="43" on="1"/>
        <pt x="305" y="43" on="1"/>
        <pt x="305" y="201" on="1"/>
        <pt x="41" y="326" on="1"/>
        <pt x="41" y="463" on="1"/>
        <pt x="527" y="692" on="1"/>
        <pt x="527" y="545" on="1"/>
        <pt x="206" y="397" on="1"/>
        <pt x="527" y="245" on="1"/>
        <pt x="527" y="97" on="1"/>
        <pt x="352" y="179" on="1"/>
      </contour>
    </TTGlyph>
    <TTGlyph name="lessequal" xMin="0" yMin="-78" xMax="621" yMax="692">
      <contour>
        <pt x="383" y="43" on="1"/>
        <pt x="621" y="43" on="1"/>
        <pt x="621" y="0" on="1"/>
        <pt x="549" y="0" on="1"/>
        <pt x="549" y="-78" on="1"/>
        <pt x="62" y="-78" on="1"/>
        <pt x="62" y="0" on="1"/>
        <pt x="0" y="0" on="1"/>
        <pt x="0" y="43" on="1"/>
        <pt x="336" y="43" on="1"/>
        <pt x="336" y="197" on="1"/>
        <pt x="62" y="326" on="1"/>
        <pt x="62" y="463" on="1"/>
        <pt x="548" y="692" on="1"/>
        <pt x="548" y="545" on="1"/>
        <pt x="227" y="397" on="1"/>
        <pt x="548" y="245" on="1"/>
        <pt x="548" y="97" on="1"/>
        <pt x="383" y="175" on="1"/>
      </contour>
    </TTGlyph>
    <TTGlyph name="logicalnot" xMin="63" yMin="88" xMax="732" yMax="445">
      <contour>
        <pt x="63" y="445" on="1"/>
        <pt x="732" y="445" on="1"/>
        <pt x="732" y="88" on="1"/>
        <pt x="620" y="88" on="1"/>
        <pt x="620" y="327" on="1"/>
        <pt x="63" y="327" on="1"/>
      </contour>
    </TTGlyph>
    <TTGlyph name="lslash" xMin="0" yMin="0" xMax="653" yMax="698">
      <contour>
        <pt x="102" y="43" on="1"/>
        <pt x="102" y="201" on="1"/>
        <pt x="28" y="178" on="1"/>
        <pt x="28" y="313" on="1"/>
        <pt x="102" y="337" on="1"/>
        <pt x="102" y="698" on="1"/>
        <pt x="258" y="698" on="1"/>
        <pt x="258" y="386" on="1"/>
        <pt x="463" y="451" on="1"/>
        <pt x="463" y="315" on="1"/>
        <pt x="258" y="250" on="1"/>
        <pt x="258" y="139" on="1"/>
        <pt x="556" y="139" on="1"/>
        <pt x="556" y="43" on="1"/>
        <pt x="653" y="43" on="1"/>
        <pt x="653" y="0" on="1"/>
        <pt x="0" y="0" on="1"/>
        <pt x="0" y="43" on="1"/>
      </contour>
    </TTGlyph>
    <TTGlyph name="m" xMin="-11" yMin="0" xMax="965" yMax="699">
      <contour>
        <pt x="712" y="440" on="1"/>
        <pt x="523" y="58" on="1"/>
        <pt x="430" y="58" on="1"/>
        <pt x="242" y="440" on="1"/>
        <pt x="242" y="0" on="1"/>
        <pt x="-11" y="0" on="1"/>
        <pt x="-11" y="43" on="1"/>
        <pt x="86" y="43" on="1"/>
        <pt x="86" y="699" on="1"/>
        <pt x="297" y="699" on="1"/>
        <pt x="477" y="315" on="1"/>
        <pt x="658" y="699" on="1"/>
        <pt x="868" y="699" on="1"/>
        <pt x="868" y="43" on="1"/>
        <pt x="965" y="43" on="1"/>
        <pt x="965" y="0" on="1"/>
        <pt x="712" y="0" on="1"/>
      </contour>
    </TTGlyph>
    <TTGlyph name="macron" xMin="55" yMin="571" xMax="388" yMax="687">
      <contour>
        <pt x="388" y="687" on="1"/>
        <pt x="388" y="571" on="1"/>
        <pt x="55" y="571" on="1"/>
        <pt x="55" y="687" on="1"/>
      </contour>
    </TTGlyph>
    <TTGlyph name="minus" xMin="0" yMin="0" xMax="582" yMax="411">
      <contour>
        <pt x="582" y="43" on="1"/>
        <pt x="582" y="0" on="1"/>
        <pt x="0" y="0" on="1"/>
        <pt x="0" y="43" on="1"/>
        <pt x="268" y="43" on="1"/>
        <pt x="268" y="288" on="1"/>
        <pt x="48" y="288" on="1"/>
        <pt x="48" y="411" on="1"/>
        <pt x="534" y="411" on="1"/>
        <pt x="534" y="288" on="1"/>
        <pt x="315" y="288" on="1"/>
        <pt x="315" y="43" on="1"/>
      </contour>
    </TTGlyph>
    <TTGlyph name="multiply" xMin="0" yMin="0" xMax="589" yMax="614">
      <contour>
        <pt x="589" y="43" on="1"/>
        <pt x="589" y="0" on="1"/>
        <pt x="0" y="0" on="1"/>
        <pt x="0" y="43" on="1"/>
        <pt x="271" y="43" on="1"/>
        <pt x="271" y="250" on="1"/>
        <pt x="136" y="112" on="1"/>
        <pt x="48" y="201" on="1"/>
        <pt x="208" y="364" on="1"/>
        <pt x="49" y="525" on="1"/>
        <pt x="137" y="614" on="1"/>
        <pt x="295" y="451" on="1"/>
        <pt x="454" y="614" on="1"/>
        <pt x="540" y="525" on="1"/>
        <pt x="383" y="364" on="1"/>
        <pt x="541" y="201" on="1"/>
        <pt x="455" y="112" on="1"/>
        <pt x="318" y="251" on="1"/>
        <pt x="318" y="43" on="1"/>
      </contour>
    </TTGlyph>
    <TTGlyph name="n" xMin="-11" yMin="0" xMax="828" yMax="699">
      <contour>
        <pt x="86" y="43" on="1"/>
        <pt x="86" y="699" on="1"/>
        <pt x="232" y="699" on="1"/>
        <pt x="575" y="249" on="1"/>
        <pt x="575" y="699" on="1"/>
        <pt x="731" y="699" on="1"/>
        <pt x="731" y="43" on="1"/>
        <pt x="828" y="43" on="1"/>
        <pt x="828" y="0" on="1"/>
        <pt x="575" y="0" on="1"/>
        <pt x="242" y="438" on="1"/>
        <pt x="242" y="0" on="1"/>
        <pt x="-11" y="0" on="1"/>
        <pt x="-11" y="43" on="1"/>
      </contour>
    </TTGlyph>
    <TTGlyph name="nacute" xMin="-11" yMin="0" xMax="828" yMax="948">
      <contour>
        <pt x="86" y="43" on="1"/>
        <pt x="86" y="699" on="1"/>
        <pt x="232" y="699" on="1"/>
        <pt x="575" y="249" on="1"/>
        <pt x="575" y="699" on="1"/>
        <pt x="731" y="699" on="1"/>
        <pt x="731" y="43" on="1"/>
        <pt x="828" y="43" on="1"/>
        <pt x="828" y="0" on="1"/>
        <pt x="575" y="0" on="1"/>
        <pt x="242" y="438" on="1"/>
        <pt x="242" y="0" on="1"/>
        <pt x="-11" y="0" on="1"/>
        <pt x="-11" y="43" on="1"/>
      </contour>
      <contour>
        <pt x="471" y="771" on="1"/>
        <pt x="328" y="771" on="1"/>
        <pt x="455" y="948" on="1"/>
        <pt x="610" y="883" on="1"/>
      </contour>
    </TTGlyph>
    <TTGlyph name="nine" xMin="0" yMin="0" xMax="629" yMax="715">
      <contour>
        <pt x="629" y="43" on="1"/>
        <pt x="629" y="0" on="1"/>
        <pt x="0" y="0" on="1"/>
        <pt x="0" y="43" on="1"/>
        <pt x="113" y="43" on="1"/>
        <pt x="88" y="60" on="0"/>
        <pt x="72" y="73" on="1"/>
        <pt x="150" y="183" on="1"/>
        <pt x="157" y="177" on="0"/>
        <pt x="180" y="158" on="0"/>
        <pt x="246" y="126" on="0"/>
        <pt x="275" y="126" on="1"/>
        <pt x="340" y="126" on="0"/>
        <pt x="411" y="213" on="0"/>
        <pt x="419" y="288" on="1"/>
        <pt x="355" y="245" on="0"/>
        <pt x="281" y="245" on="1"/>
        <pt x="183" y="245" on="0"/>
        <pt x="52" y="374" on="0"/>
        <pt x="52" y="586" on="0"/>
        <pt x="193" y="715" on="0"/>
        <pt x="300" y="715" on="1"/>
        <pt x="374" y="715" on="0"/>
        <pt x="483" y="658" on="0"/>
        <pt x="514" y="607" on="1"/>
        <pt x="573" y="508" on="0"/>
        <pt x="573" y="359" on="1"/>
        <pt x="573" y="135" on="0"/>
        <pt x="449" y="43" on="1"/>
      </contour>
      <contour>
        <pt x="343" y="378" on="0"/>
        <pt x="405" y="432" on="0"/>
        <pt x="405" y="520" on="0"/>
        <pt x="345" y="584" on="0"/>
        <pt x="255" y="584" on="0"/>
        <pt x="198" y="527" on="0"/>
        <pt x="198" y="439" on="0"/>
        <pt x="250" y="378" on="0"/>
      </contour>
    </TTGlyph>
    <TTGlyph name="ntilde" xMin="-11" yMin="0" xMax="828" yMax="929">
      <contour>
        <pt x="86" y="43" on="1"/>
        <pt x="86" y="699" on="1"/>
        <pt x="232" y="699" on="1"/>
        <pt x="575" y="249" on="1"/>
        <pt x="575" y="699" on="1"/>
        <pt x="731" y="699" on="1"/>
        <pt x="731" y="43" on="1"/>
        <pt x="828" y="43" on="1"/>
        <pt x="828" y="0" on="1"/>
        <pt x="575" y="0" on="1"/>
        <pt x="242" y="438" on="1"/>
        <pt x="242" y="0" on="1"/>
        <pt x="-11" y="0" on="1"/>
        <pt x="-11" y="43" on="1"/>
      </contour>
      <contour>
        <pt x="350" y="820" on="1"/>
        <pt x="319" y="820" on="0"/>
        <pt x="320" y="768" on="1"/>
        <pt x="214" y="768" on="1"/>
        <pt x="214" y="843" on="0"/>
        <pt x="279" y="929" on="0"/>
        <pt x="330" y="929" on="1"/>
        <pt x="362" y="929" on="0"/>
        <pt x="453" y="874" on="0"/>
        <pt x="463" y="874" on="1"/>
        <pt x="494" y="874" on="0"/>
        <pt x="493" y="926" on="1"/>
        <pt x="599" y="926" on="1"/>
        <pt x="599" y="851" on="0"/>
        <pt x="534" y="765" on="0"/>
        <pt x="483" y="765" on="1"/>
        <pt x="452" y="765" on="0"/>
        <pt x="358" y="820" on="0"/>
      </contour>
    </TTGlyph>
    <TTGlyph name="numbersign" xMin="-80" yMin="0" xMax="748" yMax="715">
      <contour>
        <pt x="748" y="43" on="1"/>
        <pt x="748" y="0" on="1"/>
        <pt x="-80" y="0" on="1"/>
        <pt x="-80" y="43" on="1"/>
        <pt x="121" y="43" on="1"/>
        <pt x="140" y="152" on="1"/>
        <pt x="44" y="152" on="1"/>
        <pt x="71" y="290" on="1"/>
        <pt x="164" y="290" on="1"/>
        <pt x="185" y="415" on="1"/>
        <pt x="78" y="415" on="1"/>
        <pt x="105" y="553" on="1"/>
        <pt x="208" y="553" on="1"/>
        <pt x="235" y="715" on="1"/>
        <pt x="386" y="715" on="1"/>
        <pt x="359" y="553" on="1"/>
        <pt x="449" y="553" on="1"/>
        <pt x="476" y="715" on="1"/>
        <pt x="628" y="715" on="1"/>
        <pt x="599" y="553" on="1"/>
        <pt x="704" y="553" on="1"/>
        <pt x="677" y="415" on="1"/>
        <pt x="576" y="415" on="1"/>
        <pt x="555" y="290" on="1"/>
        <pt x="670" y="290" on="1"/>
        <pt x="643" y="152" on="1"/>
        <pt x="532" y="152" on="1"/>
        <pt x="513" y="43" on="1"/>
      </contour>
      <contour>
        <pt x="427" y="415" on="1"/>
        <pt x="336" y="415" on="1"/>
        <pt x="314" y="290" on="1"/>
        <pt x="405" y="290" on="1"/>
      </contour>
      <contour>
        <pt x="291" y="152" on="1"/>
        <pt x="272" y="43" on="1"/>
        <pt x="363" y="43" on="1"/>
        <pt x="382" y="152" on="1"/>
      </contour>
    </TTGlyph>
    <TTGlyph name="o" xMin="0" yMin="0" xMax="826" yMax="715">
      <contour>
        <pt x="826" y="43" on="1"/>
        <pt x="826" y="0" on="1"/>
        <pt x="0" y="0" on="1"/>
        <pt x="0" y="43" on="1"/>
        <pt x="223" y="43" on="1"/>
        <pt x="141" y="90" on="0"/>
        <pt x="46" y="254" on="0"/>
        <pt x="46" y="354" on="1"/>
        <pt x="46" y="508" on="0"/>
        <pt x="258" y="715" on="0"/>
        <pt x="568" y="715" on="0"/>
        <pt x="780" y="508" on="0"/>
        <pt x="780" y="354" on="1"/>
        <pt x="780" y="254" on="0"/>
        <pt x="684" y="90" on="0"/>
        <pt x="603" y="43" on="1"/>
      </contour>
      <contour>
        <pt x="621" y="447" on="0"/>
        <pt x="501" y="579" on="0"/>
        <pt x="326" y="579" on="0"/>
        <pt x="206" y="447" on="0"/>
        <pt x="206" y="260" on="0"/>
        <pt x="326" y="129" on="0"/>
        <pt x="501" y="129" on="0"/>
        <pt x="621" y="260" on="0"/>
      </contour>
    </TTGlyph>
    <TTGlyph name="oacute" xMin="0" yMin="0" xMax="826" yMax="948">
      <contour>
        <pt x="826" y="43" on="1"/>
        <pt x="826" y="0" on="1"/>
        <pt x="0" y="0" on="1"/>
        <pt x="0" y="43" on="1"/>
        <pt x="223" y="43" on="1"/>
        <pt x="141" y="90" on="0"/>
        <pt x="46" y="254" on="0"/>
        <pt x="46" y="354" on="1"/>
        <pt x="46" y="508" on="0"/>
        <pt x="258" y="715" on="0"/>
        <pt x="568" y="715" on="0"/>
        <pt x="780" y="508" on="0"/>
        <pt x="780" y="354" on="1"/>
        <pt x="780" y="254" on="0"/>
        <pt x="684" y="90" on="0"/>
        <pt x="603" y="43" on="1"/>
      </contour>
      <contour>
        <pt x="621" y="447" on="0"/>
        <pt x="501" y="579" on="0"/>
        <pt x="326" y="579" on="0"/>
        <pt x="206" y="447" on="0"/>
        <pt x="206" y="260" on="0"/>
        <pt x="326" y="129" on="0"/>
        <pt x="501" y="129" on="0"/>
        <pt x="621" y="260" on="0"/>
      </contour>
      <contour>
        <pt x="485" y="771" on="1"/>
        <pt x="342" y="771" on="1"/>
        <pt x="469" y="948" on="1"/>
        <pt x="624" y="883" on="1"/>
      </contour>
    </TTGlyph>
    <TTGlyph name="ocircumflex" xMin="0" yMin="0" xMax="826" yMax="927">
      <contour>
        <pt x="826" y="43" on="1"/>
        <pt x="826" y="0" on="1"/>
        <pt x="0" y="0" on="1"/>
        <pt x="0" y="43" on="1"/>
        <pt x="223" y="43" on="1"/>
        <pt x="141" y="90" on="0"/>
        <pt x="46" y="254" on="0"/>
        <pt x="46" y="354" on="1"/>
        <pt x="46" y="508" on="0"/>
        <pt x="258" y="715" on="0"/>
        <pt x="568" y="715" on="0"/>
        <pt x="780" y="508" on="0"/>
        <pt x="780" y="354" on="1"/>
        <pt x="780" y="254" on="0"/>
        <pt x="684" y="90" on="0"/>
        <pt x="603" y="43" on="1"/>
      </contour>
      <contour>
        <pt x="621" y="447" on="0"/>
        <pt x="501" y="579" on="0"/>
        <pt x="326" y="579" on="0"/>
        <pt x="206" y="447" on="0"/>
        <pt x="206" y="260" on="0"/>
        <pt x="326" y="129" on="0"/>
        <pt x="501" y="129" on="0"/>
        <pt x="621" y="260" on="0"/>
      </contour>
      <contour>
        <pt x="329" y="769" on="1"/>
        <pt x="206" y="769" on="1"/>
        <pt x="319" y="927" on="1"/>
        <pt x="506" y="927" on="1"/>
        <pt x="619" y="769" on="1"/>
        <pt x="496" y="769" on="1"/>
        <pt x="412" y="850" on="1"/>
      </contour>
    </TTGlyph>
    <TTGlyph name="odieresis" xMin="0" yMin="0" xMax="826" yMax="921">
      <contour>
        <pt x="826" y="43" on="1"/>
        <pt x="826" y="0" on="1"/>
        <pt x="0" y="0" on="1"/>
        <pt x="0" y="43" on="1"/>
        <pt x="223" y="43" on="1"/>
        <pt x="141" y="90" on="0"/>
        <pt x="46" y="254" on="0"/>
        <pt x="46" y="354" on="1"/>
        <pt x="46" y="508" on="0"/>
        <pt x="258" y="715" on="0"/>
        <pt x="568" y="715" on="0"/>
        <pt x="780" y="508" on="0"/>
        <pt x="780" y="354" on="1"/>
        <pt x="780" y="254" on="0"/>
        <pt x="684" y="90" on="0"/>
        <pt x="603" y="43" on="1"/>
      </contour>
      <contour>
        <pt x="621" y="447" on="0"/>
        <pt x="501" y="579" on="0"/>
        <pt x="326" y="579" on="0"/>
        <pt x="206" y="447" on="0"/>
        <pt x="206" y="260" on="0"/>
        <pt x="326" y="129" on="0"/>
        <pt x="501" y="129" on="0"/>
        <pt x="621" y="260" on="0"/>
      </contour>
      <contour>
        <pt x="241" y="816" on="0"/>
        <pt x="241" y="878" on="0"/>
        <pt x="284" y="921" on="0"/>
        <pt x="346" y="921" on="0"/>
        <pt x="389" y="878" on="0"/>
        <pt x="389" y="816" on="0"/>
        <pt x="346" y="773" on="0"/>
        <pt x="284" y="773" on="0"/>
      </contour>
      <contour>
        <pt x="434" y="816" on="0"/>
        <pt x="434" y="878" on="0"/>
        <pt x="477" y="921" on="0"/>
        <pt x="539" y="921" on="0"/>
        <pt x="582" y="878" on="0"/>
        <pt x="582" y="816" on="0"/>
        <pt x="539" y="773" on="0"/>
        <pt x="477" y="773" on="0"/>
      </contour>
    </TTGlyph>
    <TTGlyph name="oe" xMin="-100" yMin="0" xMax="1145" yMax="698">
      <contour>
        <pt x="1145" y="43" on="1"/>
        <pt x="1145" y="0" on="1"/>
        <pt x="-100" y="0" on="1"/>
        <pt x="-100" y="43" on="1"/>
        <pt x="227" y="43" on="1"/>
        <pt x="144" y="87" on="0"/>
        <pt x="47" y="249" on="0"/>
        <pt x="47" y="349" on="1"/>
        <pt x="47" y="498" on="0"/>
        <pt x="252" y="698" on="0"/>
        <pt x="403" y="698" on="1"/>
        <pt x="978" y="698" on="1"/>
        <pt x="978" y="560" on="1"/>
        <pt x="630" y="560" on="1"/>
        <pt x="630" y="416" on="1"/>
        <pt x="942" y="416" on="1"/>
        <pt x="942" y="283" on="1"/>
        <pt x="630" y="283" on="1"/>
        <pt x="630" y="138" on="1"/>
        <pt x="989" y="138" on="1"/>
        <pt x="989" y="43" on="1"/>
      </contour>
      <contour>
        <pt x="329" y="567" on="0"/>
        <pt x="213" y="440" on="0"/>
        <pt x="213" y="259" on="0"/>
        <pt x="329" y="131" on="0"/>
        <pt x="413" y="131" on="1"/>
        <pt x="473" y="131" on="1"/>
        <pt x="473" y="567" on="1"/>
        <pt x="413" y="567" on="1"/>
      </contour>
    </TTGlyph>
    <TTGlyph name="ogonek" xMin="18" yMin="-212" xMax="217" yMax="-8">
      <contour>
        <pt x="125" y="-129" on="1"/>
        <pt x="147" y="-129" on="0"/>
        <pt x="166" y="-100" on="1"/>
        <pt x="217" y="-133" on="1"/>
        <pt x="188" y="-180" on="0"/>
        <pt x="139" y="-212" on="0"/>
        <pt x="66" y="-212" on="0"/>
        <pt x="18" y="-162" on="0"/>
        <pt x="18" y="-100" on="0"/>
        <pt x="44" y="-42" on="0"/>
        <pt x="58" y="-25" on="1"/>
        <pt x="71" y="-8" on="1"/>
        <pt x="144" y="-8" on="1"/>
        <pt x="98" y="-68" on="0"/>
        <pt x="98" y="-104" on="1"/>
        <pt x="98" y="-129" on="0"/>
      </contour>
    </TTGlyph>
    <TTGlyph name="ograve" xMin="0" yMin="0" xMax="826" yMax="947">
      <contour>
        <pt x="826" y="43" on="1"/>
        <pt x="826" y="0" on="1"/>
        <pt x="0" y="0" on="1"/>
        <pt x="0" y="43" on="1"/>
        <pt x="223" y="43" on="1"/>
        <pt x="141" y="90" on="0"/>
        <pt x="46" y="254" on="0"/>
        <pt x="46" y="354" on="1"/>
        <pt x="46" y="508" on="0"/>
        <pt x="258" y="715" on="0"/>
        <pt x="568" y="715" on="0"/>
        <pt x="780" y="508" on="0"/>
        <pt x="780" y="354" on="1"/>
        <pt x="780" y="254" on="0"/>
        <pt x="684" y="90" on="0"/>
        <pt x="603" y="43" on="1"/>
      </contour>
      <contour>
        <pt x="621" y="447" on="0"/>
        <pt x="501" y="579" on="0"/>
        <pt x="326" y="579" on="0"/>
        <pt x="206" y="447" on="0"/>
        <pt x="206" y="260" on="0"/>
        <pt x="326" y="129" on="0"/>
        <pt x="501" y="129" on="0"/>
        <pt x="621" y="260" on="0"/>
      </contour>
      <contour>
        <pt x="494" y="769" on="1"/>
        <pt x="351" y="769" on="1"/>
        <pt x="212" y="881" on="1"/>
        <pt x="366" y="947" on="1"/>
      </contour>
    </TTGlyph>
    <TTGlyph name="one" xMin="0" yMin="0" xMax="403" yMax="699">
      <contour>
        <pt x="403" y="43" on="1"/>
        <pt x="403" y="0" on="1"/>
        <pt x="0" y="0" on="1"/>
        <pt x="0" y="43" on="1"/>
        <pt x="164" y="43" on="1"/>
        <pt x="164" y="566" on="1"/>
        <pt x="31" y="566" on="1"/>
        <pt x="31" y="699" on="1"/>
        <pt x="314" y="699" on="1"/>
        <pt x="314" y="43" on="1"/>
      </contour>
    </TTGlyph>
    <TTGlyph name="oslash" xMin="0" yMin="-112" xMax="826" yMax="805">
      <contour>
        <pt x="826" y="43" on="1"/>
        <pt x="826" y="0" on="1"/>
        <pt x="333" y="0" on="1"/>
        <pt x="282" y="-112" on="1"/>
        <pt x="141" y="-112" on="1"/>
        <pt x="192" y="0" on="1"/>
        <pt x="0" y="0" on="1"/>
        <pt x="0" y="43" on="1"/>
        <pt x="211" y="43" on="1"/>
        <pt x="214" y="48" on="1"/>
        <pt x="136" y="96" on="0"/>
        <pt x="46" y="257" on="0"/>
        <pt x="46" y="354" on="1"/>
        <pt x="46" y="508" on="0"/>
        <pt x="258" y="715" on="0"/>
        <pt x="413" y="715" on="1"/>
        <pt x="461" y="715" on="0"/>
        <pt x="513" y="702" on="1"/>
        <pt x="560" y="805" on="1"/>
        <pt x="702" y="805" on="1"/>
        <pt x="630" y="648" on="1"/>
        <pt x="700" y="599" on="0"/>
        <pt x="780" y="445" on="0"/>
        <pt x="780" y="254" on="0"/>
        <pt x="684" y="91" on="0"/>
        <pt x="603" y="43" on="1"/>
      </contour>
      <contour>
        <pt x="413" y="579" on="1"/>
        <pt x="326" y="579" on="0"/>
        <pt x="206" y="447" on="0"/>
        <pt x="206" y="249" on="0"/>
        <pt x="276" y="184" on="1"/>
        <pt x="455" y="574" on="1"/>
        <pt x="432" y="579" on="0"/>
      </contour>
      <contour>
        <pt x="501" y="129" on="0"/>
        <pt x="621" y="260" on="0"/>
        <pt x="621" y="442" on="0"/>
        <pt x="565" y="508" on="1"/>
        <pt x="393" y="130" on="1"/>
        <pt x="399" y="129" on="0"/>
        <pt x="413" y="129" on="1"/>
      </contour>
    </TTGlyph>
    <TTGlyph name="otilde" xMin="0" yMin="0" xMax="826" yMax="929">
      <contour>
        <pt x="826" y="43" on="1"/>
        <pt x="826" y="0" on="1"/>
        <pt x="0" y="0" on="1"/>
        <pt x="0" y="43" on="1"/>
        <pt x="223" y="43" on="1"/>
        <pt x="141" y="90" on="0"/>
        <pt x="46" y="254" on="0"/>
        <pt x="46" y="354" on="1"/>
        <pt x="46" y="508" on="0"/>
        <pt x="258" y="715" on="0"/>
        <pt x="568" y="715" on="0"/>
        <pt x="780" y="508" on="0"/>
        <pt x="780" y="354" on="1"/>
        <pt x="780" y="254" on="0"/>
        <pt x="684" y="90" on="0"/>
        <pt x="603" y="43" on="1"/>
      </contour>
      <contour>
        <pt x="621" y="447" on="0"/>
        <pt x="501" y="579" on="0"/>
        <pt x="326" y="579" on="0"/>
        <pt x="206" y="447" on="0"/>
        <pt x="206" y="260" on="0"/>
        <pt x="326" y="129" on="0"/>
        <pt x="501" y="129" on="0"/>
        <pt x="621" y="260" on="0"/>
      </contour>
      <contour>
        <pt x="355" y="820" on="1"/>
        <pt x="324" y="820" on="0"/>
        <pt x="325" y="768" on="1"/>
        <pt x="219" y="768" on="1"/>
        <pt x="219" y="843" on="0"/>
        <pt x="284" y="929" on="0"/>
        <pt x="335" y="929" on="1"/>
        <pt x="367" y="929" on="0"/>
        <pt x="458" y="874" on="0"/>
        <pt x="468" y="874" on="1"/>
        <pt x="499" y="874" on="0"/>
        <pt x="498" y="926" on="1"/>
        <pt x="604" y="926" on="1"/>
        <pt x="604" y="851" on="0"/>
        <pt x="539" y="765" on="0"/>
        <pt x="488" y="765" on="1"/>
        <pt x="457" y="765" on="0"/>
        <pt x="363" y="820" on="0"/>
      </contour>
    </TTGlyph>
    <TTGlyph name="p" xMin="-11" yMin="0" xMax="677" yMax="699">
      <contour>
        <pt x="677" y="43" on="1"/>
        <pt x="677" y="0" on="1"/>
        <pt x="-11" y="0" on="1"/>
        <pt x="-11" y="43" on="1"/>
        <pt x="86" y="43" on="1"/>
        <pt x="86" y="699" on="1"/>
        <pt x="333" y="699" on="1"/>
        <pt x="494" y="699" on="0"/>
        <pt x="641" y="574" on="0"/>
        <pt x="641" y="315" on="0"/>
        <pt x="490" y="195" on="0"/>
        <pt x="335" y="195" on="1"/>
        <pt x="242" y="195" on="1"/>
        <pt x="242" y="43" on="1"/>
      </contour>
      <contour>
        <pt x="425" y="330" on="0"/>
        <pt x="481" y="393" on="0"/>
        <pt x="481" y="514" on="0"/>
        <pt x="408" y="565" on="0"/>
        <pt x="331" y="565" on="1"/>
        <pt x="242" y="565" on="1"/>
        <pt x="242" y="330" on="1"/>
        <pt x="347" y="330" on="1"/>
      </contour>
    </TTGlyph>
    <TTGlyph name="paragraph" xMin="0" yMin="0" xMax="712" yMax="756">
      <contour>
        <pt x="712" y="43" on="1"/>
        <pt x="712" y="0" on="1"/>
        <pt x="0" y="0" on="1"/>
        <pt x="0" y="43" on="1"/>
        <pt x="260" y="43" on="1"/>
        <pt x="260" y="348" on="1"/>
        <pt x="240" y="348" on="1"/>
        <pt x="110" y="348" on="0"/>
        <pt x="60" y="444" on="1"/>
        <pt x="34" y="493" on="0"/>
        <pt x="34" y="548" on="1"/>
        <pt x="34" y="636" on="0"/>
        <pt x="155" y="756" on="0"/>
        <pt x="279" y="756" on="1"/>
        <pt x="621" y="756" on="1"/>
        <pt x="621" y="43" on="1"/>
      </contour>
      <contour>
        <pt x="390" y="632" on="1"/>
        <pt x="390" y="43" on="1"/>
        <pt x="488" y="43" on="1"/>
        <pt x="488" y="632" on="1"/>
      </contour>
    </TTGlyph>
    <TTGlyph name="parenleft" xMin="0" yMin="0" xMax="422" yMax="757">
      <contour>
        <pt x="422" y="43" on="1"/>
        <pt x="422" y="0" on="1"/>
        <pt x="0" y="0" on="1"/>
        <pt x="0" y="43" on="1"/>
        <pt x="146" y="43" on="1"/>
        <pt x="55" y="195" on="0"/>
        <pt x="55" y="378" on="1"/>
        <pt x="55" y="594" on="0"/>
        <pt x="175" y="757" on="1"/>
        <pt x="337" y="757" on="1"/>
        <pt x="272" y="668" on="0"/>
        <pt x="204" y="491" on="0"/>
        <pt x="204" y="378" on="1"/>
        <pt x="204" y="200" on="0"/>
        <pt x="307" y="43" on="1"/>
      </contour>
    </TTGlyph>
    <TTGlyph name="parenright" xMin="-60" yMin="0" xMax="362" yMax="757">
      <contour>
        <pt x="-60" y="0" on="1"/>
        <pt x="-60" y="43" on="1"/>
        <pt x="55" y="43" on="1"/>
        <pt x="158" y="203" on="0"/>
        <pt x="158" y="378" on="1"/>
        <pt x="158" y="491" on="0"/>
        <pt x="90" y="668" on="0"/>
        <pt x="25" y="757" on="1"/>
        <pt x="187" y="757" on="1"/>
        <pt x="307" y="594" on="0"/>
        <pt x="307" y="378" on="1"/>
        <pt x="307" y="196" on="0"/>
        <pt x="215" y="43" on="1"/>
        <pt x="362" y="43" on="1"/>
        <pt x="362" y="0" on="1"/>
      </contour>
    </TTGlyph>
    <TTGlyph name="percent" xMin="0" yMin="0" xMax="839" yMax="699">
      <contour>
        <pt x="491" y="43" on="1"/>
        <pt x="458" y="81" on="0"/>
        <pt x="458" y="191" on="0"/>
        <pt x="542" y="273" on="0"/>
        <pt x="669" y="273" on="0"/>
        <pt x="753" y="191" on="0"/>
        <pt x="753" y="81" on="0"/>
        <pt x="721" y="43" on="1"/>
        <pt x="839" y="43" on="1"/>
        <pt x="839" y="0" on="1"/>
        <pt x="0" y="0" on="1"/>
        <pt x="0" y="43" on="1"/>
        <pt x="101" y="43" on="1"/>
        <pt x="572" y="699" on="1"/>
        <pt x="743" y="699" on="1"/>
        <pt x="273" y="43" on="1"/>
      </contour>
      <contour>
        <pt x="359" y="482" on="0"/>
        <pt x="275" y="401" on="0"/>
        <pt x="148" y="401" on="0"/>
        <pt x="64" y="483" on="0"/>
        <pt x="64" y="600" on="0"/>
        <pt x="148" y="682" on="0"/>
        <pt x="275" y="682" on="0"/>
        <pt x="359" y="600" on="0"/>
      </contour>
      <contour>
        <pt x="193" y="492" on="0"/>
        <pt x="229" y="492" on="0"/>
        <pt x="253" y="519" on="0"/>
        <pt x="253" y="563" on="0"/>
        <pt x="229" y="592" on="0"/>
        <pt x="194" y="592" on="0"/>
        <pt x="170" y="563" on="0"/>
        <pt x="170" y="519" on="0"/>
      </contour>
      <contour>
        <pt x="587" y="83" on="0"/>
        <pt x="623" y="83" on="0"/>
        <pt x="647" y="110" on="0"/>
        <pt x="647" y="154" on="0"/>
        <pt x="623" y="183" on="0"/>
        <pt x="588" y="183" on="0"/>
        <pt x="564" y="154" on="0"/>
        <pt x="564" y="110" on="0"/>
      </contour>
    </TTGlyph>
    <TTGlyph name="period" xMin="0" yMin="0" xMax="288" yMax="188">
      <contour>
        <pt x="0" y="0" on="1"/>
        <pt x="0" y="43" on="1"/>
        <pt x="76" y="43" on="1"/>
        <pt x="56" y="66" on="0"/>
        <pt x="56" y="137" on="0"/>
        <pt x="107" y="188" on="0"/>
        <pt x="181" y="188" on="0"/>
        <pt x="232" y="137" on="0"/>
        <pt x="232" y="67" on="0"/>
        <pt x="211" y="43" on="1"/>
        <pt x="288" y="43" on="1"/>
        <pt x="288" y="0" on="1"/>
      </contour>
    </TTGlyph>
    <TTGlyph name="periodcentered" xMin="61" yMin="230" xMax="237" yMax="406">
      <contour>
        <pt x="61" y="281" on="0"/>
        <pt x="61" y="355" on="0"/>
        <pt x="112" y="406" on="0"/>
        <pt x="186" y="406" on="0"/>
        <pt x="237" y="355" on="0"/>
        <pt x="237" y="281" on="0"/>
        <pt x="186" y="230" on="0"/>
        <pt x="112" y="230" on="0"/>
      </contour>
    </TTGlyph>
    <TTGlyph name="perthousand" xMin="0" yMin="0" xMax="1137" yMax="698">
      <contour>
        <pt x="1137" y="43" on="1"/>
        <pt x="1137" y="0" on="1"/>
        <pt x="0" y="0" on="1"/>
        <pt x="0" y="43" on="1"/>
        <pt x="83" y="43" on="1"/>
        <pt x="554" y="698" on="1"/>
        <pt x="725" y="698" on="1"/>
        <pt x="254" y="43" on="1"/>
        <pt x="463" y="43" on="1"/>
        <pt x="430" y="81" on="0"/>
        <pt x="430" y="191" on="0"/>
        <pt x="514" y="273" on="0"/>
        <pt x="641" y="273" on="0"/>
        <pt x="725" y="191" on="0"/>
        <pt x="725" y="81" on="0"/>
        <pt x="693" y="43" on="1"/>
        <pt x="820" y="43" on="1"/>
        <pt x="788" y="80" on="0"/>
        <pt x="788" y="191" on="0"/>
        <pt x="872" y="273" on="0"/>
        <pt x="999" y="273" on="0"/>
        <pt x="1083" y="191" on="0"/>
        <pt x="1083" y="81" on="0"/>
        <pt x="1051" y="43" on="1"/>
      </contour>
      <contour>
        <pt x="351" y="482" on="0"/>
        <pt x="267" y="401" on="0"/>
        <pt x="140" y="401" on="0"/>
        <pt x="56" y="483" on="0"/>
        <pt x="56" y="600" on="0"/>
        <pt x="140" y="682" on="0"/>
        <pt x="267" y="682" on="0"/>
        <pt x="351" y="600" on="0"/>
      </contour>
      <contour>
        <pt x="526" y="105" on="0"/>
        <pt x="555" y="71" on="0"/>
        <pt x="600" y="71" on="0"/>
        <pt x="629" y="105" on="0"/>
        <pt x="629" y="160" on="0"/>
        <pt x="600" y="195" on="0"/>
        <pt x="555" y="195" on="0"/>
        <pt x="526" y="160" on="0"/>
      </contour>
      <contour>
        <pt x="884" y="105" on="0"/>
        <pt x="913" y="71" on="0"/>
        <pt x="958" y="71" on="0"/>
        <pt x="987" y="105" on="0"/>
        <pt x="987" y="160" on="0"/>
        <pt x="958" y="195" on="0"/>
        <pt x="913" y="195" on="0"/>
        <pt x="884" y="160" on="0"/>
      </contour>
      <contour>
        <pt x="159" y="517" on="0"/>
        <pt x="184" y="488" on="0"/>
        <pt x="223" y="488" on="0"/>
        <pt x="248" y="517" on="0"/>
        <pt x="248" y="565" on="0"/>
        <pt x="223" y="595" on="0"/>
        <pt x="184" y="595" on="0"/>
        <pt x="159" y="565" on="0"/>
      </contour>
    </TTGlyph>
    <TTGlyph name="plus" xMin="0" yMin="0" xMax="584" yMax="592">
      <contour>
        <pt x="223" y="109" on="1"/>
        <pt x="223" y="289" on="1"/>
        <pt x="48" y="289" on="1"/>
        <pt x="48" y="412" on="1"/>
        <pt x="223" y="412" on="1"/>
        <pt x="223" y="592" on="1"/>
        <pt x="361" y="592" on="1"/>
        <pt x="361" y="412" on="1"/>
        <pt x="536" y="412" on="1"/>
        <pt x="536" y="289" on="1"/>
        <pt x="361" y="289" on="1"/>
        <pt x="361" y="109" on="1"/>
        <pt x="315" y="109" on="1"/>
        <pt x="315" y="43" on="1"/>
        <pt x="584" y="43" on="1"/>
        <pt x="584" y="0" on="1"/>
        <pt x="0" y="0" on="1"/>
        <pt x="0" y="43" on="1"/>
        <pt x="268" y="43" on="1"/>
        <pt x="268" y="109" on="1"/>
      </contour>
    </TTGlyph>
    <TTGlyph name="plusminus" xMin="0" yMin="0" xMax="581" yMax="652">
      <contour>
        <pt x="48" y="202" on="1"/>
        <pt x="259" y="202" on="1"/>
        <pt x="259" y="252" on="1"/>
        <pt x="221" y="252" on="1"/>
        <pt x="221" y="391" on="1"/>
        <pt x="48" y="391" on="1"/>
        <pt x="48" y="508" on="1"/>
        <pt x="221" y="508" on="1"/>
        <pt x="221" y="652" on="1"/>
        <pt x="359" y="652" on="1"/>
        <pt x="359" y="508" on="1"/>
        <pt x="533" y="508" on="1"/>
        <pt x="533" y="391" on="1"/>
        <pt x="359" y="391" on="1"/>
        <pt x="359" y="252" on="1"/>
        <pt x="323" y="252" on="1"/>
        <pt x="323" y="202" on="1"/>
        <pt x="533" y="202" on="1"/>
        <pt x="533" y="89" on="1"/>
        <pt x="323" y="89" on="1"/>
        <pt x="323" y="43" on="1"/>
        <pt x="581" y="43" on="1"/>
        <pt x="581" y="0" on="1"/>
        <pt x="0" y="0" on="1"/>
        <pt x="0" y="43" on="1"/>
        <pt x="259" y="43" on="1"/>
        <pt x="259" y="89" on="1"/>
        <pt x="48" y="89" on="1"/>
      </contour>
    </TTGlyph>
    <TTGlyph name="q" xMin="0" yMin="-117" xMax="827" yMax="715">
      <contour>
        <pt x="780" y="354" on="1"/>
        <pt x="780" y="254" on="0"/>
        <pt x="685" y="90" on="0"/>
        <pt x="603" y="43" on="1"/>
        <pt x="827" y="43" on="1"/>
        <pt x="827" y="0" on="1"/>
        <pt x="491" y="0" on="1"/>
        <pt x="491" y="-117" on="1"/>
        <pt x="335" y="-117" on="1"/>
        <pt x="335" y="0" on="1"/>
        <pt x="0" y="0" on="1"/>
        <pt x="0" y="43" on="1"/>
        <pt x="223" y="43" on="1"/>
        <pt x="141" y="90" on="0"/>
        <pt x="46" y="254" on="0"/>
        <pt x="46" y="354" on="1"/>
        <pt x="46" y="508" on="0"/>
        <pt x="258" y="715" on="0"/>
        <pt x="568" y="715" on="0"/>
        <pt x="780" y="508" on="0"/>
      </contour>
      <contour>
        <pt x="335" y="242" on="1"/>
        <pt x="491" y="242" on="1"/>
        <pt x="491" y="145" on="1"/>
        <pt x="549" y="170" on="0"/>
        <pt x="621" y="283" on="0"/>
        <pt x="621" y="353" on="1"/>
        <pt x="621" y="447" on="0"/>
        <pt x="501" y="579" on="0"/>
        <pt x="326" y="579" on="0"/>
        <pt x="206" y="447" on="0"/>
        <pt x="206" y="353" on="1"/>
        <pt x="206" y="283" on="0"/>
        <pt x="277" y="170" on="0"/>
        <pt x="335" y="145" on="1"/>
      </contour>
    </TTGlyph>
    <TTGlyph name="question" xMin="0" yMin="0" xMax="524" yMax="715">
      <contour>
        <pt x="331" y="235" on="1"/>
        <pt x="179" y="235" on="1"/>
        <pt x="179" y="284" on="1"/>
        <pt x="179" y="352" on="0"/>
        <pt x="236" y="411" on="1"/>
        <pt x="244" y="419" on="0"/>
        <pt x="284" y="457" on="0"/>
        <pt x="292" y="466" on="1"/>
        <pt x="317" y="494" on="0"/>
        <pt x="317" y="551" on="0"/>
        <pt x="287" y="583" on="0"/>
        <pt x="232" y="583" on="0"/>
        <pt x="193" y="534" on="0"/>
        <pt x="193" y="503" on="1"/>
        <pt x="193" y="497" on="0"/>
        <pt x="194" y="491" on="1"/>
        <pt x="52" y="491" on="1"/>
        <pt x="52" y="497" on="0"/>
        <pt x="52" y="503" on="1"/>
        <pt x="52" y="597" on="0"/>
        <pt x="171" y="715" on="0"/>
        <pt x="364" y="715" on="0"/>
        <pt x="474" y="618" on="0"/>
        <pt x="474" y="533" on="1"/>
        <pt x="474" y="491" on="0"/>
        <pt x="429" y="410" on="0"/>
        <pt x="402" y="384" on="1"/>
        <pt x="331" y="316" on="0"/>
        <pt x="331" y="266" on="1"/>
      </contour>
      <contour>
        <pt x="524" y="43" on="1"/>
        <pt x="524" y="0" on="1"/>
        <pt x="0" y="0" on="1"/>
        <pt x="0" y="43" on="1"/>
        <pt x="189" y="43" on="1"/>
        <pt x="169" y="66" on="0"/>
        <pt x="169" y="137" on="0"/>
        <pt x="220" y="188" on="0"/>
        <pt x="294" y="188" on="0"/>
        <pt x="345" y="137" on="0"/>
        <pt x="345" y="67" on="0"/>
        <pt x="324" y="43" on="1"/>
      </contour>
    </TTGlyph>
    <TTGlyph name="questiondown" xMin="0" yMin="0" xMax="526" yMax="715">
      <contour>
        <pt x="0" y="0" on="1"/>
        <pt x="0" y="43" on="1"/>
        <pt x="130" y="43" on="1"/>
        <pt x="52" y="90" on="0"/>
        <pt x="52" y="194" on="1"/>
        <pt x="52" y="236" on="0"/>
        <pt x="97" y="317" on="0"/>
        <pt x="124" y="342" on="1"/>
        <pt x="195" y="411" on="0"/>
        <pt x="195" y="461" on="1"/>
        <pt x="195" y="492" on="1"/>
        <pt x="347" y="492" on="1"/>
        <pt x="347" y="443" on="1"/>
        <pt x="347" y="375" on="0"/>
        <pt x="290" y="316" on="1"/>
        <pt x="282" y="308" on="0"/>
        <pt x="242" y="270" on="0"/>
        <pt x="234" y="261" on="1"/>
        <pt x="209" y="233" on="0"/>
        <pt x="209" y="176" on="0"/>
        <pt x="239" y="144" on="0"/>
        <pt x="294" y="144" on="0"/>
        <pt x="333" y="193" on="0"/>
        <pt x="333" y="224" on="1"/>
        <pt x="333" y="230" on="0"/>
        <pt x="332" y="236" on="1"/>
        <pt x="474" y="236" on="1"/>
        <pt x="474" y="231" on="0"/>
        <pt x="474" y="226" on="1"/>
        <pt x="474" y="100" on="0"/>
        <pt x="377" y="43" on="1"/>
        <pt x="526" y="43" on="1"/>
        <pt x="526" y="0" on="1"/>
      </contour>
      <contour>
        <pt x="357" y="664" on="0"/>
        <pt x="357" y="590" on="0"/>
        <pt x="306" y="539" on="0"/>
        <pt x="232" y="539" on="0"/>
        <pt x="181" y="590" on="0"/>
        <pt x="181" y="664" on="0"/>
        <pt x="232" y="715" on="0"/>
        <pt x="306" y="715" on="0"/>
      </contour>
    </TTGlyph>
    <TTGlyph name="quotedbl" xMin="0" yMin="0" xMax="434" yMax="699">
      <contour>
        <pt x="69" y="431" on="1"/>
        <pt x="69" y="699" on="1"/>
        <pt x="188" y="699" on="1"/>
        <pt x="188" y="471" on="1"/>
        <pt x="245" y="471" on="1"/>
        <pt x="245" y="699" on="1"/>
        <pt x="364" y="699" on="1"/>
        <pt x="364" y="431" on="1"/>
        <pt x="249" y="431" on="1"/>
        <pt x="249" y="43" on="1"/>
        <pt x="434" y="43" on="1"/>
        <pt x="434" y="0" on="1"/>
        <pt x="0" y="0" on="1"/>
        <pt x="0" y="43" on="1"/>
        <pt x="185" y="43" on="1"/>
        <pt x="185" y="431" on="1"/>
      </contour>
    </TTGlyph>
    <TTGlyph name="quotedblbase" xMin="-13" yMin="-77" xMax="472" yMax="117">
      <contour>
        <pt x="472" y="43" on="1"/>
        <pt x="472" y="0" on="1"/>
        <pt x="370" y="0" on="1"/>
        <pt x="346" y="-77" on="1"/>
        <pt x="225" y="-77" on="1"/>
        <pt x="248" y="0" on="1"/>
        <pt x="177" y="0" on="1"/>
        <pt x="153" y="-77" on="1"/>
        <pt x="32" y="-77" on="1"/>
        <pt x="55" y="0" on="1"/>
        <pt x="-13" y="0" on="1"/>
        <pt x="-13" y="43" on="1"/>
        <pt x="68" y="43" on="1"/>
        <pt x="91" y="117" on="1"/>
        <pt x="213" y="117" on="1"/>
        <pt x="190" y="43" on="1"/>
        <pt x="261" y="43" on="1"/>
        <pt x="284" y="117" on="1"/>
        <pt x="406" y="117" on="1"/>
        <pt x="383" y="43" on="1"/>
      </contour>
    </TTGlyph>
    <TTGlyph name="quotedblleft" xMin="0" yMin="0" xMax="444" yMax="699">
      <contour>
        <pt x="444" y="43" on="1"/>
        <pt x="444" y="0" on="1"/>
        <pt x="0" y="0" on="1"/>
        <pt x="0" y="43" on="1"/>
        <pt x="179" y="43" on="1"/>
        <pt x="179" y="504" on="1"/>
        <pt x="57" y="504" on="1"/>
        <pt x="117" y="699" on="1"/>
        <pt x="239" y="699" on="1"/>
        <pt x="183" y="519" on="1"/>
        <pt x="223" y="519" on="1"/>
        <pt x="279" y="699" on="1"/>
        <pt x="401" y="699" on="1"/>
        <pt x="341" y="504" on="1"/>
        <pt x="226" y="504" on="1"/>
        <pt x="226" y="43" on="1"/>
      </contour>
    </TTGlyph>
    <TTGlyph name="quotedblright" xMin="0" yMin="0" xMax="444" yMax="699">
      <contour>
        <pt x="444" y="43" on="1"/>
        <pt x="444" y="0" on="1"/>
        <pt x="0" y="0" on="1"/>
        <pt x="0" y="43" on="1"/>
        <pt x="179" y="43" on="1"/>
        <pt x="179" y="504" on="1"/>
        <pt x="57" y="504" on="1"/>
        <pt x="117" y="699" on="1"/>
        <pt x="239" y="699" on="1"/>
        <pt x="183" y="519" on="1"/>
        <pt x="223" y="519" on="1"/>
        <pt x="279" y="699" on="1"/>
        <pt x="401" y="699" on="1"/>
        <pt x="341" y="504" on="1"/>
        <pt x="226" y="504" on="1"/>
        <pt x="226" y="43" on="1"/>
      </contour>
    </TTGlyph>
    <TTGlyph name="quoteleft" xMin="0" yMin="0" xMax="282" yMax="699">
      <contour>
        <pt x="282" y="43" on="1"/>
        <pt x="282" y="0" on="1"/>
        <pt x="0" y="0" on="1"/>
        <pt x="0" y="43" on="1"/>
        <pt x="99" y="43" on="1"/>
        <pt x="99" y="504" on="1"/>
        <pt x="57" y="504" on="1"/>
        <pt x="117" y="699" on="1"/>
        <pt x="239" y="699" on="1"/>
        <pt x="179" y="504" on="1"/>
        <pt x="146" y="504" on="1"/>
        <pt x="146" y="43" on="1"/>
      </contour>
    </TTGlyph>
    <TTGlyph name="quoteright" xMin="0" yMin="0" xMax="282" yMax="699">
      <contour>
        <pt x="282" y="43" on="1"/>
        <pt x="282" y="0" on="1"/>
        <pt x="0" y="0" on="1"/>
        <pt x="0" y="43" on="1"/>
        <pt x="99" y="43" on="1"/>
        <pt x="99" y="504" on="1"/>
        <pt x="57" y="504" on="1"/>
        <pt x="117" y="699" on="1"/>
        <pt x="239" y="699" on="1"/>
        <pt x="179" y="504" on="1"/>
        <pt x="146" y="504" on="1"/>
        <pt x="146" y="43" on="1"/>
      </contour>
    </TTGlyph>
    <TTGlyph name="quotesinglbase" xMin="-13" yMin="-77" xMax="279" yMax="117">
      <contour>
        <pt x="279" y="43" on="1"/>
        <pt x="279" y="0" on="1"/>
        <pt x="177" y="0" on="1"/>
        <pt x="153" y="-77" on="1"/>
        <pt x="32" y="-77" on="1"/>
        <pt x="55" y="0" on="1"/>
        <pt x="-13" y="0" on="1"/>
        <pt x="-13" y="43" on="1"/>
        <pt x="68" y="43" on="1"/>
        <pt x="91" y="117" on="1"/>
        <pt x="213" y="117" on="1"/>
        <pt x="190" y="43" on="1"/>
      </contour>
    </TTGlyph>
    <TTGlyph name="quotesingle" xMin="0" yMin="0" xMax="261" yMax="699">
      <contour>
        <pt x="71" y="431" on="1"/>
        <pt x="71" y="699" on="1"/>
        <pt x="190" y="699" on="1"/>
        <pt x="190" y="431" on="1"/>
        <pt x="154" y="431" on="1"/>
        <pt x="154" y="43" on="1"/>
        <pt x="261" y="43" on="1"/>
        <pt x="261" y="0" on="1"/>
        <pt x="0" y="0" on="1"/>
        <pt x="0" y="43" on="1"/>
        <pt x="107" y="43" on="1"/>
        <pt x="107" y="431" on="1"/>
      </contour>
    </TTGlyph>
    <TTGlyph name="r" xMin="-11" yMin="0" xMax="760" yMax="699">
      <contour>
        <pt x="86" y="43" on="1"/>
        <pt x="86" y="699" on="1"/>
        <pt x="351" y="699" on="1"/>
        <pt x="514" y="699" on="0"/>
        <pt x="653" y="589" on="0"/>
        <pt x="653" y="467" on="1"/>
        <pt x="653" y="299" on="0"/>
        <pt x="520" y="250" on="1"/>
        <pt x="666" y="43" on="1"/>
        <pt x="760" y="43" on="1"/>
        <pt x="760" y="0" on="1"/>
        <pt x="505" y="0" on="1"/>
        <pt x="350" y="223" on="1"/>
        <pt x="242" y="223" on="1"/>
        <pt x="242" y="0" on="1"/>
        <pt x="-11" y="0" on="1"/>
        <pt x="-11" y="43" on="1"/>
      </contour>
      <contour>
        <pt x="436" y="358" on="0"/>
        <pt x="494" y="410" on="0"/>
        <pt x="494" y="523" on="0"/>
        <pt x="434" y="565" on="0"/>
        <pt x="359" y="565" on="1"/>
        <pt x="242" y="565" on="1"/>
        <pt x="242" y="358" on="1"/>
        <pt x="356" y="358" on="1"/>
      </contour>
    </TTGlyph>
    <TTGlyph name="racute" xMin="-11" yMin="0" xMax="760" yMax="948">
      <contour>
        <pt x="86" y="43" on="1"/>
        <pt x="86" y="699" on="1"/>
        <pt x="351" y="699" on="1"/>
        <pt x="514" y="699" on="0"/>
        <pt x="653" y="589" on="0"/>
        <pt x="653" y="467" on="1"/>
        <pt x="653" y="299" on="0"/>
        <pt x="520" y="250" on="1"/>
        <pt x="666" y="43" on="1"/>
        <pt x="760" y="43" on="1"/>
        <pt x="760" y="0" on="1"/>
        <pt x="505" y="0" on="1"/>
        <pt x="350" y="223" on="1"/>
        <pt x="242" y="223" on="1"/>
        <pt x="242" y="0" on="1"/>
        <pt x="-11" y="0" on="1"/>
        <pt x="-11" y="43" on="1"/>
      </contour>
      <contour>
        <pt x="436" y="358" on="0"/>
        <pt x="494" y="410" on="0"/>
        <pt x="494" y="523" on="0"/>
        <pt x="434" y="565" on="0"/>
        <pt x="359" y="565" on="1"/>
        <pt x="242" y="565" on="1"/>
        <pt x="242" y="358" on="1"/>
        <pt x="356" y="358" on="1"/>
      </contour>
      <contour>
        <pt x="347" y="771" on="1"/>
        <pt x="204" y="771" on="1"/>
        <pt x="331" y="948" on="1"/>
        <pt x="486" y="883" on="1"/>
      </contour>
    </TTGlyph>
    <TTGlyph name="rcaron" xMin="-11" yMin="0" xMax="760" yMax="927">
      <contour>
        <pt x="86" y="43" on="1"/>
        <pt x="86" y="699" on="1"/>
        <pt x="351" y="699" on="1"/>
        <pt x="514" y="699" on="0"/>
        <pt x="653" y="589" on="0"/>
        <pt x="653" y="467" on="1"/>
        <pt x="653" y="299" on="0"/>
        <pt x="520" y="250" on="1"/>
        <pt x="666" y="43" on="1"/>
        <pt x="760" y="43" on="1"/>
        <pt x="760" y="0" on="1"/>
        <pt x="505" y="0" on="1"/>
        <pt x="350" y="223" on="1"/>
        <pt x="242" y="223" on="1"/>
        <pt x="242" y="0" on="1"/>
        <pt x="-11" y="0" on="1"/>
        <pt x="-11" y="43" on="1"/>
      </contour>
      <contour>
        <pt x="436" y="358" on="0"/>
        <pt x="494" y="410" on="0"/>
        <pt x="494" y="523" on="0"/>
        <pt x="434" y="565" on="0"/>
        <pt x="359" y="565" on="1"/>
        <pt x="242" y="565" on="1"/>
        <pt x="242" y="358" on="1"/>
        <pt x="356" y="358" on="1"/>
      </contour>
      <contour>
        <pt x="130" y="927" on="1"/>
        <pt x="253" y="927" on="1"/>
        <pt x="336" y="846" on="1"/>
        <pt x="420" y="927" on="1"/>
        <pt x="543" y="927" on="1"/>
        <pt x="430" y="769" on="1"/>
        <pt x="243" y="769" on="1"/>
      </contour>
    </TTGlyph>
    <TTGlyph name="rcommaaccent" xMin="-11" yMin="-250" xMax="760" yMax="699">
      <contour>
        <pt x="86" y="43" on="1"/>
        <pt x="86" y="699" on="1"/>
        <pt x="351" y="699" on="1"/>
        <pt x="514" y="699" on="0"/>
        <pt x="653" y="589" on="0"/>
        <pt x="653" y="467" on="1"/>
        <pt x="653" y="299" on="0"/>
        <pt x="520" y="250" on="1"/>
        <pt x="666" y="43" on="1"/>
        <pt x="760" y="43" on="1"/>
        <pt x="760" y="0" on="1"/>
        <pt x="505" y="0" on="1"/>
        <pt x="358" y="211" on="1"/>
        <pt x="358" y="-55" on="1"/>
        <pt x="452" y="-55" on="1"/>
        <pt x="372" y="-250" on="1"/>
        <pt x="246" y="-250" on="1"/>
        <pt x="311" y="-55" on="1"/>
        <pt x="311" y="223" on="1"/>
        <pt x="242" y="223" on="1"/>
        <pt x="242" y="0" on="1"/>
        <pt x="-11" y="0" on="1"/>
        <pt x="-11" y="43" on="1"/>
      </contour>
      <contour>
        <pt x="436" y="358" on="0"/>
        <pt x="494" y="410" on="0"/>
        <pt x="494" y="523" on="0"/>
        <pt x="434" y="565" on="0"/>
        <pt x="359" y="565" on="1"/>
        <pt x="242" y="565" on="1"/>
        <pt x="242" y="358" on="1"/>
        <pt x="356" y="358" on="1"/>
      </contour>
    </TTGlyph>
    <TTGlyph name="registered" xMin="0" yMin="0" xMax="824" yMax="711">
      <contour>
        <pt x="0" y="0" on="1"/>
        <pt x="0" y="43" on="1"/>
        <pt x="219" y="43" on="1"/>
        <pt x="141" y="92" on="0"/>
        <pt x="51" y="253" on="0"/>
        <pt x="51" y="348" on="1"/>
        <pt x="51" y="497" on="0"/>
        <pt x="262" y="711" on="0"/>
        <pt x="562" y="711" on="0"/>
        <pt x="773" y="499" on="0"/>
        <pt x="773" y="350" on="1"/>
        <pt x="773" y="255" on="0"/>
        <pt x="681" y="92" on="0"/>
        <pt x="603" y="43" on="1"/>
        <pt x="824" y="43" on="1"/>
        <pt x="824" y="0" on="1"/>
      </contour>
      <contour>
        <pt x="619" y="151" on="1"/>
        <pt x="699" y="234" on="0"/>
        <pt x="699" y="468" on="0"/>
        <pt x="531" y="636" on="0"/>
        <pt x="294" y="636" on="0"/>
        <pt x="125" y="466" on="0"/>
        <pt x="125" y="230" on="0"/>
        <pt x="291" y="62" on="0"/>
        <pt x="533" y="62" on="0"/>
        <pt x="617" y="149" on="1"/>
        <pt x="501" y="149" on="1"/>
        <pt x="414" y="274" on="1"/>
        <pt x="370" y="274" on="1"/>
        <pt x="370" y="149" on="1"/>
        <pt x="260" y="149" on="1"/>
        <pt x="260" y="555" on="1"/>
        <pt x="421" y="555" on="1"/>
        <pt x="517" y="555" on="0"/>
        <pt x="599" y="489" on="0"/>
        <pt x="599" y="416" on="1"/>
        <pt x="599" y="327" on="0"/>
        <pt x="518" y="292" on="1"/>
      </contour>
      <contour>
        <pt x="462" y="364" on="0"/>
        <pt x="490" y="389" on="0"/>
        <pt x="490" y="444" on="0"/>
        <pt x="461" y="465" on="0"/>
        <pt x="425" y="465" on="1"/>
        <pt x="370" y="465" on="1"/>
        <pt x="370" y="364" on="1"/>
        <pt x="423" y="364" on="1"/>
      </contour>
    </TTGlyph>
    <TTGlyph name="ring" xMin="100" yMin="596" xMax="314" yMax="810">
      <contour>
        <pt x="100" y="659" on="0"/>
        <pt x="100" y="747" on="0"/>
        <pt x="163" y="810" on="0"/>
        <pt x="251" y="810" on="0"/>
        <pt x="314" y="747" on="0"/>
        <pt x="314" y="659" on="0"/>
        <pt x="251" y="596" on="0"/>
        <pt x="163" y="596" on="0"/>
      </contour>
      <contour>
        <pt x="172" y="717" on="0"/>
        <pt x="172" y="689" on="0"/>
        <pt x="193" y="668" on="0"/>
        <pt x="221" y="668" on="0"/>
        <pt x="242" y="689" on="0"/>
        <pt x="242" y="717" on="0"/>
        <pt x="221" y="738" on="0"/>
        <pt x="193" y="738" on="0"/>
      </contour>
    </TTGlyph>
    <TTGlyph name="s" xMin="0" yMin="0" xMax="638" yMax="715">
      <contour>
        <pt x="638" y="43" on="1"/>
        <pt x="638" y="0" on="1"/>
        <pt x="0" y="0" on="1"/>
        <pt x="0" y="43" on="1"/>
        <pt x="136" y="43" on="1"/>
        <pt x="81" y="71" on="0"/>
        <pt x="36" y="115" on="1"/>
        <pt x="129" y="229" on="1"/>
        <pt x="242" y="130" on="0"/>
        <pt x="338" y="130" on="1"/>
        <pt x="381" y="130" on="0"/>
        <pt x="430" y="167" on="0"/>
        <pt x="430" y="230" on="0"/>
        <pt x="378" y="267" on="0"/>
        <pt x="301" y="286" on="1"/>
        <pt x="179" y="315" on="0"/>
        <pt x="66" y="408" on="0"/>
        <pt x="66" y="607" on="0"/>
        <pt x="209" y="715" on="0"/>
        <pt x="316" y="715" on="1"/>
        <pt x="386" y="715" on="0"/>
        <pt x="526" y="667" on="0"/>
        <pt x="578" y="623" on="1"/>
        <pt x="499" y="509" on="1"/>
        <pt x="408" y="578" on="0"/>
        <pt x="311" y="578" on="1"/>
        <pt x="272" y="578" on="0"/>
        <pt x="227" y="541" on="0"/>
        <pt x="227" y="480" on="0"/>
        <pt x="282" y="444" on="0"/>
        <pt x="481" y="395" on="0"/>
        <pt x="591" y="297" on="0"/>
        <pt x="591" y="210" on="1"/>
        <pt x="591" y="102" on="0"/>
        <pt x="510" y="43" on="1"/>
      </contour>
    </TTGlyph>
    <TTGlyph name="scaron" xMin="0" yMin="0" xMax="638" yMax="927">
      <contour>
        <pt x="638" y="43" on="1"/>
        <pt x="638" y="0" on="1"/>
        <pt x="0" y="0" on="1"/>
        <pt x="0" y="43" on="1"/>
        <pt x="136" y="43" on="1"/>
        <pt x="81" y="71" on="0"/>
        <pt x="36" y="115" on="1"/>
        <pt x="129" y="229" on="1"/>
        <pt x="242" y="130" on="0"/>
        <pt x="338" y="130" on="1"/>
        <pt x="381" y="130" on="0"/>
        <pt x="430" y="167" on="0"/>
        <pt x="430" y="230" on="0"/>
        <pt x="378" y="267" on="0"/>
        <pt x="301" y="286" on="1"/>
        <pt x="179" y="315" on="0"/>
        <pt x="66" y="408" on="0"/>
        <pt x="66" y="607" on="0"/>
        <pt x="209" y="715" on="0"/>
        <pt x="316" y="715" on="1"/>
        <pt x="386" y="715" on="0"/>
        <pt x="526" y="667" on="0"/>
        <pt x="578" y="623" on="1"/>
        <pt x="499" y="509" on="1"/>
        <pt x="408" y="578" on="0"/>
        <pt x="311" y="578" on="1"/>
        <pt x="272" y="578" on="0"/>
        <pt x="227" y="541" on="0"/>
        <pt x="227" y="480" on="0"/>
        <pt x="282" y="444" on="0"/>
        <pt x="481" y="395" on="0"/>
        <pt x="591" y="297" on="0"/>
        <pt x="591" y="210" on="1"/>
        <pt x="591" y="102" on="0"/>
        <pt x="510" y="43" on="1"/>
      </contour>
      <contour>
        <pt x="101" y="927" on="1"/>
        <pt x="224" y="927" on="1"/>
        <pt x="307" y="846" on="1"/>
        <pt x="391" y="927" on="1"/>
        <pt x="514" y="927" on="1"/>
        <pt x="401" y="769" on="1"/>
        <pt x="214" y="769" on="1"/>
      </contour>
    </TTGlyph>
    <TTGlyph name="section" xMin="0" yMin="-156" xMax="642" yMax="715">
      <contour>
        <pt x="642" y="43" on="1"/>
        <pt x="642" y="0" on="1"/>
        <pt x="539" y="0" on="1"/>
        <pt x="530" y="-67" on="0"/>
        <pt x="411" y="-156" on="0"/>
        <pt x="316" y="-156" on="1"/>
        <pt x="173" y="-156" on="0"/>
        <pt x="53" y="-47" on="1"/>
        <pt x="92" y="0" on="1"/>
        <pt x="0" y="0" on="1"/>
        <pt x="0" y="43" on="1"/>
        <pt x="384" y="43" on="1"/>
        <pt x="362" y="65" on="0"/>
        <pt x="161" y="124" on="0"/>
        <pt x="50" y="209" on="0"/>
        <pt x="50" y="290" on="1"/>
        <pt x="50" y="332" on="0"/>
        <pt x="99" y="407" on="0"/>
        <pt x="145" y="427" on="1"/>
        <pt x="91" y="465" on="0"/>
        <pt x="91" y="530" on="1"/>
        <pt x="91" y="612" on="0"/>
        <pt x="213" y="715" on="0"/>
        <pt x="308" y="715" on="1"/>
        <pt x="374" y="715" on="0"/>
        <pt x="478" y="678" on="0"/>
        <pt x="535" y="636" on="1"/>
        <pt x="460" y="529" on="1"/>
        <pt x="376" y="593" on="0"/>
        <pt x="306" y="593" on="1"/>
        <pt x="274" y="593" on="0"/>
        <pt x="237" y="563" on="0"/>
        <pt x="237" y="512" on="0"/>
        <pt x="284" y="481" on="0"/>
        <pt x="354" y="463" on="1"/>
        <pt x="474" y="434" on="0"/>
        <pt x="578" y="353" on="0"/>
        <pt x="578" y="277" on="1"/>
        <pt x="578" y="176" on="0"/>
        <pt x="476" y="134" on="1"/>
        <pt x="526" y="99" on="0"/>
        <pt x="537" y="43" on="1"/>
      </contour>
      <contour>
        <pt x="183" y="294" on="1"/>
        <pt x="183" y="256" on="0"/>
        <pt x="280" y="207" on="0"/>
        <pt x="355" y="207" on="1"/>
        <pt x="393" y="207" on="0"/>
        <pt x="445" y="240" on="0"/>
        <pt x="445" y="267" on="1"/>
        <pt x="445" y="308" on="0"/>
        <pt x="326" y="348" on="0"/>
        <pt x="278" y="348" on="1"/>
        <pt x="183" y="348" on="0"/>
      </contour>
      <contour>
        <pt x="210" y="0" on="1"/>
        <pt x="268" y="-34" on="0"/>
        <pt x="382" y="-34" on="0"/>
        <pt x="394" y="0" on="1"/>
      </contour>
    </TTGlyph>
    <TTGlyph name="semicolon" xMin="0" yMin="-81" xMax="315" yMax="451">
      <contour>
        <pt x="0" y="0" on="1"/>
        <pt x="0" y="43" on="1"/>
        <pt x="88" y="43" on="1"/>
        <pt x="67" y="67" on="0"/>
        <pt x="67" y="136" on="0"/>
        <pt x="121" y="187" on="0"/>
        <pt x="198" y="187" on="0"/>
        <pt x="253" y="137" on="0"/>
        <pt x="253" y="99" on="1"/>
        <pt x="253" y="77" on="0"/>
        <pt x="236" y="43" on="1"/>
        <pt x="315" y="43" on="1"/>
        <pt x="315" y="0" on="1"/>
        <pt x="211" y="0" on="1"/>
        <pt x="162" y="-81" on="1"/>
        <pt x="64" y="-81" on="1"/>
        <pt x="92" y="0" on="1"/>
      </contour>
      <contour>
        <pt x="67" y="326" on="0"/>
        <pt x="67" y="400" on="0"/>
        <pt x="118" y="451" on="0"/>
        <pt x="192" y="451" on="0"/>
        <pt x="243" y="400" on="0"/>
        <pt x="243" y="326" on="0"/>
        <pt x="192" y="275" on="0"/>
        <pt x="118" y="275" on="0"/>
      </contour>
    </TTGlyph>
    <TTGlyph name="seven" xMin="0" yMin="0" xMax="579" yMax="699">
      <contour>
        <pt x="579" y="43" on="1"/>
        <pt x="579" y="0" on="1"/>
        <pt x="0" y="0" on="1"/>
        <pt x="0" y="43" on="1"/>
        <pt x="119" y="43" on="1"/>
        <pt x="369" y="565" on="1"/>
        <pt x="193" y="565" on="1"/>
        <pt x="193" y="475" on="1"/>
        <pt x="47" y="475" on="1"/>
        <pt x="47" y="699" on="1"/>
        <pt x="552" y="699" on="1"/>
        <pt x="552" y="581" on="1"/>
        <pt x="290" y="43" on="1"/>
      </contour>
    </TTGlyph>
</ttFont>
